SplineFontDB: 3.0
FontName: AnticDidone-Regular
FullName: Antic Didone
FamilyName: Antic Didone
Weight: Book
Copyright: Copyright (c) 2011, Santiago Orozco (hi@typemade.mx), with Reserved Font Name Antic Didone.
Version: 2.000
ItalicAngle: 0
UnderlinePosition: -50
UnderlineWidth: 50
Ascent: 800
Descent: 200
sfntRevision: 0x00010000
LayerCount: 2
Layer: 0 1 "Back"  1
Layer: 1 1 "Fore"  0
XUID: [1021 831 1530541596 11194491]
FSType: 0
OS2Version: 2
OS2_WeightWidthSlopeOnly: 0
OS2_UseTypoMetrics: 1
CreationTime: 1324138887
ModificationTime: 1331499948
PfmFamily: 81
TTFWeight: 400
TTFWidth: 5
LineGap: 0
VLineGap: 0
Panose: 0 0 0 0 0 0 0 0 0 0
OS2TypoAscent: 140
OS2TypoAOffset: 1
OS2TypoDescent: -50
OS2TypoDOffset: 1
OS2TypoLinegap: 0
OS2WinAscent: 0
OS2WinAOffset: 1
OS2WinDescent: 0
OS2WinDOffset: 1
HheadAscent: 0
HheadAOffset: 1
HheadDescent: 0
HheadDOffset: 1
OS2SubXSize: 700
OS2SubYSize: 650
OS2SubXOff: 0
OS2SubYOff: 140
OS2SupXSize: 700
OS2SupYSize: 650
OS2SupXOff: 0
OS2SupYOff: 477
OS2StrikeYSize: 50
OS2StrikeYPos: 250
OS2Vendor: 'pyrs'
OS2CodePages: 00000001.00000000
OS2UnicodeRanges: 80000027.0000200a.00000000.00000000
Lookup: 258 0 0 "'kern' Horizontal Kerning in Latin lookup 0"  {"'kern' Horizontal Kerning in Latin lookup 0 per glyph data 0"  "'kern' Horizontal Kerning in Latin lookup 0 per glyph data 1"  "'kern' Horizontal Kerning in Latin lookup 0 kerning class 2"  } ['kern' ('latn' <'dflt' > ) ]
DEI: 91125
KernClass2: 32+ 21 "'kern' Horizontal Kerning in Latin lookup 0 kerning class 2" 
 50 A Agrave Aacute Acircumflex Atilde Adieresis Aring
 10 C Ccedilla
 5 D Eth
 37 E Egrave Eacute Ecircumflex Edieresis
 1 G
 52 H I J M N Igrave Iacute Icircumflex Idieresis Ntilde
 1 K
 1 L
 46 O Q Ograve Oacute Ocircumflex Otilde Odieresis
 1 R
 1 S
 1 T
 37 U Ugrave Uacute Ucircumflex Udieresis
 1 W
 18 Y Yacute Ydieresis
 63 a h m n agrave aacute acircumflex atilde adieresis aring ntilde
 9 at oslash
 9 b p thorn
 10 c ccedilla

StartChar: exclam
Encoding: 33 33 4
Width: 282
GlyphClass: 2
Flags: W
LayerCount: 2
Fore
SplineSet
172 700 m 1,0,-1
 152 129 l 1,1,-1
 132 129 l 1,2,-1
 112 695 l 1,3,-1
 172 700 l 1,0,-1
106 35 m 128,-1,5
 106 49 106 49 116.5 59.5 c 128,-1,6
 127 70 127 70 141 70 c 128,-1,7
 155 70 155 70 165.5 59.5 c 128,-1,8
 176 49 176 49 176 35 c 128,-1,9
 176 21 176 21 165.5 10.5 c 128,-1,10
 155 0 155 0 141 0 c 128,-1,11
 127 0 127 0 116.5 10.5 c 128,-1,4
 106 21 106 21 106 35 c 128,-1,5
EndSplineSet
EndChar

StartChar: quotedbl
Encoding: 34 34 5
Width: 358
GlyphClass: 2
Flags: W
LayerCount: 2
Fore
SplineSet
80 600 m 1,0,1
 79 606 79 606 79 611.5 c 128,-1,2
 79 617 79 617 78 625 c 128,-1,3
 77 633 77 633 76.5 643 c 128,-1,4
 76 653 76 653 76 664 c 0,5,6
 74 699 74 699 74 718 c 1,7,-1
 128 719 l 1,8,9
 118 662 118 662 118 603 c 1,10,-1
 80 600 l 1,0,1
200 600 m 1,11,12
 199 606 199 606 199 611.5 c 128,-1,13
 199 617 199 617 198 625 c 128,-1,14
 197 633 197 633 196.5 643 c 128,-1,15
 196 653 196 653 196 664 c 0,16,17
 194 699 194 699 194 718 c 1,18,-1
 248 719 l 1,19,20
 238 662 238 662 238 603 c 1,21,-1
 200 600 l 1,11,12
EndSplineSet
EndChar

StartChar: numbersign
Encoding: 35 35 6
Width: 600
GlyphClass: 2
Flags: W
LayerCount: 2
Fore
SplineSet
63 478 m 1,0,-1
 69 496 l 1,1,-1
 188 496 l 1,2,-1
 220 679 l 1,3,-1
 280 679 l 1,4,-1
 248 496 l 1,5,-1
 390 496 l 1,6,-1
 422 679 l 1,7,-1
 482 679 l 1,8,-1
 450 496 l 1,9,-1
 560 496 l 1,10,-1
 554 478 l 1,11,-1
 447 478 l 1,12,-1
 410 267 l 1,13,-1
 520 267 l 1,14,-1
 514 249 l 1,15,-1
 407 249 l 1,16,-1
 371 44 l 1,17,-1
 311 44 l 1,18,-1
 347 249 l 1,19,-1
 205 249 l 1,20,-1
 169 44 l 1,21,-1
 109 44 l 1,22,-1
 145 249 l 1,23,-1
 23 249 l 1,24,-1
 29 267 l 1,25,-1
 148 267 l 1,26,-1
 185 478 l 1,27,-1
 63 478 l 1,0,-1
245 478 m 1,28,-1
 208 267 l 1,29,-1
 350 267 l 1,30,-1
 387 478 l 1,31,-1
 245 478 l 1,28,-1
EndSplineSet
EndChar

StartChar: dollar
Encoding: 36 36 7
Width: 583
GlyphClass: 2
Flags: W
LayerCount: 2
Fore
SplineSet
306 587 m 2,0,-1
 301 587 l 1,1,-1
 301 334 l 1,2,3
 417 301 417 301 450 267 c 0,4,5
 489 226 489 226 489 157 c 128,-1,6
 489 88 489 88 436 45.5 c 128,-1,7
 383 3 383 3 301 -3 c 1,8,-1
 301 -100 l 1,9,-1
 266 -100 l 1,10,-1
 266 -4 l 1,11,12
 126 2 126 2 65 52 c 1,13,-1
 73 60 l 1,14,15
 98 35 98 35 155 22 c 128,-1,16
 212 9 212 9 264 9 c 2,17,-1
 266 9 l 1,18,-1
 266 288 l 1,19,20
 152 320 152 320 122 349 c 0,21,22
 84 385 84 385 84 446.5 c 128,-1,23
 84 508 84 508 133 550.5 c 128,-1,24
 182 593 182 593 266 599 c 1,25,-1
 266 700 l 1,26,-1
 301 700 l 1,27,-1
 301 600 l 1,28,29
 362 598 362 598 430 586 c 2,30,-1
 452 582 l 1,31,-1
 449 571 l 1,32,33
 353 587 353 587 306 587 c 2,0,-1
429 161 m 0,34,35
 429 209 429 209 396 234.5 c 128,-1,36
 363 260 363 260 301 278 c 1,37,-1
 301 11 l 1,38,39
 359 20 359 20 394 57 c 128,-1,40
 429 94 429 94 429 161 c 0,34,35
179.5 537.5 m 128,-1,42
 149 502 149 502 149 453.5 c 128,-1,43
 149 405 149 405 179 383 c 128,-1,44
 209 361 209 361 266 344 c 1,45,-1
 266 583 l 1,46,41
 210 573 210 573 179.5 537.5 c 128,-1,42
EndSplineSet
EndChar

StartChar: percent
Encoding: 37 37 8
Width: 653
GlyphClass: 2
Flags: W
LayerCount: 2
Fore
SplineSet
508 500 m 1,0,-1
 538 500 l 1,1,-1
 160 0 l 1,2,-1
 130 0 l 1,3,-1
 508 500 l 1,0,-1
80 400 m 0,4,5
 80 449 80 449 115 484.5 c 128,-1,6
 150 520 150 520 200 520 c 0,7,8
 320 520 320 520 320 400 c 0,9,10
 320 350 320 350 284.5 315 c 128,-1,11
 249 280 249 280 200 280 c 0,12,13
 80 280 80 280 80 400 c 0,4,5
143.5 472 m 128,-1,15
 120 442 120 442 120 396 c 128,-1,16
 120 350 120 350 142 324 c 128,-1,17
 164 298 164 298 198.5 298 c 128,-1,18
 233 298 233 298 256.5 327.5 c 128,-1,19
 280 357 280 357 280 403.5 c 128,-1,20
 280 450 280 450 257.5 476 c 128,-1,21
 235 502 235 502 201 502 c 128,-1,14
 167 502 167 502 143.5 472 c 128,-1,15
370 115 m 0,22,23
 370 164 370 164 405 199.5 c 128,-1,24
 440 235 440 235 490 235 c 0,25,26
 610 235 610 235 610 115 c 0,27,28
 610 65 610 65 574.5 30 c 128,-1,29
 539 -5 539 -5 490 -5 c 0,30,31
 370 -5 370 -5 370 115 c 0,22,23
433.5 187 m 128,-1,33
 410 157 410 157 410 111 c 128,-1,34
 410 65 410 65 432 39 c 128,-1,35
 454 13 454 13 488.5 13 c 128,-1,36
 523 13 523 13 546.5 42.5 c 128,-1,37
 570 72 570 72 570 118.5 c 128,-1,38
 570 165 570 165 547.5 191 c 128,-1,39
 525 217 525 217 491 217 c 128,-1,32
 457 217 457 217 433.5 187 c 128,-1,33
EndSplineSet
EndChar

StartChar: ampersand
Encoding: 38 38 9
Width: 861
GlyphClass: 2
Flags: W
LayerCount: 2
Fore
SplineSet
817 353 m 2,0,1
 817 352 817 352 818 338 c 1,2,-1
 744 332 l 1,3,4
 711 204 711 204 640 123 c 1,5,6
 686 82 686 82 760 19 c 1,7,-1
 808 15 l 2,8,9
 808 14 808 14 807 0 c 1,10,-1
 720 -1 l 1,11,-1
 698 -1 l 1,12,-1
 600 84 l 1,13,14
 496 -4 496 -4 338 -4 c 0,15,16
 71 -4 71 -4 71 229 c 0,17,18
 71 329 71 329 120.5 386.5 c 128,-1,19
 170 444 170 444 254 461 c 1,20,21
 199 545 199 545 199 599 c 128,-1,22
 199 653 199 653 243 701 c 128,-1,23
 287 749 287 749 375 749 c 0,24,25
 422 749 422 749 447 739.5 c 128,-1,26
 472 730 472 730 486 724 c 128,-1,27
 500 718 500 718 513 709 c 128,-1,28
 526 700 526 700 534 695 c 0,29,30
 550 684 550 684 560 674 c 1,31,-1
 552 664 l 1,32,33
 468 734 468 734 388 734 c 0,34,35
 350 734 350 734 323.5 718.5 c 128,-1,36
 297 703 297 703 285 680 c 0,37,38
 264 638 264 638 264 602 c 0,39,40
 264 468 264 468 609 151 c 1,41,42
 660 224 660 224 682 318 c 1,43,44
 682 330 682 330 670 332 c 1,45,-1
 608 337 l 1,46,47
 607 343 607 343 607 352 c 1,48,-1
 817 353 l 2,0,1
345 11 m 0,49,50
 483 11 483 11 575 108 c 1,51,52
 356 309 356 309 263 446 c 1,53,54
 202 429 202 429 169 374 c 128,-1,55
 136 319 136 319 136 224 c 128,-1,56
 136 129 136 129 186 70 c 128,-1,57
 236 11 236 11 345 11 c 0,49,50
EndSplineSet
EndChar

StartChar: quotesingle
Encoding: 39 39 10
Width: 200
GlyphClass: 2
Flags: W
LayerCount: 2
Fore
SplineSet
74 587 m 1,0,-1
 75 661 l 2,1,2
 75 702 75 702 74 715 c 1,3,-1
 64 715 l 1,4,-1
 98 718 l 1,5,6
 98 699 98 699 97 677 c 128,-1,7
 96 655 96 655 95.5 638 c 128,-1,8
 95 621 95 621 94 606.5 c 128,-1,9
 93 592 93 592 92 575 c 1,10,-1
 74 573 l 1,11,-1
 74 587 l 1,0,-1
EndSplineSet
EndChar

StartChar: parenleft
Encoding: 40 40 11
Width: 346
GlyphClass: 2
Flags: W
LayerCount: 2
Fore
SplineSet
170.5 481 m 128,-1,1
 159 393 159 393 159 283 c 128,-1,2
 159 173 159 173 169.5 87 c 128,-1,3
 180 1 180 1 192.5 -45.5 c 128,-1,4
 205 -92 205 -92 223 -127 c 128,-1,5
 241 -162 241 -162 249 -171 c 0,6,7
 255 -178 255 -178 267 -188 c 1,8,-1
 265 -200 l 1,9,10
 224 -182 224 -182 193 -141 c 0,11,12
 126 -52 126 -52 104 122 c 0,13,14
 94 195 94 195 94 281.5 c 128,-1,15
 94 368 94 368 103.5 441.5 c 128,-1,16
 113 515 113 515 128 562 c 128,-1,17
 143 609 143 609 161.5 645.5 c 128,-1,18
 180 682 180 682 198 701 c 0,19,20
 236 741 236 741 256 747 c 2,21,-1
 265 750 l 1,22,-1
 267 731 l 1,23,24
 263 729 263 729 255.5 723.5 c 128,-1,25
 248 718 248 718 229.5 687.5 c 128,-1,26
 211 657 211 657 196.5 613 c 128,-1,0
 182 569 182 569 170.5 481 c 128,-1,1
EndSplineSet
EndChar

StartChar: parenright
Encoding: 41 41 12
Width: 400
GlyphClass: 2
Flags: W
LayerCount: 2
Fore
SplineSet
258 442 m 0,0,1
 267 368 267 368 267 281.5 c 128,-1,2
 267 195 267 195 257.5 122.5 c 128,-1,3
 248 50 248 50 235 3 c 128,-1,4
 222 -44 222 -44 202.5 -82.5 c 128,-1,5
 183 -121 183 -121 168 -141 c 128,-1,6
 153 -161 153 -161 134 -176 c 0,7,8
 113 -193 113 -193 96 -200 c 1,9,-1
 94 -188 l 1,10,11
 106 -178 106 -178 113 -170 c 128,-1,12
 120 -162 120 -162 138 -127 c 128,-1,13
 156 -92 156 -92 168.5 -45.5 c 128,-1,14
 181 1 181 1 191.5 87 c 128,-1,15
 202 173 202 173 202 283 c 128,-1,16
 202 393 202 393 191 480.5 c 128,-1,17
 180 568 180 568 164 613 c 0,18,19
 131 706 131 706 105 724 c 1,20,-1
 94 731 l 1,21,-1
 96 750 l 1,22,23
 125 743 125 743 164 701 c 0,24,25
 234 624 234 624 258 442 c 0,0,1
EndSplineSet
EndChar

StartChar: asterisk
Encoding: 42 42 13
Width: 556
GlyphClass: 2
Flags: W
LayerCount: 2
Fore
SplineSet
274 736 m 1,0,-1
 322 735 l 1,1,2
 322 688 322 688 314 613 c 1,3,-1
 427 656 l 1,4,-1
 443 609 l 1,5,6
 397 593 397 593 325 578 c 1,7,-1
 400 483 l 1,8,-1
 361 454 l 1,9,10
 332 492 332 492 293 559 c 1,11,12
 239 480 239 480 225 457 c 1,13,-1
 186 485 l 1,14,15
 193 494 193 494 264 581 c 1,16,-1
 148 613 l 1,17,-1
 162 660 l 1,18,19
 220 640 220 640 278 613 c 1,20,21
 275 726 275 726 274 736 c 1,0,-1
EndSplineSet
EndChar

StartChar: plus
Encoding: 43 43 14
Width: 799
GlyphClass: 2
Flags: W
LayerCount: 2
Fore
SplineSet
146 270 m 1,0,-1
 366 270 l 1,1,-1
 366 500 l 1,2,-1
 426 500 l 1,3,-1
 426 270 l 1,4,-1
 646 270 l 1,5,-1
 646 252 l 1,6,-1
 426 252 l 1,7,-1
 426 0 l 1,8,-1
 366 0 l 1,9,-1
 366 252 l 1,10,-1
 146 252 l 1,11,-1
 146 270 l 1,0,-1
EndSplineSet
EndChar

StartChar: comma
Encoding: 44 44 15
Width: 110
GlyphClass: 2
Flags: W
LayerCount: 2
Fore
SplineSet
33 65 m 1,0,1
 33 65 33 65 87 64 c 1,2,3
 87 29 87 29 64 -30 c 0,4,5
 56 -51 56 -51 45.5 -71 c 128,-1,6
 35 -91 35 -91 29 -103 c 1,7,-1
 13 -101 l 1,8,-1
 18 -67 l 1,9,10
 33 24 33 24 33 43 c 128,-1,11
 33 62 33 62 33 65 c 1,0,1
EndSplineSet
EndChar

StartChar: hyphen
Encoding: 45 45 16
Width: 600
GlyphClass: 2
Flags: W
LayerCount: 2
Fore
SplineSet
146 290 m 1,0,-1
 448 290 l 1,1,-1
 448 272 l 1,2,-1
 146 272 l 1,3,-1
 146 290 l 1,0,-1
EndSplineSet
EndChar

StartChar: period
Encoding: 46 46 17
Width: 143
GlyphClass: 2
Flags: W
LayerCount: 2
Fore
SplineSet
34 29 m 0,0,1
 34 48 34 48 43.5 59 c 128,-1,2
 53 70 53 70 69 70 c 0,3,4
 104 70 104 70 104 29 c 0,5,6
 104 12 104 12 94 2 c 128,-1,7
 84 -8 84 -8 69 -8 c 0,8,9
 34 -8 34 -8 34 29 c 0,0,1
EndSplineSet
EndChar

StartChar: slash
Encoding: 47 47 18
Width: 600
GlyphClass: 2
Flags: W
LayerCount: 2
Fore
SplineSet
450 749 m 1,0,-1
 470 749 l 1,1,-1
 152 -200 l 1,2,-1
 132 -200 l 1,3,-1
 450 749 l 1,0,-1
EndSplineSet
EndChar

StartChar: zero
Encoding: 48 48 19
Width: 700
GlyphClass: 2
Flags: W
LayerCount: 2
Fore
SplineSet
211 583 m 128,-1,1
 153 493 153 493 153 334 c 128,-1,2
 153 175 153 175 209 93 c 128,-1,3
 265 11 265 11 348 11 c 128,-1,4
 431 11 431 11 489 100.5 c 128,-1,5
 547 190 547 190 547 347.5 c 128,-1,6
 547 505 547 505 490.5 589 c 128,-1,7
 434 673 434 673 351.5 673 c 128,-1,0
 269 673 269 673 211 583 c 128,-1,1
160 81.5 m 128,-1,9
 85 167 85 167 85 334 c 128,-1,10
 85 501 85 501 162 594.5 c 128,-1,11
 239 688 239 688 351.5 688 c 128,-1,12
 464 688 464 688 539.5 600.5 c 128,-1,13
 615 513 615 513 615 348 c 128,-1,14
 615 183 615 183 538 89.5 c 128,-1,15
 461 -4 461 -4 348 -4 c 128,-1,8
 235 -4 235 -4 160 81.5 c 128,-1,9
EndSplineSet
PairPos2: "'kern' Horizontal Kerning in Latin lookup 0 per glyph data 1" dotlessi dx=0 dy=0 dh=-93 dv=0 dx=0 dy=0 dh=0 dv=0
PairPos2: "'kern' Horizontal Kerning in Latin lookup 0 per glyph data 1" thorn dx=0 dy=0 dh=-93 dv=0 dx=0 dy=0 dh=0 dv=0
PairPos2: "'kern' Horizontal Kerning in Latin lookup 0 per glyph data 1" ntilde dx=0 dy=0 dh=-93 dv=0 dx=0 dy=0 dh=0 dv=0
PairPos2: "'kern' Horizontal Kerning in Latin lookup 0 per glyph data 1" idieresis dx=0 dy=0 dh=-93 dv=0 dx=0 dy=0 dh=0 dv=0
PairPos2: "'kern' Horizontal Kerning in Latin lookup 0 per glyph data 1" icircumflex dx=0 dy=0 dh=-93 dv=0 dx=0 dy=0 dh=0 dv=0
PairPos2: "'kern' Horizontal Kerning in Latin lookup 0 per glyph data 1" iacute dx=0 dy=0 dh=-93 dv=0 dx=0 dy=0 dh=0 dv=0
PairPos2: "'kern' Horizontal Kerning in Latin lookup 0 per glyph data 1" igrave dx=0 dy=0 dh=-93 dv=0 dx=0 dy=0 dh=0 dv=0
PairPos2: "'kern' Horizontal Kerning in Latin lookup 0 per glyph data 1" germandbls dx=0 dy=0 dh=-93 dv=0 dx=0 dy=0 dh=0 dv=0
PairPos2: "'kern' Horizontal Kerning in Latin lookup 0 per glyph data 1" mu dx=0 dy=0 dh=-93 dv=0 dx=0 dy=0 dh=0 dv=0
PairPos2: "'kern' Horizontal Kerning in Latin lookup 0 per glyph data 1" brokenbar dx=0 dy=0 dh=-93 dv=0 dx=0 dy=0 dh=0 dv=0
PairPos2: "'kern' Horizontal Kerning in Latin lookup 0 per glyph data 1" exclamdown dx=0 dy=0 dh=-93 dv=0 dx=0 dy=0 dh=0 dv=0
PairPos2: "'kern' Horizontal Kerning in Latin lookup 0 per glyph data 1" bar dx=0 dy=0 dh=-93 dv=0 dx=0 dy=0 dh=0 dv=0
PairPos2: "'kern' Horizontal Kerning in Latin lookup 0 per glyph data 1" r dx=0 dy=0 dh=-93 dv=0 dx=0 dy=0 dh=0 dv=0
PairPos2: "'kern' Horizontal Kerning in Latin lookup 0 per glyph data 1" p dx=0 dy=0 dh=-93 dv=0 dx=0 dy=0 dh=0 dv=0
PairPos2: "'kern' Horizontal Kerning in Latin lookup 0 per glyph data 1" n dx=0 dy=0 dh=-93 dv=0 dx=0 dy=0 dh=0 dv=0
PairPos2: "'kern' Horizontal Kerning in Latin lookup 0 per glyph data 1" m dx=0 dy=0 dh=-93 dv=0 dx=0 dy=0 dh=0 dv=0
PairPos2: "'kern' Horizontal Kerning in Latin lookup 0 per glyph data 1" l dx=0 dy=0 dh=-93 dv=0 dx=0 dy=0 dh=0 dv=0
PairPos2: "'kern' Horizontal Kerning in Latin lookup 0 per glyph data 1" k dx=0 dy=0 dh=-93 dv=0 dx=0 dy=0 dh=0 dv=0
PairPos2: "'kern' Horizontal Kerning in Latin lookup 0 per glyph data 1" j dx=0 dy=0 dh=-93 dv=0 dx=0 dy=0 dh=0 dv=0
PairPos2: "'kern' Horizontal Kerning in Latin lookup 0 per glyph data 1" i dx=0 dy=0 dh=-93 dv=0 dx=0 dy=0 dh=0 dv=0
PairPos2: "'kern' Horizontal Kerning in Latin lookup 0 per glyph data 1" h dx=0 dy=0 dh=-93 dv=0 dx=0 dy=0 dh=0 dv=0
PairPos2: "'kern' Horizontal Kerning in Latin lookup 0 per glyph data 1" f dx=0 dy=0 dh=-93 dv=0 dx=0 dy=0 dh=0 dv=0
PairPos2: "'kern' Horizontal Kerning in Latin lookup 0 per glyph data 1" b dx=0 dy=0 dh=-93 dv=0 dx=0 dy=0 dh=0 dv=0
PairPos2: "'kern' Horizontal Kerning in Latin lookup 0 per glyph data 1" bracketright dx=0 dy=0 dh=-93 dv=0 dx=0 dy=0 dh=0 dv=0
PairPos2: "'kern' Horizontal Kerning in Latin lookup 0 per glyph data 1" bracketleft dx=0 dy=0 dh=-93 dv=0 dx=0 dy=0 dh=0 dv=0
PairPos2: "'kern' Horizontal Kerning in Latin lookup 0 per glyph data 1" semicolon dx=0 dy=0 dh=-21 dv=0 dx=0 dy=0 dh=0 dv=0
PairPos2: "'kern' Horizontal Kerning in Latin lookup 0 per glyph data 1" colon dx=0 dy=0 dh=-21 dv=0 dx=0 dy=0 dh=0 dv=0
PairPos2: "'kern' Horizontal Kerning in Latin lookup 0 per glyph data 1" nine dx=0 dy=0 dh=-54 dv=0 dx=0 dy=0 dh=0 dv=0
PairPos2: "'kern' Horizontal Kerning in Latin lookup 0 per glyph data 1" eight dx=0 dy=0 dh=-53 dv=0 dx=0 dy=0 dh=0 dv=0
PairPos2: "'kern' Horizontal Kerning in Latin lookup 0 per glyph data 1" seven dx=0 dy=0 dh=-74 dv=0 dx=0 dy=0 dh=0 dv=0
PairPos2: "'kern' Horizontal Kerning in Latin lookup 0 per glyph data 1" six dx=0 dy=0 dh=-52 dv=0 dx=0 dy=0 dh=0 dv=0
PairPos2: "'kern' Horizontal Kerning in Latin lookup 0 per glyph data 1" five dx=0 dy=0 dh=-60 dv=0 dx=0 dy=0 dh=0 dv=0
PairPos2: "'kern' Horizontal Kerning in Latin lookup 0 per glyph data 1" four dx=0 dy=0 dh=-96 dv=0 dx=0 dy=0 dh=0 dv=0
PairPos2: "'kern' Horizontal Kerning in Latin lookup 0 per glyph data 1" three dx=0 dy=0 dh=-84 dv=0 dx=0 dy=0 dh=0 dv=0
PairPos2: "'kern' Horizontal Kerning in Latin lookup 0 per glyph data 1" two dx=0 dy=0 dh=-70 dv=0 dx=0 dy=0 dh=0 dv=0
PairPos2: "'kern' Horizontal Kerning in Latin lookup 0 per glyph data 1" one dx=0 dy=0 dh=-93 dv=0 dx=0 dy=0 dh=0 dv=0
PairPos2: "'kern' Horizontal Kerning in Latin lookup 0 per glyph data 1" zero dx=0 dy=0 dh=-73 dv=0 dx=0 dy=0 dh=0 dv=0
PairPos2: "'kern' Horizontal Kerning in Latin lookup 0 per glyph data 1" parenright dx=0 dy=0 dh=-93 dv=0 dx=0 dy=0 dh=0 dv=0
PairPos2: "'kern' Horizontal Kerning in Latin lookup 0 per glyph data 1" parenleft dx=0 dy=0 dh=-93 dv=0 dx=0 dy=0 dh=0 dv=0
PairPos2: "'kern' Horizontal Kerning in Latin lookup 0 per glyph data 1" exclam dx=0 dy=0 dh=-93 dv=0 dx=0 dy=0 dh=0 dv=0
EndChar

StartChar: one
Encoding: 49 49 20
Width: 488
GlyphClass: 2
Flags: W
LayerCount: 2
Fore
SplineSet
300 662 m 1,0,-1
 300 0 l 1,1,-1
 237 0 l 1,2,-1
 237 643 l 1,3,-1
 78 607 l 1,4,-1
 77 626 l 1,5,-1
 237 662 l 1,6,-1
 300 662 l 1,0,-1
EndSplineSet
EndChar

StartChar: two
Encoding: 50 50 21
Width: 572
GlyphClass: 2
Flags: W
LayerCount: 2
Fore
SplineSet
300 666 m 0,0,1
 376 666 376 666 431.5 624 c 128,-1,2
 487 582 487 582 487 491 c 0,3,4
 487 369 487 369 384 238 c 0,5,6
 333 173 333 173 289 126 c 128,-1,7
 245 79 245 79 177 15 c 1,8,-1
 485 15 l 1,9,-1
 505 180 l 1,10,-1
 524 175 l 1,11,-1
 509 0 l 1,12,-1
 101 0 l 1,13,-1
 90 15 l 1,14,15
 258 178 258 178 339 289.5 c 128,-1,16
 420 401 420 401 420 492 c 0,17,18
 420 540 420 540 398 589 c 0,19,20
 385 616 385 616 357.5 633 c 128,-1,21
 330 650 330 650 294 650 c 0,22,23
 229 650 229 650 143 614 c 1,24,-1
 115 603 l 1,25,-1
 110 613 l 1,26,27
 151 635 151 635 204 650.5 c 128,-1,28
 257 666 257 666 300 666 c 0,0,1
EndSplineSet
PairPos2: "'kern' Horizontal Kerning in Latin lookup 0 per glyph data 1" dotlessi dx=0 dy=0 dh=-65 dv=0 dx=0 dy=0 dh=0 dv=0
PairPos2: "'kern' Horizontal Kerning in Latin lookup 0 per glyph data 1" thorn dx=0 dy=0 dh=-65 dv=0 dx=0 dy=0 dh=0 dv=0
PairPos2: "'kern' Horizontal Kerning in Latin lookup 0 per glyph data 1" ntilde dx=0 dy=0 dh=-65 dv=0 dx=0 dy=0 dh=0 dv=0
PairPos2: "'kern' Horizontal Kerning in Latin lookup 0 per glyph data 1" idieresis dx=0 dy=0 dh=-65 dv=0 dx=0 dy=0 dh=0 dv=0
PairPos2: "'kern' Horizontal Kerning in Latin lookup 0 per glyph data 1" icircumflex dx=0 dy=0 dh=-65 dv=0 dx=0 dy=0 dh=0 dv=0
PairPos2: "'kern' Horizontal Kerning in Latin lookup 0 per glyph data 1" iacute dx=0 dy=0 dh=-65 dv=0 dx=0 dy=0 dh=0 dv=0
PairPos2: "'kern' Horizontal Kerning in Latin lookup 0 per glyph data 1" igrave dx=0 dy=0 dh=-65 dv=0 dx=0 dy=0 dh=0 dv=0
PairPos2: "'kern' Horizontal Kerning in Latin lookup 0 per glyph data 1" germandbls dx=0 dy=0 dh=-65 dv=0 dx=0 dy=0 dh=0 dv=0
PairPos2: "'kern' Horizontal Kerning in Latin lookup 0 per glyph data 1" mu dx=0 dy=0 dh=-65 dv=0 dx=0 dy=0 dh=0 dv=0
PairPos2: "'kern' Horizontal Kerning in Latin lookup 0 per glyph data 1" brokenbar dx=0 dy=0 dh=-65 dv=0 dx=0 dy=0 dh=0 dv=0
PairPos2: "'kern' Horizontal Kerning in Latin lookup 0 per glyph data 1" exclamdown dx=0 dy=0 dh=-65 dv=0 dx=0 dy=0 dh=0 dv=0
PairPos2: "'kern' Horizontal Kerning in Latin lookup 0 per glyph data 1" bar dx=0 dy=0 dh=-65 dv=0 dx=0 dy=0 dh=0 dv=0
PairPos2: "'kern' Horizontal Kerning in Latin lookup 0 per glyph data 1" r dx=0 dy=0 dh=-65 dv=0 dx=0 dy=0 dh=0 dv=0
PairPos2: "'kern' Horizontal Kerning in Latin lookup 0 per glyph data 1" p dx=0 dy=0 dh=-65 dv=0 dx=0 dy=0 dh=0 dv=0
PairPos2: "'kern' Horizontal Kerning in Latin lookup 0 per glyph data 1" n dx=0 dy=0 dh=-65 dv=0 dx=0 dy=0 dh=0 dv=0
PairPos2: "'kern' Horizontal Kerning in Latin lookup 0 per glyph data 1" m dx=0 dy=0 dh=-65 dv=0 dx=0 dy=0 dh=0 dv=0
PairPos2: "'kern' Horizontal Kerning in Latin lookup 0 per glyph data 1" l dx=0 dy=0 dh=-65 dv=0 dx=0 dy=0 dh=0 dv=0
PairPos2: "'kern' Horizontal Kerning in Latin lookup 0 per glyph data 1" k dx=0 dy=0 dh=-65 dv=0 dx=0 dy=0 dh=0 dv=0
PairPos2: "'kern' Horizontal Kerning in Latin lookup 0 per glyph data 1" j dx=0 dy=0 dh=-65 dv=0 dx=0 dy=0 dh=0 dv=0
PairPos2: "'kern' Horizontal Kerning in Latin lookup 0 per glyph data 1" i dx=0 dy=0 dh=-65 dv=0 dx=0 dy=0 dh=0 dv=0
PairPos2: "'kern' Horizontal Kerning in Latin lookup 0 per glyph data 1" h dx=0 dy=0 dh=-65 dv=0 dx=0 dy=0 dh=0 dv=0
PairPos2: "'kern' Horizontal Kerning in Latin lookup 0 per glyph data 1" f dx=0 dy=0 dh=-65 dv=0 dx=0 dy=0 dh=0 dv=0
PairPos2: "'kern' Horizontal Kerning in Latin lookup 0 per glyph data 1" b dx=0 dy=0 dh=-65 dv=0 dx=0 dy=0 dh=0 dv=0
PairPos2: "'kern' Horizontal Kerning in Latin lookup 0 per glyph data 1" bracketright dx=0 dy=0 dh=-65 dv=0 dx=0 dy=0 dh=0 dv=0
PairPos2: "'kern' Horizontal Kerning in Latin lookup 0 per glyph data 1" bracketleft dx=0 dy=0 dh=-65 dv=0 dx=0 dy=0 dh=0 dv=0
PairPos2: "'kern' Horizontal Kerning in Latin lookup 0 per glyph data 1" nine dx=0 dy=0 dh=-29 dv=0 dx=0 dy=0 dh=0 dv=0
PairPos2: "'kern' Horizontal Kerning in Latin lookup 0 per glyph data 1" eight dx=0 dy=0 dh=-51 dv=0 dx=0 dy=0 dh=0 dv=0
PairPos2: "'kern' Horizontal Kerning in Latin lookup 0 per glyph data 1" seven dx=0 dy=0 dh=-44 dv=0 dx=0 dy=0 dh=0 dv=0
PairPos2: "'kern' Horizontal Kerning in Latin lookup 0 per glyph data 1" six dx=0 dy=0 dh=-44 dv=0 dx=0 dy=0 dh=0 dv=0
PairPos2: "'kern' Horizontal Kerning in Latin lookup 0 per glyph data 1" five dx=0 dy=0 dh=-22 dv=0 dx=0 dy=0 dh=0 dv=0
PairPos2: "'kern' Horizontal Kerning in Latin lookup 0 per glyph data 1" four dx=0 dy=0 dh=-88 dv=0 dx=0 dy=0 dh=0 dv=0
PairPos2: "'kern' Horizontal Kerning in Latin lookup 0 per glyph data 1" three dx=0 dy=0 dh=-43 dv=0 dx=0 dy=0 dh=0 dv=0
PairPos2: "'kern' Horizontal Kerning in Latin lookup 0 per glyph data 1" two dx=0 dy=0 dh=-50 dv=0 dx=0 dy=0 dh=0 dv=0
PairPos2: "'kern' Horizontal Kerning in Latin lookup 0 per glyph data 1" one dx=0 dy=0 dh=-65 dv=0 dx=0 dy=0 dh=0 dv=0
PairPos2: "'kern' Horizontal Kerning in Latin lookup 0 per glyph data 1" zero dx=0 dy=0 dh=-59 dv=0 dx=0 dy=0 dh=0 dv=0
PairPos2: "'kern' Horizontal Kerning in Latin lookup 0 per glyph data 1" parenright dx=0 dy=0 dh=-65 dv=0 dx=0 dy=0 dh=0 dv=0
PairPos2: "'kern' Horizontal Kerning in Latin lookup 0 per glyph data 1" parenleft dx=0 dy=0 dh=-65 dv=0 dx=0 dy=0 dh=0 dv=0
PairPos2: "'kern' Horizontal Kerning in Latin lookup 0 per glyph data 1" exclam dx=0 dy=0 dh=-65 dv=0 dx=0 dy=0 dh=0 dv=0
EndChar

StartChar: three
Encoding: 51 51 22
Width: 560
GlyphClass: 2
Flags: W
LayerCount: 2
Fore
SplineSet
190 334 m 1,0,-1
 190 349 l 1,1,2
 245 349 245 349 273 348 c 1,3,4
 305 354 305 354 348 382 c 0,5,6
 375 400 375 400 392 434 c 128,-1,7
 409 468 409 468 409 518 c 128,-1,8
 409 568 409 568 382.5 609 c 128,-1,9
 356 650 356 650 297 650 c 0,10,11
 257 650 257 650 214 639 c 128,-1,12
 171 628 171 628 148 617 c 2,13,-1
 125 606 l 1,14,-1
 118 616 l 1,15,16
 149 634 149 634 203.5 650 c 128,-1,17
 258 666 258 666 302 666 c 0,18,19
 379 666 379 666 428 629 c 128,-1,20
 477 592 477 592 477 522 c 0,21,22
 477 417 477 417 373 365 c 0,23,24
 349 353 349 353 323 345 c 1,25,26
 481 326 481 326 481 201 c 0,27,28
 481 97 481 97 410 47 c 128,-1,29
 339 -3 339 -3 212 -3 c 0,30,31
 146 -3 146 -3 87 13 c 1,32,-1
 94 25 l 1,33,34
 134 12 134 12 206 12 c 0,35,36
 413 12 413 12 413 198 c 0,37,38
 413 267 413 267 376 294 c 0,39,40
 356 308 356 308 338.5 317 c 128,-1,41
 321 326 321 326 290 329 c 0,42,43
 238 334 238 334 190 334 c 1,0,-1
EndSplineSet
PairPos2: "'kern' Horizontal Kerning in Latin lookup 0 per glyph data 1" dotlessi dx=0 dy=0 dh=-64 dv=0 dx=0 dy=0 dh=0 dv=0
PairPos2: "'kern' Horizontal Kerning in Latin lookup 0 per glyph data 1" thorn dx=0 dy=0 dh=-64 dv=0 dx=0 dy=0 dh=0 dv=0
PairPos2: "'kern' Horizontal Kerning in Latin lookup 0 per glyph data 1" ntilde dx=0 dy=0 dh=-64 dv=0 dx=0 dy=0 dh=0 dv=0
PairPos2: "'kern' Horizontal Kerning in Latin lookup 0 per glyph data 1" idieresis dx=0 dy=0 dh=-64 dv=0 dx=0 dy=0 dh=0 dv=0
PairPos2: "'kern' Horizontal Kerning in Latin lookup 0 per glyph data 1" icircumflex dx=0 dy=0 dh=-64 dv=0 dx=0 dy=0 dh=0 dv=0
PairPos2: "'kern' Horizontal Kerning in Latin lookup 0 per glyph data 1" iacute dx=0 dy=0 dh=-64 dv=0 dx=0 dy=0 dh=0 dv=0
PairPos2: "'kern' Horizontal Kerning in Latin lookup 0 per glyph data 1" igrave dx=0 dy=0 dh=-64 dv=0 dx=0 dy=0 dh=0 dv=0
PairPos2: "'kern' Horizontal Kerning in Latin lookup 0 per glyph data 1" germandbls dx=0 dy=0 dh=-64 dv=0 dx=0 dy=0 dh=0 dv=0
PairPos2: "'kern' Horizontal Kerning in Latin lookup 0 per glyph data 1" mu dx=0 dy=0 dh=-64 dv=0 dx=0 dy=0 dh=0 dv=0
PairPos2: "'kern' Horizontal Kerning in Latin lookup 0 per glyph data 1" brokenbar dx=0 dy=0 dh=-64 dv=0 dx=0 dy=0 dh=0 dv=0
PairPos2: "'kern' Horizontal Kerning in Latin lookup 0 per glyph data 1" exclamdown dx=0 dy=0 dh=-64 dv=0 dx=0 dy=0 dh=0 dv=0
PairPos2: "'kern' Horizontal Kerning in Latin lookup 0 per glyph data 1" bar dx=0 dy=0 dh=-64 dv=0 dx=0 dy=0 dh=0 dv=0
PairPos2: "'kern' Horizontal Kerning in Latin lookup 0 per glyph data 1" r dx=0 dy=0 dh=-64 dv=0 dx=0 dy=0 dh=0 dv=0
PairPos2: "'kern' Horizontal Kerning in Latin lookup 0 per glyph data 1" p dx=0 dy=0 dh=-64 dv=0 dx=0 dy=0 dh=0 dv=0
PairPos2: "'kern' Horizontal Kerning in Latin lookup 0 per glyph data 1" n dx=0 dy=0 dh=-64 dv=0 dx=0 dy=0 dh=0 dv=0
PairPos2: "'kern' Horizontal Kerning in Latin lookup 0 per glyph data 1" m dx=0 dy=0 dh=-64 dv=0 dx=0 dy=0 dh=0 dv=0
PairPos2: "'kern' Horizontal Kerning in Latin lookup 0 per glyph data 1" l dx=0 dy=0 dh=-64 dv=0 dx=0 dy=0 dh=0 dv=0
PairPos2: "'kern' Horizontal Kerning in Latin lookup 0 per glyph data 1" k dx=0 dy=0 dh=-64 dv=0 dx=0 dy=0 dh=0 dv=0
PairPos2: "'kern' Horizontal Kerning in Latin lookup 0 per glyph data 1" j dx=0 dy=0 dh=-64 dv=0 dx=0 dy=0 dh=0 dv=0
PairPos2: "'kern' Horizontal Kerning in Latin lookup 0 per glyph data 1" i dx=0 dy=0 dh=-64 dv=0 dx=0 dy=0 dh=0 dv=0
PairPos2: "'kern' Horizontal Kerning in Latin lookup 0 per glyph data 1" h dx=0 dy=0 dh=-64 dv=0 dx=0 dy=0 dh=0 dv=0
PairPos2: "'kern' Horizontal Kerning in Latin lookup 0 per glyph data 1" f dx=0 dy=0 dh=-64 dv=0 dx=0 dy=0 dh=0 dv=0
PairPos2: "'kern' Horizontal Kerning in Latin lookup 0 per glyph data 1" b dx=0 dy=0 dh=-64 dv=0 dx=0 dy=0 dh=0 dv=0
PairPos2: "'kern' Horizontal Kerning in Latin lookup 0 per glyph data 1" bracketright dx=0 dy=0 dh=-64 dv=0 dx=0 dy=0 dh=0 dv=0
PairPos2: "'kern' Horizontal Kerning in Latin lookup 0 per glyph data 1" bracketleft dx=0 dy=0 dh=-64 dv=0 dx=0 dy=0 dh=0 dv=0
PairPos2: "'kern' Horizontal Kerning in Latin lookup 0 per glyph data 1" nine dx=0 dy=0 dh=-59 dv=0 dx=0 dy=0 dh=0 dv=0
PairPos2: "'kern' Horizontal Kerning in Latin lookup 0 per glyph data 1" eight dx=0 dy=0 dh=-51 dv=0 dx=0 dy=0 dh=0 dv=0
PairPos2: "'kern' Horizontal Kerning in Latin lookup 0 per glyph data 1" seven dx=0 dy=0 dh=-67 dv=0 dx=0 dy=0 dh=0 dv=0
PairPos2: "'kern' Horizontal Kerning in Latin lookup 0 per glyph data 1" six dx=0 dy=0 dh=-37 dv=0 dx=0 dy=0 dh=0 dv=0
PairPos2: "'kern' Horizontal Kerning in Latin lookup 0 per glyph data 1" five dx=0 dy=0 dh=-36 dv=0 dx=0 dy=0 dh=0 dv=0
PairPos2: "'kern' Horizontal Kerning in Latin lookup 0 per glyph data 1" four dx=0 dy=0 dh=-59 dv=0 dx=0 dy=0 dh=0 dv=0
PairPos2: "'kern' Horizontal Kerning in Latin lookup 0 per glyph data 1" three dx=0 dy=0 dh=-59 dv=0 dx=0 dy=0 dh=0 dv=0
PairPos2: "'kern' Horizontal Kerning in Latin lookup 0 per glyph data 1" two dx=0 dy=0 dh=-59 dv=0 dx=0 dy=0 dh=0 dv=0
PairPos2: "'kern' Horizontal Kerning in Latin lookup 0 per glyph data 1" one dx=0 dy=0 dh=-64 dv=0 dx=0 dy=0 dh=0 dv=0
PairPos2: "'kern' Horizontal Kerning in Latin lookup 0 per glyph data 1" zero dx=0 dy=0 dh=-66 dv=0 dx=0 dy=0 dh=0 dv=0
PairPos2: "'kern' Horizontal Kerning in Latin lookup 0 per glyph data 1" parenright dx=0 dy=0 dh=-64 dv=0 dx=0 dy=0 dh=0 dv=0
PairPos2: "'kern' Horizontal Kerning in Latin lookup 0 per glyph data 1" parenleft dx=0 dy=0 dh=-64 dv=0 dx=0 dy=0 dh=0 dv=0
PairPos2: "'kern' Horizontal Kerning in Latin lookup 0 per glyph data 1" exclam dx=0 dy=0 dh=-64 dv=0 dx=0 dy=0 dh=0 dv=0
EndChar

StartChar: four
Encoding: 52 52 23
Width: 601
GlyphClass: 2
Flags: W
LayerCount: 2
Fore
SplineSet
402 140 m 1,0,-1
 102 140 l 1,1,-1
 85 155 l 1,2,-1
 402 662 l 1,3,-1
 470 662 l 1,4,-1
 470 155 l 1,5,-1
 516 155 l 1,6,-1
 517 140 l 1,7,-1
 470 140 l 1,8,-1
 470 19 l 1,9,-1
 538 15 l 2,10,11
 538 14 538 14 537 0 c 1,12,-1
 337 -1 l 1,13,14
 337 8 337 8 338 13 c 1,15,-1
 390 20 l 2,16,17
 400 21 400 21 402 33 c 1,18,-1
 402 140 l 1,0,-1
402 155 m 1,19,-1
 402 633 l 1,20,-1
 102 155 l 1,21,-1
 402 155 l 1,19,-1
EndSplineSet
EndChar

StartChar: five
Encoding: 53 53 24
Width: 475
GlyphClass: 2
Flags: W
LayerCount: 2
Fore
SplineSet
421 201 m 0,0,1
 421 97 421 97 350 47 c 128,-1,2
 279 -3 279 -3 152 -3 c 0,3,4
 86 -3 86 -3 27 13 c 1,5,-1
 32 25 l 1,6,7
 72 12 72 12 146 12 c 0,8,9
 353 12 353 12 353 198 c 0,10,11
 353 292 353 292 292 324 c 0,12,13
 253 345 253 345 217 349 c 0,14,15
 172 354 172 354 120 354 c 2,16,-1
 109 354 l 1,17,-1
 129 662 l 1,18,-1
 415 662 l 1,19,-1
 428 518 l 1,20,-1
 408 510 l 1,21,-1
 396 607 l 1,22,-1
 142 607 l 1,23,-1
 127 369 l 1,24,25
 254 369 254 369 303 356 c 0,26,27
 421 325 421 325 421 201 c 0,0,1
EndSplineSet
PairPos2: "'kern' Horizontal Kerning in Latin lookup 0 per glyph data 1" dotlessi dx=0 dy=0 dh=-43 dv=0 dx=0 dy=0 dh=0 dv=0
PairPos2: "'kern' Horizontal Kerning in Latin lookup 0 per glyph data 1" thorn dx=0 dy=0 dh=-43 dv=0 dx=0 dy=0 dh=0 dv=0
PairPos2: "'kern' Horizontal Kerning in Latin lookup 0 per glyph data 1" ntilde dx=0 dy=0 dh=-43 dv=0 dx=0 dy=0 dh=0 dv=0
PairPos2: "'kern' Horizontal Kerning in Latin lookup 0 per glyph data 1" idieresis dx=0 dy=0 dh=-43 dv=0 dx=0 dy=0 dh=0 dv=0
PairPos2: "'kern' Horizontal Kerning in Latin lookup 0 per glyph data 1" icircumflex dx=0 dy=0 dh=-43 dv=0 dx=0 dy=0 dh=0 dv=0
PairPos2: "'kern' Horizontal Kerning in Latin lookup 0 per glyph data 1" iacute dx=0 dy=0 dh=-43 dv=0 dx=0 dy=0 dh=0 dv=0
PairPos2: "'kern' Horizontal Kerning in Latin lookup 0 per glyph data 1" igrave dx=0 dy=0 dh=-43 dv=0 dx=0 dy=0 dh=0 dv=0
PairPos2: "'kern' Horizontal Kerning in Latin lookup 0 per glyph data 1" germandbls dx=0 dy=0 dh=-43 dv=0 dx=0 dy=0 dh=0 dv=0
PairPos2: "'kern' Horizontal Kerning in Latin lookup 0 per glyph data 1" mu dx=0 dy=0 dh=-43 dv=0 dx=0 dy=0 dh=0 dv=0
PairPos2: "'kern' Horizontal Kerning in Latin lookup 0 per glyph data 1" brokenbar dx=0 dy=0 dh=-43 dv=0 dx=0 dy=0 dh=0 dv=0
PairPos2: "'kern' Horizontal Kerning in Latin lookup 0 per glyph data 1" exclamdown dx=0 dy=0 dh=-43 dv=0 dx=0 dy=0 dh=0 dv=0
PairPos2: "'kern' Horizontal Kerning in Latin lookup 0 per glyph data 1" bar dx=0 dy=0 dh=-43 dv=0 dx=0 dy=0 dh=0 dv=0
PairPos2: "'kern' Horizontal Kerning in Latin lookup 0 per glyph data 1" r dx=0 dy=0 dh=-43 dv=0 dx=0 dy=0 dh=0 dv=0
PairPos2: "'kern' Horizontal Kerning in Latin lookup 0 per glyph data 1" p dx=0 dy=0 dh=-43 dv=0 dx=0 dy=0 dh=0 dv=0
PairPos2: "'kern' Horizontal Kerning in Latin lookup 0 per glyph data 1" n dx=0 dy=0 dh=-43 dv=0 dx=0 dy=0 dh=0 dv=0
PairPos2: "'kern' Horizontal Kerning in Latin lookup 0 per glyph data 1" m dx=0 dy=0 dh=-43 dv=0 dx=0 dy=0 dh=0 dv=0
PairPos2: "'kern' Horizontal Kerning in Latin lookup 0 per glyph data 1" l dx=0 dy=0 dh=-43 dv=0 dx=0 dy=0 dh=0 dv=0
PairPos2: "'kern' Horizontal Kerning in Latin lookup 0 per glyph data 1" k dx=0 dy=0 dh=-43 dv=0 dx=0 dy=0 dh=0 dv=0
PairPos2: "'kern' Horizontal Kerning in Latin lookup 0 per glyph data 1" j dx=0 dy=0 dh=-43 dv=0 dx=0 dy=0 dh=0 dv=0
PairPos2: "'kern' Horizontal Kerning in Latin lookup 0 per glyph data 1" i dx=0 dy=0 dh=-43 dv=0 dx=0 dy=0 dh=0 dv=0
PairPos2: "'kern' Horizontal Kerning in Latin lookup 0 per glyph data 1" h dx=0 dy=0 dh=-43 dv=0 dx=0 dy=0 dh=0 dv=0
PairPos2: "'kern' Horizontal Kerning in Latin lookup 0 per glyph data 1" f dx=0 dy=0 dh=-43 dv=0 dx=0 dy=0 dh=0 dv=0
PairPos2: "'kern' Horizontal Kerning in Latin lookup 0 per glyph data 1" b dx=0 dy=0 dh=-43 dv=0 dx=0 dy=0 dh=0 dv=0
PairPos2: "'kern' Horizontal Kerning in Latin lookup 0 per glyph data 1" bracketright dx=0 dy=0 dh=-43 dv=0 dx=0 dy=0 dh=0 dv=0
PairPos2: "'kern' Horizontal Kerning in Latin lookup 0 per glyph data 1" bracketleft dx=0 dy=0 dh=-43 dv=0 dx=0 dy=0 dh=0 dv=0
PairPos2: "'kern' Horizontal Kerning in Latin lookup 0 per glyph data 1" nine dx=0 dy=0 dh=-29 dv=0 dx=0 dy=0 dh=0 dv=0
PairPos2: "'kern' Horizontal Kerning in Latin lookup 0 per glyph data 1" eight dx=0 dy=0 dh=-44 dv=0 dx=0 dy=0 dh=0 dv=0
PairPos2: "'kern' Horizontal Kerning in Latin lookup 0 per glyph data 1" seven dx=0 dy=0 dh=-37 dv=0 dx=0 dy=0 dh=0 dv=0
PairPos2: "'kern' Horizontal Kerning in Latin lookup 0 per glyph data 1" six dx=0 dy=0 dh=-15 dv=0 dx=0 dy=0 dh=0 dv=0
PairPos2: "'kern' Horizontal Kerning in Latin lookup 0 per glyph data 1" five dx=0 dy=0 dh=-37 dv=0 dx=0 dy=0 dh=0 dv=0
PairPos2: "'kern' Horizontal Kerning in Latin lookup 0 per glyph data 1" four dx=0 dy=0 dh=-45 dv=0 dx=0 dy=0 dh=0 dv=0
PairPos2: "'kern' Horizontal Kerning in Latin lookup 0 per glyph data 1" three dx=0 dy=0 dh=-68 dv=0 dx=0 dy=0 dh=0 dv=0
PairPos2: "'kern' Horizontal Kerning in Latin lookup 0 per glyph data 1" two dx=0 dy=0 dh=-58 dv=0 dx=0 dy=0 dh=0 dv=0
PairPos2: "'kern' Horizontal Kerning in Latin lookup 0 per glyph data 1" one dx=0 dy=0 dh=-43 dv=0 dx=0 dy=0 dh=0 dv=0
PairPos2: "'kern' Horizontal Kerning in Latin lookup 0 per glyph data 1" zero dx=0 dy=0 dh=-37 dv=0 dx=0 dy=0 dh=0 dv=0
PairPos2: "'kern' Horizontal Kerning in Latin lookup 0 per glyph data 1" parenright dx=0 dy=0 dh=-43 dv=0 dx=0 dy=0 dh=0 dv=0
PairPos2: "'kern' Horizontal Kerning in Latin lookup 0 per glyph data 1" parenleft dx=0 dy=0 dh=-43 dv=0 dx=0 dy=0 dh=0 dv=0
PairPos2: "'kern' Horizontal Kerning in Latin lookup 0 per glyph data 1" exclam dx=0 dy=0 dh=-43 dv=0 dx=0 dy=0 dh=0 dv=0
EndChar

StartChar: six
Encoding: 54 54 25
Width: 601
GlyphClass: 2
Flags: W
LayerCount: 2
Fore
SplineSet
437 326.5 m 128,-1,1
 481 282 481 282 481 195 c 128,-1,2
 481 108 481 108 421.5 52 c 128,-1,3
 362 -4 362 -4 270.5 -4 c 128,-1,4
 179 -4 179 -4 124.5 42 c 128,-1,5
 70 88 70 88 70 187 c 0,6,7
 70 245 70 245 89 302 c 128,-1,8
 108 359 108 359 136 402.5 c 128,-1,9
 164 446 164 446 204 488 c 128,-1,10
 244 530 244 530 277 557 c 128,-1,11
 310 584 310 584 350 610 c 0,12,13
 402 644 402 644 437 662 c 1,14,-1
 454 644 l 1,15,-1
 442 636 l 1,16,17
 345 579 345 579 266 493 c 0,18,19
 221 445 221 445 191 389 c 1,20,21
 291 387 291 387 321 382 c 0,22,0
 393 371 393 371 437 326.5 c 128,-1,1
138 189 m 128,-1,24
 138 94 138 94 176.5 52.5 c 128,-1,25
 215 11 215 11 273.5 11 c 128,-1,26
 332 11 332 11 372.5 63.5 c 128,-1,27
 413 116 413 116 413 193.5 c 128,-1,28
 413 271 413 271 384.5 314 c 128,-1,29
 356 357 356 357 309 367 c 1,30,31
 269 372 269 372 183 374 c 1,32,23
 138 284 138 284 138 189 c 128,-1,24
EndSplineSet
PairPos2: "'kern' Horizontal Kerning in Latin lookup 0 per glyph data 1" dotlessi dx=0 dy=0 dh=-93 dv=0 dx=0 dy=0 dh=0 dv=0
PairPos2: "'kern' Horizontal Kerning in Latin lookup 0 per glyph data 1" thorn dx=0 dy=0 dh=-93 dv=0 dx=0 dy=0 dh=0 dv=0
PairPos2: "'kern' Horizontal Kerning in Latin lookup 0 per glyph data 1" ntilde dx=0 dy=0 dh=-93 dv=0 dx=0 dy=0 dh=0 dv=0
PairPos2: "'kern' Horizontal Kerning in Latin lookup 0 per glyph data 1" idieresis dx=0 dy=0 dh=-93 dv=0 dx=0 dy=0 dh=0 dv=0
PairPos2: "'kern' Horizontal Kerning in Latin lookup 0 per glyph data 1" icircumflex dx=0 dy=0 dh=-93 dv=0 dx=0 dy=0 dh=0 dv=0
PairPos2: "'kern' Horizontal Kerning in Latin lookup 0 per glyph data 1" iacute dx=0 dy=0 dh=-93 dv=0 dx=0 dy=0 dh=0 dv=0
PairPos2: "'kern' Horizontal Kerning in Latin lookup 0 per glyph data 1" igrave dx=0 dy=0 dh=-93 dv=0 dx=0 dy=0 dh=0 dv=0
PairPos2: "'kern' Horizontal Kerning in Latin lookup 0 per glyph data 1" germandbls dx=0 dy=0 dh=-93 dv=0 dx=0 dy=0 dh=0 dv=0
PairPos2: "'kern' Horizontal Kerning in Latin lookup 0 per glyph data 1" mu dx=0 dy=0 dh=-93 dv=0 dx=0 dy=0 dh=0 dv=0
PairPos2: "'kern' Horizontal Kerning in Latin lookup 0 per glyph data 1" brokenbar dx=0 dy=0 dh=-93 dv=0 dx=0 dy=0 dh=0 dv=0
PairPos2: "'kern' Horizontal Kerning in Latin lookup 0 per glyph data 1" exclamdown dx=0 dy=0 dh=-93 dv=0 dx=0 dy=0 dh=0 dv=0
PairPos2: "'kern' Horizontal Kerning in Latin lookup 0 per glyph data 1" bar dx=0 dy=0 dh=-93 dv=0 dx=0 dy=0 dh=0 dv=0
PairPos2: "'kern' Horizontal Kerning in Latin lookup 0 per glyph data 1" r dx=0 dy=0 dh=-93 dv=0 dx=0 dy=0 dh=0 dv=0
PairPos2: "'kern' Horizontal Kerning in Latin lookup 0 per glyph data 1" p dx=0 dy=0 dh=-93 dv=0 dx=0 dy=0 dh=0 dv=0
PairPos2: "'kern' Horizontal Kerning in Latin lookup 0 per glyph data 1" n dx=0 dy=0 dh=-93 dv=0 dx=0 dy=0 dh=0 dv=0
PairPos2: "'kern' Horizontal Kerning in Latin lookup 0 per glyph data 1" m dx=0 dy=0 dh=-93 dv=0 dx=0 dy=0 dh=0 dv=0
PairPos2: "'kern' Horizontal Kerning in Latin lookup 0 per glyph data 1" l dx=0 dy=0 dh=-93 dv=0 dx=0 dy=0 dh=0 dv=0
PairPos2: "'kern' Horizontal Kerning in Latin lookup 0 per glyph data 1" k dx=0 dy=0 dh=-93 dv=0 dx=0 dy=0 dh=0 dv=0
PairPos2: "'kern' Horizontal Kerning in Latin lookup 0 per glyph data 1" j dx=0 dy=0 dh=-93 dv=0 dx=0 dy=0 dh=0 dv=0
PairPos2: "'kern' Horizontal Kerning in Latin lookup 0 per glyph data 1" i dx=0 dy=0 dh=-93 dv=0 dx=0 dy=0 dh=0 dv=0
PairPos2: "'kern' Horizontal Kerning in Latin lookup 0 per glyph data 1" h dx=0 dy=0 dh=-93 dv=0 dx=0 dy=0 dh=0 dv=0
PairPos2: "'kern' Horizontal Kerning in Latin lookup 0 per glyph data 1" f dx=0 dy=0 dh=-93 dv=0 dx=0 dy=0 dh=0 dv=0
PairPos2: "'kern' Horizontal Kerning in Latin lookup 0 per glyph data 1" b dx=0 dy=0 dh=-93 dv=0 dx=0 dy=0 dh=0 dv=0
PairPos2: "'kern' Horizontal Kerning in Latin lookup 0 per glyph data 1" bracketright dx=0 dy=0 dh=-93 dv=0 dx=0 dy=0 dh=0 dv=0
PairPos2: "'kern' Horizontal Kerning in Latin lookup 0 per glyph data 1" bracketleft dx=0 dy=0 dh=-93 dv=0 dx=0 dy=0 dh=0 dv=0
PairPos2: "'kern' Horizontal Kerning in Latin lookup 0 per glyph data 1" nine dx=0 dy=0 dh=-89 dv=0 dx=0 dy=0 dh=0 dv=0
PairPos2: "'kern' Horizontal Kerning in Latin lookup 0 per glyph data 1" eight dx=0 dy=0 dh=-89 dv=0 dx=0 dy=0 dh=0 dv=0
PairPos2: "'kern' Horizontal Kerning in Latin lookup 0 per glyph data 1" seven dx=0 dy=0 dh=-96 dv=0 dx=0 dy=0 dh=0 dv=0
PairPos2: "'kern' Horizontal Kerning in Latin lookup 0 per glyph data 1" six dx=0 dy=0 dh=-81 dv=0 dx=0 dy=0 dh=0 dv=0
PairPos2: "'kern' Horizontal Kerning in Latin lookup 0 per glyph data 1" five dx=0 dy=0 dh=-73 dv=0 dx=0 dy=0 dh=0 dv=0
PairPos2: "'kern' Horizontal Kerning in Latin lookup 0 per glyph data 1" four dx=0 dy=0 dh=-103 dv=0 dx=0 dy=0 dh=0 dv=0
PairPos2: "'kern' Horizontal Kerning in Latin lookup 0 per glyph data 1" three dx=0 dy=0 dh=-96 dv=0 dx=0 dy=0 dh=0 dv=0
PairPos2: "'kern' Horizontal Kerning in Latin lookup 0 per glyph data 1" two dx=0 dy=0 dh=-88 dv=0 dx=0 dy=0 dh=0 dv=0
PairPos2: "'kern' Horizontal Kerning in Latin lookup 0 per glyph data 1" one dx=0 dy=0 dh=-93 dv=0 dx=0 dy=0 dh=0 dv=0
PairPos2: "'kern' Horizontal Kerning in Latin lookup 0 per glyph data 1" zero dx=0 dy=0 dh=-96 dv=0 dx=0 dy=0 dh=0 dv=0
PairPos2: "'kern' Horizontal Kerning in Latin lookup 0 per glyph data 1" parenright dx=0 dy=0 dh=-93 dv=0 dx=0 dy=0 dh=0 dv=0
PairPos2: "'kern' Horizontal Kerning in Latin lookup 0 per glyph data 1" parenleft dx=0 dy=0 dh=-93 dv=0 dx=0 dy=0 dh=0 dv=0
PairPos2: "'kern' Horizontal Kerning in Latin lookup 0 per glyph data 1" exclam dx=0 dy=0 dh=-93 dv=0 dx=0 dy=0 dh=0 dv=0
EndChar

StartChar: seven
Encoding: 55 55 26
Width: 564
GlyphClass: 2
Flags: W
LayerCount: 2
Fore
SplineSet
197 0 m 1,0,-1
 449 607 l 1,1,-1
 109 607 l 1,2,-1
 97 510 l 1,3,-1
 78 518 l 1,4,-1
 90 662 l 1,5,-1
 461 662 l 1,6,-1
 475 607 l 1,7,-1
 223 0 l 1,8,-1
 197 0 l 1,0,-1
EndSplineSet
EndChar

StartChar: eight
Encoding: 56 56 27
Width: 613
GlyphClass: 2
Flags: W
LayerCount: 2
Fore
SplineSet
532 190 m 0,0,1
 532 160 532 160 525.5 133.5 c 128,-1,2
 519 107 519 107 498.5 72.5 c 128,-1,3
 478 38 478 38 429.5 17 c 128,-1,4
 381 -4 381 -4 315.5 -4 c 128,-1,5
 250 -4 250 -4 206.5 10.5 c 128,-1,6
 163 25 163 25 141 45.5 c 128,-1,7
 119 66 119 66 106 94 c 0,8,9
 86 136 86 136 86 183 c 0,10,11
 86 300 86 300 205 387 c 1,12,13
 124 420 124 420 124 514 c 0,14,15
 124 666 124 666 317 666 c 0,16,17
 393 666 393 666 442 633 c 0,18,19
 462 619 462 619 478 589.5 c 128,-1,20
 494 560 494 560 494 519 c 0,21,22
 494 420 494 420 404 358 c 1,23,24
 464 340 464 340 498 303 c 128,-1,25
 532 266 532 266 532 190 c 0,0,1
151 185 m 0,26,27
 151 136 151 136 164.5 100 c 128,-1,28
 178 64 178 64 194.5 47 c 128,-1,29
 211 30 211 30 234 20 c 1,30,31
 263 9 263 9 291 9 c 0,32,33
 467 9 467 9 467 180 c 0,34,35
 467 268 467 268 423 307 c 0,36,37
 383 342 383 342 324 356 c 0,38,39
 310 360 310 360 285 365.5 c 128,-1,40
 260 371 260 371 248 374 c 1,41,42
 151 294 151 294 151 185 c 0,26,27
304 653 m 0,43,44
 267 653 267 653 242 637.5 c 128,-1,45
 217 622 217 622 206 597 c 0,46,47
 189 555 189 555 189 516 c 128,-1,48
 189 477 189 477 200 452 c 128,-1,49
 211 427 211 427 239.5 411.5 c 128,-1,50
 268 396 268 396 284 390 c 0,51,52
 325 377 325 377 360 370 c 1,53,54
 391 395 391 395 408 431 c 128,-1,55
 425 467 425 467 425 504 c 0,56,57
 425 567 425 567 395.5 610 c 128,-1,58
 366 653 366 653 304 653 c 0,43,44
EndSplineSet
PairPos2: "'kern' Horizontal Kerning in Latin lookup 0 per glyph data 1" dotlessi dx=0 dy=0 dh=-79 dv=0 dx=0 dy=0 dh=0 dv=0
PairPos2: "'kern' Horizontal Kerning in Latin lookup 0 per glyph data 1" thorn dx=0 dy=0 dh=-79 dv=0 dx=0 dy=0 dh=0 dv=0
PairPos2: "'kern' Horizontal Kerning in Latin lookup 0 per glyph data 1" ntilde dx=0 dy=0 dh=-79 dv=0 dx=0 dy=0 dh=0 dv=0
PairPos2: "'kern' Horizontal Kerning in Latin lookup 0 per glyph data 1" idieresis dx=0 dy=0 dh=-79 dv=0 dx=0 dy=0 dh=0 dv=0
PairPos2: "'kern' Horizontal Kerning in Latin lookup 0 per glyph data 1" icircumflex dx=0 dy=0 dh=-79 dv=0 dx=0 dy=0 dh=0 dv=0
PairPos2: "'kern' Horizontal Kerning in Latin lookup 0 per glyph data 1" iacute dx=0 dy=0 dh=-79 dv=0 dx=0 dy=0 dh=0 dv=0
PairPos2: "'kern' Horizontal Kerning in Latin lookup 0 per glyph data 1" igrave dx=0 dy=0 dh=-79 dv=0 dx=0 dy=0 dh=0 dv=0
PairPos2: "'kern' Horizontal Kerning in Latin lookup 0 per glyph data 1" germandbls dx=0 dy=0 dh=-79 dv=0 dx=0 dy=0 dh=0 dv=0
PairPos2: "'kern' Horizontal Kerning in Latin lookup 0 per glyph data 1" mu dx=0 dy=0 dh=-79 dv=0 dx=0 dy=0 dh=0 dv=0
PairPos2: "'kern' Horizontal Kerning in Latin lookup 0 per glyph data 1" brokenbar dx=0 dy=0 dh=-79 dv=0 dx=0 dy=0 dh=0 dv=0
PairPos2: "'kern' Horizontal Kerning in Latin lookup 0 per glyph data 1" exclamdown dx=0 dy=0 dh=-79 dv=0 dx=0 dy=0 dh=0 dv=0
PairPos2: "'kern' Horizontal Kerning in Latin lookup 0 per glyph data 1" bar dx=0 dy=0 dh=-79 dv=0 dx=0 dy=0 dh=0 dv=0
PairPos2: "'kern' Horizontal Kerning in Latin lookup 0 per glyph data 1" r dx=0 dy=0 dh=-79 dv=0 dx=0 dy=0 dh=0 dv=0
PairPos2: "'kern' Horizontal Kerning in Latin lookup 0 per glyph data 1" p dx=0 dy=0 dh=-79 dv=0 dx=0 dy=0 dh=0 dv=0
PairPos2: "'kern' Horizontal Kerning in Latin lookup 0 per glyph data 1" n dx=0 dy=0 dh=-79 dv=0 dx=0 dy=0 dh=0 dv=0
PairPos2: "'kern' Horizontal Kerning in Latin lookup 0 per glyph data 1" m dx=0 dy=0 dh=-79 dv=0 dx=0 dy=0 dh=0 dv=0
PairPos2: "'kern' Horizontal Kerning in Latin lookup 0 per glyph data 1" l dx=0 dy=0 dh=-79 dv=0 dx=0 dy=0 dh=0 dv=0
PairPos2: "'kern' Horizontal Kerning in Latin lookup 0 per glyph data 1" k dx=0 dy=0 dh=-79 dv=0 dx=0 dy=0 dh=0 dv=0
PairPos2: "'kern' Horizontal Kerning in Latin lookup 0 per glyph data 1" j dx=0 dy=0 dh=-79 dv=0 dx=0 dy=0 dh=0 dv=0
PairPos2: "'kern' Horizontal Kerning in Latin lookup 0 per glyph data 1" i dx=0 dy=0 dh=-79 dv=0 dx=0 dy=0 dh=0 dv=0
PairPos2: "'kern' Horizontal Kerning in Latin lookup 0 per glyph data 1" h dx=0 dy=0 dh=-79 dv=0 dx=0 dy=0 dh=0 dv=0
PairPos2: "'kern' Horizontal Kerning in Latin lookup 0 per glyph data 1" f dx=0 dy=0 dh=-79 dv=0 dx=0 dy=0 dh=0 dv=0
PairPos2: "'kern' Horizontal Kerning in Latin lookup 0 per glyph data 1" b dx=0 dy=0 dh=-79 dv=0 dx=0 dy=0 dh=0 dv=0
PairPos2: "'kern' Horizontal Kerning in Latin lookup 0 per glyph data 1" bracketright dx=0 dy=0 dh=-79 dv=0 dx=0 dy=0 dh=0 dv=0
PairPos2: "'kern' Horizontal Kerning in Latin lookup 0 per glyph data 1" bracketleft dx=0 dy=0 dh=-79 dv=0 dx=0 dy=0 dh=0 dv=0
PairPos2: "'kern' Horizontal Kerning in Latin lookup 0 per glyph data 1" nine dx=0 dy=0 dh=-64 dv=0 dx=0 dy=0 dh=0 dv=0
PairPos2: "'kern' Horizontal Kerning in Latin lookup 0 per glyph data 1" eight dx=0 dy=0 dh=-82 dv=0 dx=0 dy=0 dh=0 dv=0
PairPos2: "'kern' Horizontal Kerning in Latin lookup 0 per glyph data 1" seven dx=0 dy=0 dh=-89 dv=0 dx=0 dy=0 dh=0 dv=0
PairPos2: "'kern' Horizontal Kerning in Latin lookup 0 per glyph data 1" six dx=0 dy=0 dh=-66 dv=0 dx=0 dy=0 dh=0 dv=0
PairPos2: "'kern' Horizontal Kerning in Latin lookup 0 per glyph data 1" five dx=0 dy=0 dh=-59 dv=0 dx=0 dy=0 dh=0 dv=0
PairPos2: "'kern' Horizontal Kerning in Latin lookup 0 per glyph data 1" four dx=0 dy=0 dh=-74 dv=0 dx=0 dy=0 dh=0 dv=0
PairPos2: "'kern' Horizontal Kerning in Latin lookup 0 per glyph data 1" three dx=0 dy=0 dh=-66 dv=0 dx=0 dy=0 dh=0 dv=0
PairPos2: "'kern' Horizontal Kerning in Latin lookup 0 per glyph data 1" two dx=0 dy=0 dh=-73 dv=0 dx=0 dy=0 dh=0 dv=0
PairPos2: "'kern' Horizontal Kerning in Latin lookup 0 per glyph data 1" one dx=0 dy=0 dh=-79 dv=0 dx=0 dy=0 dh=0 dv=0
PairPos2: "'kern' Horizontal Kerning in Latin lookup 0 per glyph data 1" zero dx=0 dy=0 dh=-88 dv=0 dx=0 dy=0 dh=0 dv=0
PairPos2: "'kern' Horizontal Kerning in Latin lookup 0 per glyph data 1" parenright dx=0 dy=0 dh=-79 dv=0 dx=0 dy=0 dh=0 dv=0
PairPos2: "'kern' Horizontal Kerning in Latin lookup 0 per glyph data 1" parenleft dx=0 dy=0 dh=-79 dv=0 dx=0 dy=0 dh=0 dv=0
PairPos2: "'kern' Horizontal Kerning in Latin lookup 0 per glyph data 1" exclam dx=0 dy=0 dh=-79 dv=0 dx=0 dy=0 dh=0 dv=0
EndChar

StartChar: nine
Encoding: 57 57 28
Width: 601
GlyphClass: 2
Flags: W
LayerCount: 2
Fore
SplineSet
114 331.5 m 128,-1,1
 70 376 70 376 70 463 c 128,-1,2
 70 550 70 550 129.5 606 c 128,-1,3
 189 662 189 662 280.5 662 c 128,-1,4
 372 662 372 662 426.5 616 c 128,-1,5
 481 570 481 570 481 471 c 0,6,7
 481 413 481 413 462 356 c 128,-1,8
 443 299 443 299 415 255.5 c 128,-1,9
 387 212 387 212 347 170 c 128,-1,10
 307 128 307 128 274 101 c 128,-1,11
 241 74 241 74 202 48 c 0,12,13
 149 14 149 14 114 -4 c 1,14,-1
 97 14 l 1,15,16
 100 14 100 14 135 37.5 c 128,-1,17
 170 61 170 61 185.5 73.5 c 128,-1,18
 201 86 201 86 220 102 c 128,-1,19
 239 118 239 118 257.5 136.5 c 128,-1,20
 276 155 276 155 294 175 c 0,21,22
 329 214 329 214 360 269 c 1,23,24
 273 269 273 269 230 276 c 0,25,0
 158 287 158 287 114 331.5 c 128,-1,1
413 469 m 128,-1,27
 413 564 413 564 374.5 605.5 c 128,-1,28
 336 647 336 647 277.5 647 c 128,-1,29
 219 647 219 647 178.5 594.5 c 128,-1,30
 138 542 138 542 138 464.5 c 128,-1,31
 138 387 138 387 166.5 344 c 128,-1,32
 195 301 195 301 239 292.5 c 128,-1,33
 283 284 283 284 368 284 c 1,34,26
 413 374 413 374 413 469 c 128,-1,27
EndSplineSet
PairPos2: "'kern' Horizontal Kerning in Latin lookup 0 per glyph data 1" dotlessi dx=0 dy=0 dh=-93 dv=0 dx=0 dy=0 dh=0 dv=0
PairPos2: "'kern' Horizontal Kerning in Latin lookup 0 per glyph data 1" thorn dx=0 dy=0 dh=-93 dv=0 dx=0 dy=0 dh=0 dv=0
PairPos2: "'kern' Horizontal Kerning in Latin lookup 0 per glyph data 1" ntilde dx=0 dy=0 dh=-93 dv=0 dx=0 dy=0 dh=0 dv=0
PairPos2: "'kern' Horizontal Kerning in Latin lookup 0 per glyph data 1" idieresis dx=0 dy=0 dh=-93 dv=0 dx=0 dy=0 dh=0 dv=0
PairPos2: "'kern' Horizontal Kerning in Latin lookup 0 per glyph data 1" icircumflex dx=0 dy=0 dh=-93 dv=0 dx=0 dy=0 dh=0 dv=0
PairPos2: "'kern' Horizontal Kerning in Latin lookup 0 per glyph data 1" iacute dx=0 dy=0 dh=-93 dv=0 dx=0 dy=0 dh=0 dv=0
PairPos2: "'kern' Horizontal Kerning in Latin lookup 0 per glyph data 1" igrave dx=0 dy=0 dh=-93 dv=0 dx=0 dy=0 dh=0 dv=0
PairPos2: "'kern' Horizontal Kerning in Latin lookup 0 per glyph data 1" germandbls dx=0 dy=0 dh=-93 dv=0 dx=0 dy=0 dh=0 dv=0
PairPos2: "'kern' Horizontal Kerning in Latin lookup 0 per glyph data 1" mu dx=0 dy=0 dh=-93 dv=0 dx=0 dy=0 dh=0 dv=0
PairPos2: "'kern' Horizontal Kerning in Latin lookup 0 per glyph data 1" brokenbar dx=0 dy=0 dh=-93 dv=0 dx=0 dy=0 dh=0 dv=0
PairPos2: "'kern' Horizontal Kerning in Latin lookup 0 per glyph data 1" exclamdown dx=0 dy=0 dh=-93 dv=0 dx=0 dy=0 dh=0 dv=0
PairPos2: "'kern' Horizontal Kerning in Latin lookup 0 per glyph data 1" bar dx=0 dy=0 dh=-93 dv=0 dx=0 dy=0 dh=0 dv=0
PairPos2: "'kern' Horizontal Kerning in Latin lookup 0 per glyph data 1" r dx=0 dy=0 dh=-93 dv=0 dx=0 dy=0 dh=0 dv=0
PairPos2: "'kern' Horizontal Kerning in Latin lookup 0 per glyph data 1" p dx=0 dy=0 dh=-93 dv=0 dx=0 dy=0 dh=0 dv=0
PairPos2: "'kern' Horizontal Kerning in Latin lookup 0 per glyph data 1" n dx=0 dy=0 dh=-93 dv=0 dx=0 dy=0 dh=0 dv=0
PairPos2: "'kern' Horizontal Kerning in Latin lookup 0 per glyph data 1" m dx=0 dy=0 dh=-93 dv=0 dx=0 dy=0 dh=0 dv=0
PairPos2: "'kern' Horizontal Kerning in Latin lookup 0 per glyph data 1" l dx=0 dy=0 dh=-93 dv=0 dx=0 dy=0 dh=0 dv=0
PairPos2: "'kern' Horizontal Kerning in Latin lookup 0 per glyph data 1" k dx=0 dy=0 dh=-93 dv=0 dx=0 dy=0 dh=0 dv=0
PairPos2: "'kern' Horizontal Kerning in Latin lookup 0 per glyph data 1" j dx=0 dy=0 dh=-93 dv=0 dx=0 dy=0 dh=0 dv=0
PairPos2: "'kern' Horizontal Kerning in Latin lookup 0 per glyph data 1" i dx=0 dy=0 dh=-93 dv=0 dx=0 dy=0 dh=0 dv=0
PairPos2: "'kern' Horizontal Kerning in Latin lookup 0 per glyph data 1" h dx=0 dy=0 dh=-93 dv=0 dx=0 dy=0 dh=0 dv=0
PairPos2: "'kern' Horizontal Kerning in Latin lookup 0 per glyph data 1" f dx=0 dy=0 dh=-93 dv=0 dx=0 dy=0 dh=0 dv=0
PairPos2: "'kern' Horizontal Kerning in Latin lookup 0 per glyph data 1" b dx=0 dy=0 dh=-93 dv=0 dx=0 dy=0 dh=0 dv=0
PairPos2: "'kern' Horizontal Kerning in Latin lookup 0 per glyph data 1" bracketright dx=0 dy=0 dh=-93 dv=0 dx=0 dy=0 dh=0 dv=0
PairPos2: "'kern' Horizontal Kerning in Latin lookup 0 per glyph data 1" bracketleft dx=0 dy=0 dh=-93 dv=0 dx=0 dy=0 dh=0 dv=0
PairPos2: "'kern' Horizontal Kerning in Latin lookup 0 per glyph data 1" nine dx=0 dy=0 dh=-103 dv=0 dx=0 dy=0 dh=0 dv=0
PairPos2: "'kern' Horizontal Kerning in Latin lookup 0 per glyph data 1" eight dx=0 dy=0 dh=-133 dv=0 dx=0 dy=0 dh=0 dv=0
PairPos2: "'kern' Horizontal Kerning in Latin lookup 0 per glyph data 1" seven dx=0 dy=0 dh=-126 dv=0 dx=0 dy=0 dh=0 dv=0
PairPos2: "'kern' Horizontal Kerning in Latin lookup 0 per glyph data 1" six dx=0 dy=0 dh=-125 dv=0 dx=0 dy=0 dh=0 dv=0
PairPos2: "'kern' Horizontal Kerning in Latin lookup 0 per glyph data 1" five dx=0 dy=0 dh=-104 dv=0 dx=0 dy=0 dh=0 dv=0
PairPos2: "'kern' Horizontal Kerning in Latin lookup 0 per glyph data 1" four dx=0 dy=0 dh=-126 dv=0 dx=0 dy=0 dh=0 dv=0
PairPos2: "'kern' Horizontal Kerning in Latin lookup 0 per glyph data 1" three dx=0 dy=0 dh=-133 dv=0 dx=0 dy=0 dh=0 dv=0
PairPos2: "'kern' Horizontal Kerning in Latin lookup 0 per glyph data 1" two dx=0 dy=0 dh=-125 dv=0 dx=0 dy=0 dh=0 dv=0
PairPos2: "'kern' Horizontal Kerning in Latin lookup 0 per glyph data 1" one dx=0 dy=0 dh=-93 dv=0 dx=0 dy=0 dh=0 dv=0
PairPos2: "'kern' Horizontal Kerning in Latin lookup 0 per glyph data 1" zero dx=0 dy=0 dh=-103 dv=0 dx=0 dy=0 dh=0 dv=0
PairPos2: "'kern' Horizontal Kerning in Latin lookup 0 per glyph data 1" parenright dx=0 dy=0 dh=-93 dv=0 dx=0 dy=0 dh=0 dv=0
PairPos2: "'kern' Horizontal Kerning in Latin lookup 0 per glyph data 1" parenleft dx=0 dy=0 dh=-93 dv=0 dx=0 dy=0 dh=0 dv=0
PairPos2: "'kern' Horizontal Kerning in Latin lookup 0 per glyph data 1" exclam dx=0 dy=0 dh=-93 dv=0 dx=0 dy=0 dh=0 dv=0
EndChar

StartChar: colon
Encoding: 58 58 29
Width: 250
GlyphClass: 2
Flags: W
LayerCount: 2
Fore
SplineSet
79 29 m 0,0,1
 79 48 79 48 88.5 59 c 128,-1,2
 98 70 98 70 114 70 c 0,3,4
 149 70 149 70 149 29 c 0,5,6
 149 12 149 12 139 2 c 128,-1,7
 129 -8 129 -8 114 -8 c 0,8,9
 79 -8 79 -8 79 29 c 0,0,1
79 432 m 0,10,11
 79 451 79 451 88.5 462 c 128,-1,12
 98 473 98 473 114 473 c 0,13,14
 149 473 149 473 149 432 c 0,15,16
 149 415 149 415 139 405 c 128,-1,17
 129 395 129 395 114 395 c 0,18,19
 79 395 79 395 79 432 c 0,10,11
EndSplineSet
EndChar

StartChar: semicolon
Encoding: 59 59 30
Width: 232
GlyphClass: 2
Flags: W
LayerCount: 2
Fore
SplineSet
127 64 m 1,0,1
 127 26 127 26 119 -18 c 0,2,3
 115 -39 115 -39 111.5 -58 c 128,-1,4
 108 -77 108 -77 106 -90 c 1,5,-1
 103 -102 l 1,6,-1
 68 -102 l 1,7,-1
 70 -90 l 2,8,9
 73 -77 73 -77 76.5 -58 c 128,-1,10
 80 -39 80 -39 86 -6.5 c 128,-1,11
 92 26 92 26 92 64 c 1,12,-1
 127 64 l 1,0,1
79 432 m 0,13,14
 79 451 79 451 88.5 462 c 128,-1,15
 98 473 98 473 114 473 c 0,16,17
 149 473 149 473 149 432 c 0,18,19
 149 415 149 415 139 405 c 128,-1,20
 129 395 129 395 114 395 c 0,21,22
 79 395 79 395 79 432 c 0,13,14
EndSplineSet
EndChar

StartChar: less
Encoding: 60 60 31
Width: 569
GlyphClass: 2
Flags: W
LayerCount: 2
Fore
SplineSet
100 300 m 1,0,-1
 452 500 l 1,1,-1
 455 448 l 1,2,-1
 181 299 l 1,3,4
 273 251 273 251 455 153 c 1,5,-1
 452 100 l 1,6,-1
 100 300 l 1,0,-1
EndSplineSet
EndChar

StartChar: equal
Encoding: 61 61 32
Width: 739
GlyphClass: 2
Flags: W
LayerCount: 2
Fore
SplineSet
146 383 m 1,0,-1
 600 383 l 1,1,-1
 600 365 l 1,2,-1
 146 365 l 1,3,-1
 146 383 l 1,0,-1
146 161 m 1,4,-1
 600 161 l 1,5,-1
 600 143 l 1,6,-1
 146 143 l 1,7,-1
 146 161 l 1,4,-1
EndSplineSet
EndChar

StartChar: greater
Encoding: 62 62 33
Width: 569
GlyphClass: 2
Flags: W
LayerCount: 2
Fore
SplineSet
103 100 m 1,0,-1
 100 153 l 1,1,2
 282 251 282 251 373 299 c 1,3,-1
 100 448 l 1,4,-1
 103 500 l 1,5,-1
 455 300 l 1,6,-1
 103 100 l 1,0,-1
EndSplineSet
EndChar

StartChar: question
Encoding: 63 63 34
Width: 500
GlyphClass: 2
Flags: W
LayerCount: 2
Fore
SplineSet
230 700 m 0,0,1
 309 700 309 700 357.5 658 c 128,-1,2
 406 616 406 616 407 552 c 0,3,4
 407 509 407 509 377.5 468.5 c 128,-1,5
 348 428 348 428 275 355 c 0,6,7
 178 258 178 258 178 128 c 1,8,-1
 153 128 l 1,9,10
 153 207 153 207 174.5 261 c 128,-1,11
 196 315 196 315 237.5 366 c 128,-1,12
 279 417 279 417 294 438 c 0,13,14
 342 502 342 502 341.5 556.5 c 128,-1,15
 341 611 341 611 311 648 c 0,16,17
 279 688 279 688 220 688 c 0,18,19
 182 688 182 688 142 674 c 128,-1,20
 102 660 102 660 80 644 c 2,21,-1
 59 629 l 1,22,-1
 51 638 l 1,23,24
 59 645 59 645 74 655.5 c 128,-1,25
 89 666 89 666 136 683 c 128,-1,26
 183 700 183 700 230 700 c 0,0,1
127 6 m 0,27,28
 127 26 127 26 137.5 37.5 c 128,-1,29
 148 49 148 49 165 49 c 0,30,31
 203 49 203 49 203 6 c 0,32,33
 203 -12 203 -12 192.5 -23 c 128,-1,34
 182 -34 182 -34 165 -34 c 0,35,36
 127 -34 127 -34 127 6 c 0,27,28
EndSplineSet
EndChar

StartChar: at
Encoding: 64 64 35
Width: 1070
GlyphClass: 2
Flags: W
LayerCount: 2
Fore
SplineSet
523 -215 m 0,0,1
 288 -215 288 -215 170 -61 c 0,2,3
 85 50 85 50 85 247.5 c 128,-1,4
 85 445 85 445 214.5 580 c 128,-1,5
 344 715 344 715 536 715 c 0,6,7
 721 715 721 715 844 606 c 0,8,9
 904 553 904 553 938.5 465.5 c 128,-1,10
 973 378 973 378 973 284 c 128,-1,11
 973 190 973 190 951.5 129.5 c 128,-1,12
 930 69 930 69 896 34 c 1,13,14
 828 -39 828 -39 750 -39 c 0,15,16
 711 -39 711 -39 685 -18.5 c 128,-1,17
 659 2 659 2 655 38 c 1,18,19
 567 -4 567 -4 480 -4 c 0,20,21
 347 -4 347 -4 339 101 c 0,22,23
 338 108 338 108 338 114 c 0,24,25
 338 191 338 191 439 217 c 1,26,27
 499 230 499 230 655 248 c 1,28,-1
 655 336 l 2,29,30
 655 378 655 378 645 408 c 128,-1,31
 635 438 635 438 623 452.5 c 128,-1,32
 611 467 611 467 592 475 c 0,33,34
 568 485 568 485 538.5 485 c 128,-1,35
 509 485 509 485 471 470 c 0,36,37
 416 447 416 447 373 412 c 1,38,-1
 369 334 l 1,39,-1
 350 329 l 1,40,-1
 350 450 l 1,41,-1
 360 454 l 1,42,43
 438 488 438 488 479 495 c 128,-1,44
 520 502 520 502 539 502.5 c 128,-1,45
 558 503 558 503 575.5 502 c 128,-1,46
 593 501 593 501 621 493 c 128,-1,47
 649 485 649 485 669.5 470.5 c 128,-1,48
 690 456 690 456 705 427 c 128,-1,49
 720 398 720 398 720 358 c 2,50,-1
 720 45 l 1,51,52
 723 16 723 16 758 16 c 0,53,54
 809 16 809 16 858.5 79.5 c 128,-1,55
 908 143 908 143 908 257 c 128,-1,56
 908 371 908 371 878 458 c 128,-1,57
 848 545 848 545 796 596 c 0,58,59
 692 697 692 697 530.5 697 c 128,-1,60
 369 697 369 697 259.5 563.5 c 128,-1,61
 150 430 150 430 150 233 c 0,62,63
 150 120 150 120 179.5 36 c 128,-1,64
 209 -48 209 -48 262 -98 c 0,65,66
 365 -197 365 -197 530 -197 c 0,67,68
 630 -197 630 -197 696 -165 c 1,69,-1
 704 -175 l 1,70,71
 633 -215 633 -215 523 -215 c 0,0,1
498 12 m 0,72,73
 572 12 572 12 655 64 c 1,74,-1
 655 229 l 1,75,76
 505 224 505 224 466.5 211.5 c 128,-1,77
 428 199 428 199 413.5 172.5 c 128,-1,78
 399 146 399 146 399 120 c 0,79,80
 399 115 399 115 399 110 c 0,81,82
 402 58 402 58 430 35 c 128,-1,83
 458 12 458 12 498 12 c 0,72,73
EndSplineSet
EndChar

StartChar: A
Encoding: 65 65 36
Width: 670
GlyphClass: 2
Flags: W
LayerCount: 2
Fore
SplineSet
15 -1 m 1,0,-1
 16 13 l 1,1,-1
 68 20 l 2,2,3
 75 21 75 21 80 33 c 1,4,-1
 296 700 l 1,5,-1
 362 700 l 1,6,-1
 592 19 l 1,7,-1
 661 15 l 2,8,9
 661 14 661 14 660 0 c 1,10,-1
 460 -1 l 1,11,12
 460 8 460 8 461 13 c 1,13,-1
 513 20 l 2,14,15
 521 21 521 21 521 32 c 1,16,-1
 466 195 l 1,17,-1
 154 195 l 1,18,-1
 101 21 l 1,19,-1
 217 15 l 2,20,21
 217 14 217 14 216 0 c 1,22,-1
 15 -1 l 1,0,-1
303 681 m 1,23,-1
 160 215 l 1,24,-1
 459 215 l 1,25,-1
 303 681 l 1,23,-1
EndSplineSet
EndChar

StartChar: B
Encoding: 66 66 37
Width: 547
GlyphClass: 2
Flags: W
LayerCount: 2
Fore
SplineSet
50 685 m 1,0,-1
 51 700 l 1,1,-1
 265 700 l 2,2,3
 481 700 481 700 481 531 c 0,4,5
 481 466 481 466 395 389 c 1,6,7
 522 358 522 358 522 207 c 0,8,9
 522 89 522 89 462.5 44.5 c 128,-1,10
 403 0 403 0 280 0 c 2,11,-1
 251 0 l 1,12,-1
 50 -1 l 1,13,-1
 51 13 l 1,14,-1
 103 20 l 2,15,16
 113 21 113 21 115 33 c 1,17,-1
 115 665 l 1,18,19
 113 678 113 678 103 679 c 2,20,-1
 50 685 l 1,0,-1
300 383 m 2,21,-1
 183 383 l 1,22,-1
 183 15 l 1,23,-1
 275 15 l 2,24,25
 454 15 454 15 454 203 c 0,26,27
 454 299 454 299 415.5 341 c 128,-1,28
 377 383 377 383 300 383 c 2,21,-1
305 398 m 2,29,30
 342 398 342 398 369 394 c 1,31,32
 413 463 413 463 413 525 c 0,33,34
 413 685 413 685 260 685 c 2,35,-1
 183 685 l 1,36,-1
 183 398 l 1,37,-1
 305 398 l 2,29,30
EndSplineSet
PairPos2: "'kern' Horizontal Kerning in Latin lookup 0 per glyph data 1" Ydieresis dx=0 dy=0 dh=-29 dv=0 dx=0 dy=0 dh=0 dv=0
PairPos2: "'kern' Horizontal Kerning in Latin lookup 0 per glyph data 1" oe dx=0 dy=0 dh=-15 dv=0 dx=0 dy=0 dh=0 dv=0
PairPos2: "'kern' Horizontal Kerning in Latin lookup 0 per glyph data 1" dotlessi dx=0 dy=0 dh=-22 dv=0 dx=0 dy=0 dh=0 dv=0
PairPos2: "'kern' Horizontal Kerning in Latin lookup 0 per glyph data 1" ydieresis dx=0 dy=0 dh=-15 dv=0 dx=0 dy=0 dh=0 dv=0
PairPos2: "'kern' Horizontal Kerning in Latin lookup 0 per glyph data 1" thorn dx=0 dy=0 dh=-22 dv=0 dx=0 dy=0 dh=0 dv=0
PairPos2: "'kern' Horizontal Kerning in Latin lookup 0 per glyph data 1" yacute dx=0 dy=0 dh=-15 dv=0 dx=0 dy=0 dh=0 dv=0
PairPos2: "'kern' Horizontal Kerning in Latin lookup 0 per glyph data 1" udieresis dx=0 dy=0 dh=-15 dv=0 dx=0 dy=0 dh=0 dv=0
PairPos2: "'kern' Horizontal Kerning in Latin lookup 0 per glyph data 1" ucircumflex dx=0 dy=0 dh=-15 dv=0 dx=0 dy=0 dh=0 dv=0
PairPos2: "'kern' Horizontal Kerning in Latin lookup 0 per glyph data 1" uacute dx=0 dy=0 dh=-15 dv=0 dx=0 dy=0 dh=0 dv=0
PairPos2: "'kern' Horizontal Kerning in Latin lookup 0 per glyph data 1" ugrave dx=0 dy=0 dh=-15 dv=0 dx=0 dy=0 dh=0 dv=0
PairPos2: "'kern' Horizontal Kerning in Latin lookup 0 per glyph data 1" odieresis dx=0 dy=0 dh=-15 dv=0 dx=0 dy=0 dh=0 dv=0
PairPos2: "'kern' Horizontal Kerning in Latin lookup 0 per glyph data 1" otilde dx=0 dy=0 dh=-15 dv=0 dx=0 dy=0 dh=0 dv=0
PairPos2: "'kern' Horizontal Kerning in Latin lookup 0 per glyph data 1" ocircumflex dx=0 dy=0 dh=-15 dv=0 dx=0 dy=0 dh=0 dv=0
PairPos2: "'kern' Horizontal Kerning in Latin lookup 0 per glyph data 1" oacute dx=0 dy=0 dh=-15 dv=0 dx=0 dy=0 dh=0 dv=0
PairPos2: "'kern' Horizontal Kerning in Latin lookup 0 per glyph data 1" ograve dx=0 dy=0 dh=-15 dv=0 dx=0 dy=0 dh=0 dv=0
PairPos2: "'kern' Horizontal Kerning in Latin lookup 0 per glyph data 1" ntilde dx=0 dy=0 dh=-22 dv=0 dx=0 dy=0 dh=0 dv=0
PairPos2: "'kern' Horizontal Kerning in Latin lookup 0 per glyph data 1" eth dx=0 dy=0 dh=-15 dv=0 dx=0 dy=0 dh=0 dv=0
PairPos2: "'kern' Horizontal Kerning in Latin lookup 0 per glyph data 1" idieresis dx=0 dy=0 dh=-22 dv=0 dx=0 dy=0 dh=0 dv=0
PairPos2: "'kern' Horizontal Kerning in Latin lookup 0 per glyph data 1" icircumflex dx=0 dy=0 dh=-22 dv=0 dx=0 dy=0 dh=0 dv=0
PairPos2: "'kern' Horizontal Kerning in Latin lookup 0 per glyph data 1" iacute dx=0 dy=0 dh=-22 dv=0 dx=0 dy=0 dh=0 dv=0
PairPos2: "'kern' Horizontal Kerning in Latin lookup 0 per glyph data 1" igrave dx=0 dy=0 dh=-22 dv=0 dx=0 dy=0 dh=0 dv=0
PairPos2: "'kern' Horizontal Kerning in Latin lookup 0 per glyph data 1" edieresis dx=0 dy=0 dh=-25 dv=0 dx=0 dy=0 dh=0 dv=0
PairPos2: "'kern' Horizontal Kerning in Latin lookup 0 per glyph data 1" ecircumflex dx=0 dy=0 dh=-25 dv=0 dx=0 dy=0 dh=0 dv=0
PairPos2: "'kern' Horizontal Kerning in Latin lookup 0 per glyph data 1" eacute dx=0 dy=0 dh=-25 dv=0 dx=0 dy=0 dh=0 dv=0
PairPos2: "'kern' Horizontal Kerning in Latin lookup 0 per glyph data 1" egrave dx=0 dy=0 dh=-25 dv=0 dx=0 dy=0 dh=0 dv=0
PairPos2: "'kern' Horizontal Kerning in Latin lookup 0 per glyph data 1" ccedilla dx=0 dy=0 dh=-25 dv=0 dx=0 dy=0 dh=0 dv=0
PairPos2: "'kern' Horizontal Kerning in Latin lookup 0 per glyph data 1" germandbls dx=0 dy=0 dh=-22 dv=0 dx=0 dy=0 dh=0 dv=0
PairPos2: "'kern' Horizontal Kerning in Latin lookup 0 per glyph data 1" Thorn dx=0 dy=0 dh=-7 dv=0 dx=0 dy=0 dh=0 dv=0
PairPos2: "'kern' Horizontal Kerning in Latin lookup 0 per glyph data 1" Yacute dx=0 dy=0 dh=-29 dv=0 dx=0 dy=0 dh=0 dv=0
PairPos2: "'kern' Horizontal Kerning in Latin lookup 0 per glyph data 1" Udieresis dx=0 dy=0 dh=-5 dv=0 dx=0 dy=0 dh=0 dv=0
PairPos2: "'kern' Horizontal Kerning in Latin lookup 0 per glyph data 1" Ucircumflex dx=0 dy=0 dh=-5 dv=0 dx=0 dy=0 dh=0 dv=0
PairPos2: "'kern' Horizontal Kerning in Latin lookup 0 per glyph data 1" Uacute dx=0 dy=0 dh=-5 dv=0 dx=0 dy=0 dh=0 dv=0
PairPos2: "'kern' Horizontal Kerning in Latin lookup 0 per glyph data 1" Ugrave dx=0 dy=0 dh=-5 dv=0 dx=0 dy=0 dh=0 dv=0
PairPos2: "'kern' Horizontal Kerning in Latin lookup 0 per glyph data 1" Ntilde dx=0 dy=0 dh=-7 dv=0 dx=0 dy=0 dh=0 dv=0
PairPos2: "'kern' Horizontal Kerning in Latin lookup 0 per glyph data 1" Idieresis dx=0 dy=0 dh=-7 dv=0 dx=0 dy=0 dh=0 dv=0
PairPos2: "'kern' Horizontal Kerning in Latin lookup 0 per glyph data 1" Icircumflex dx=0 dy=0 dh=-7 dv=0 dx=0 dy=0 dh=0 dv=0
PairPos2: "'kern' Horizontal Kerning in Latin lookup 0 per glyph data 1" Iacute dx=0 dy=0 dh=-7 dv=0 dx=0 dy=0 dh=0 dv=0
PairPos2: "'kern' Horizontal Kerning in Latin lookup 0 per glyph data 1" Igrave dx=0 dy=0 dh=-7 dv=0 dx=0 dy=0 dh=0 dv=0
PairPos2: "'kern' Horizontal Kerning in Latin lookup 0 per glyph data 1" Edieresis dx=0 dy=0 dh=-7 dv=0 dx=0 dy=0 dh=0 dv=0
PairPos2: "'kern' Horizontal Kerning in Latin lookup 0 per glyph data 1" Ecircumflex dx=0 dy=0 dh=-7 dv=0 dx=0 dy=0 dh=0 dv=0
PairPos2: "'kern' Horizontal Kerning in Latin lookup 0 per glyph data 1" Eacute dx=0 dy=0 dh=-7 dv=0 dx=0 dy=0 dh=0 dv=0
PairPos2: "'kern' Horizontal Kerning in Latin lookup 0 per glyph data 1" Egrave dx=0 dy=0 dh=-7 dv=0 dx=0 dy=0 dh=0 dv=0
PairPos2: "'kern' Horizontal Kerning in Latin lookup 0 per glyph data 1" AE dx=0 dy=0 dh=-15 dv=0 dx=0 dy=0 dh=0 dv=0
PairPos2: "'kern' Horizontal Kerning in Latin lookup 0 per glyph data 1" Aring dx=0 dy=0 dh=-15 dv=0 dx=0 dy=0 dh=0 dv=0
PairPos2: "'kern' Horizontal Kerning in Latin lookup 0 per glyph data 1" Adieresis dx=0 dy=0 dh=-15 dv=0 dx=0 dy=0 dh=0 dv=0
PairPos2: "'kern' Horizontal Kerning in Latin lookup 0 per glyph data 1" Atilde dx=0 dy=0 dh=-15 dv=0 dx=0 dy=0 dh=0 dv=0
PairPos2: "'kern' Horizontal Kerning in Latin lookup 0 per glyph data 1" Acircumflex dx=0 dy=0 dh=-15 dv=0 dx=0 dy=0 dh=0 dv=0
PairPos2: "'kern' Horizontal Kerning in Latin lookup 0 per glyph data 1" Aacute dx=0 dy=0 dh=-15 dv=0 dx=0 dy=0 dh=0 dv=0
PairPos2: "'kern' Horizontal Kerning in Latin lookup 0 per glyph data 1" Agrave dx=0 dy=0 dh=-15 dv=0 dx=0 dy=0 dh=0 dv=0
PairPos2: "'kern' Horizontal Kerning in Latin lookup 0 per glyph data 1" mu dx=0 dy=0 dh=-22 dv=0 dx=0 dy=0 dh=0 dv=0
PairPos2: "'kern' Horizontal Kerning in Latin lookup 0 per glyph data 1" brokenbar dx=0 dy=0 dh=-22 dv=0 dx=0 dy=0 dh=0 dv=0
PairPos2: "'kern' Horizontal Kerning in Latin lookup 0 per glyph data 1" cent dx=0 dy=0 dh=-25 dv=0 dx=0 dy=0 dh=0 dv=0
PairPos2: "'kern' Horizontal Kerning in Latin lookup 0 per glyph data 1" exclamdown dx=0 dy=0 dh=-22 dv=0 dx=0 dy=0 dh=0 dv=0
PairPos2: "'kern' Horizontal Kerning in Latin lookup 0 per glyph data 1" bar dx=0 dy=0 dh=-22 dv=0 dx=0 dy=0 dh=0 dv=0
PairPos2: "'kern' Horizontal Kerning in Latin lookup 0 per glyph data 1" z dx=0 dy=0 dh=-10 dv=0 dx=0 dy=0 dh=0 dv=0
PairPos2: "'kern' Horizontal Kerning in Latin lookup 0 per glyph data 1" y dx=0 dy=0 dh=-15 dv=0 dx=0 dy=0 dh=0 dv=0
PairPos2: "'kern' Horizontal Kerning in Latin lookup 0 per glyph data 1" v dx=0 dy=0 dh=-20 dv=0 dx=0 dy=0 dh=0 dv=0
PairPos2: "'kern' Horizontal Kerning in Latin lookup 0 per glyph data 1" u dx=0 dy=0 dh=-15 dv=0 dx=0 dy=0 dh=0 dv=0
PairPos2: "'kern' Horizontal Kerning in Latin lookup 0 per glyph data 1" t dx=0 dy=0 dh=-15 dv=0 dx=0 dy=0 dh=0 dv=0
PairPos2: "'kern' Horizontal Kerning in Latin lookup 0 per glyph data 1" r dx=0 dy=0 dh=-22 dv=0 dx=0 dy=0 dh=0 dv=0
PairPos2: "'kern' Horizontal Kerning in Latin lookup 0 per glyph data 1" q dx=0 dy=0 dh=-25 dv=0 dx=0 dy=0 dh=0 dv=0
PairPos2: "'kern' Horizontal Kerning in Latin lookup 0 per glyph data 1" p dx=0 dy=0 dh=-22 dv=0 dx=0 dy=0 dh=0 dv=0
PairPos2: "'kern' Horizontal Kerning in Latin lookup 0 per glyph data 1" o dx=0 dy=0 dh=-15 dv=0 dx=0 dy=0 dh=0 dv=0
PairPos2: "'kern' Horizontal Kerning in Latin lookup 0 per glyph data 1" n dx=0 dy=0 dh=-22 dv=0 dx=0 dy=0 dh=0 dv=0
PairPos2: "'kern' Horizontal Kerning in Latin lookup 0 per glyph data 1" m dx=0 dy=0 dh=-22 dv=0 dx=0 dy=0 dh=0 dv=0
PairPos2: "'kern' Horizontal Kerning in Latin lookup 0 per glyph data 1" l dx=0 dy=0 dh=-22 dv=0 dx=0 dy=0 dh=0 dv=0
PairPos2: "'kern' Horizontal Kerning in Latin lookup 0 per glyph data 1" k dx=0 dy=0 dh=-22 dv=0 dx=0 dy=0 dh=0 dv=0
PairPos2: "'kern' Horizontal Kerning in Latin lookup 0 per glyph data 1" j dx=0 dy=0 dh=-22 dv=0 dx=0 dy=0 dh=0 dv=0
PairPos2: "'kern' Horizontal Kerning in Latin lookup 0 per glyph data 1" i dx=0 dy=0 dh=-22 dv=0 dx=0 dy=0 dh=0 dv=0
PairPos2: "'kern' Horizontal Kerning in Latin lookup 0 per glyph data 1" h dx=0 dy=0 dh=-22 dv=0 dx=0 dy=0 dh=0 dv=0
PairPos2: "'kern' Horizontal Kerning in Latin lookup 0 per glyph data 1" f dx=0 dy=0 dh=-22 dv=0 dx=0 dy=0 dh=0 dv=0
PairPos2: "'kern' Horizontal Kerning in Latin lookup 0 per glyph data 1" e dx=0 dy=0 dh=-25 dv=0 dx=0 dy=0 dh=0 dv=0
PairPos2: "'kern' Horizontal Kerning in Latin lookup 0 per glyph data 1" d dx=0 dy=0 dh=-25 dv=0 dx=0 dy=0 dh=0 dv=0
PairPos2: "'kern' Horizontal Kerning in Latin lookup 0 per glyph data 1" c dx=0 dy=0 dh=-25 dv=0 dx=0 dy=0 dh=0 dv=0
PairPos2: "'kern' Horizontal Kerning in Latin lookup 0 per glyph data 1" b dx=0 dy=0 dh=-22 dv=0 dx=0 dy=0 dh=0 dv=0
PairPos2: "'kern' Horizontal Kerning in Latin lookup 0 per glyph data 1" bracketright dx=0 dy=0 dh=-22 dv=0 dx=0 dy=0 dh=0 dv=0
PairPos2: "'kern' Horizontal Kerning in Latin lookup 0 per glyph data 1" bracketleft dx=0 dy=0 dh=-22 dv=0 dx=0 dy=0 dh=0 dv=0
PairPos2: "'kern' Horizontal Kerning in Latin lookup 0 per glyph data 1" Z dx=0 dy=0 dh=-5 dv=0 dx=0 dy=0 dh=0 dv=0
PairPos2: "'kern' Horizontal Kerning in Latin lookup 0 per glyph data 1" Y dx=0 dy=0 dh=-29 dv=0 dx=0 dy=0 dh=0 dv=0
PairPos2: "'kern' Horizontal Kerning in Latin lookup 0 per glyph data 1" W dx=0 dy=0 dh=-22 dv=0 dx=0 dy=0 dh=0 dv=0
PairPos2: "'kern' Horizontal Kerning in Latin lookup 0 per glyph data 1" V dx=0 dy=0 dh=-22 dv=0 dx=0 dy=0 dh=0 dv=0
PairPos2: "'kern' Horizontal Kerning in Latin lookup 0 per glyph data 1" U dx=0 dy=0 dh=-5 dv=0 dx=0 dy=0 dh=0 dv=0
PairPos2: "'kern' Horizontal Kerning in Latin lookup 0 per glyph data 1" T dx=0 dy=0 dh=-22 dv=0 dx=0 dy=0 dh=0 dv=0
PairPos2: "'kern' Horizontal Kerning in Latin lookup 0 per glyph data 1" S dx=0 dy=0 dh=-10 dv=0 dx=0 dy=0 dh=0 dv=0
PairPos2: "'kern' Horizontal Kerning in Latin lookup 0 per glyph data 1" R dx=0 dy=0 dh=-7 dv=0 dx=0 dy=0 dh=0 dv=0
PairPos2: "'kern' Horizontal Kerning in Latin lookup 0 per glyph data 1" P dx=0 dy=0 dh=-7 dv=0 dx=0 dy=0 dh=0 dv=0
PairPos2: "'kern' Horizontal Kerning in Latin lookup 0 per glyph data 1" N dx=0 dy=0 dh=-7 dv=0 dx=0 dy=0 dh=0 dv=0
PairPos2: "'kern' Horizontal Kerning in Latin lookup 0 per glyph data 1" M dx=0 dy=0 dh=-7 dv=0 dx=0 dy=0 dh=0 dv=0
PairPos2: "'kern' Horizontal Kerning in Latin lookup 0 per glyph data 1" L dx=0 dy=0 dh=-7 dv=0 dx=0 dy=0 dh=0 dv=0
PairPos2: "'kern' Horizontal Kerning in Latin lookup 0 per glyph data 1" K dx=0 dy=0 dh=-7 dv=0 dx=0 dy=0 dh=0 dv=0
PairPos2: "'kern' Horizontal Kerning in Latin lookup 0 per glyph data 1" J dx=0 dy=0 dh=-7 dv=0 dx=0 dy=0 dh=0 dv=0
PairPos2: "'kern' Horizontal Kerning in Latin lookup 0 per glyph data 1" I dx=0 dy=0 dh=-7 dv=0 dx=0 dy=0 dh=0 dv=0
PairPos2: "'kern' Horizontal Kerning in Latin lookup 0 per glyph data 1" H dx=0 dy=0 dh=-7 dv=0 dx=0 dy=0 dh=0 dv=0
PairPos2: "'kern' Horizontal Kerning in Latin lookup 0 per glyph data 1" F dx=0 dy=0 dh=-7 dv=0 dx=0 dy=0 dh=0 dv=0
PairPos2: "'kern' Horizontal Kerning in Latin lookup 0 per glyph data 1" E dx=0 dy=0 dh=-7 dv=0 dx=0 dy=0 dh=0 dv=0
PairPos2: "'kern' Horizontal Kerning in Latin lookup 0 per glyph data 1" D dx=0 dy=0 dh=-7 dv=0 dx=0 dy=0 dh=0 dv=0
PairPos2: "'kern' Horizontal Kerning in Latin lookup 0 per glyph data 1" B dx=0 dy=0 dh=-7 dv=0 dx=0 dy=0 dh=0 dv=0
PairPos2: "'kern' Horizontal Kerning in Latin lookup 0 per glyph data 1" A dx=0 dy=0 dh=-15 dv=0 dx=0 dy=0 dh=0 dv=0
PairPos2: "'kern' Horizontal Kerning in Latin lookup 0 per glyph data 1" one dx=0 dy=0 dh=-22 dv=0 dx=0 dy=0 dh=0 dv=0
PairPos2: "'kern' Horizontal Kerning in Latin lookup 0 per glyph data 1" parenright dx=0 dy=0 dh=-22 dv=0 dx=0 dy=0 dh=0 dv=0
PairPos2: "'kern' Horizontal Kerning in Latin lookup 0 per glyph data 1" parenleft dx=0 dy=0 dh=-22 dv=0 dx=0 dy=0 dh=0 dv=0
PairPos2: "'kern' Horizontal Kerning in Latin lookup 0 per glyph data 1" exclam dx=0 dy=0 dh=-22 dv=0 dx=0 dy=0 dh=0 dv=0
EndChar

StartChar: C
Encoding: 67 67 38
Width: 562
GlyphClass: 2
Flags: W
LayerCount: 2
Fore
SplineSet
353 686 m 0,0,1
 240 686 240 686 174 592 c 128,-1,2
 108 498 108 498 108 320 c 0,3,4
 108 104 108 104 207 41 c 0,5,6
 237 22 237 22 262.5 16.5 c 128,-1,7
 288 11 288 11 319 11 c 0,8,9
 418 11 418 11 526 35 c 1,10,-1
 529 21 l 1,11,12
 512 15 512 15 438.5 5.5 c 128,-1,13
 365 -4 365 -4 319 -4 c 128,-1,14
 273 -4 273 -4 239 2.5 c 128,-1,15
 205 9 205 9 167 30 c 128,-1,16
 129 51 129 51 102.5 85.5 c 128,-1,17
 76 120 76 120 58 180 c 128,-1,18
 40 240 40 240 40 320 c 0,19,20
 40 497 40 497 121 596 c 0,21,22
 206 700 206 700 353 700 c 0,23,24
 398 700 398 700 450.5 691.5 c 128,-1,25
 503 683 503 683 525 675 c 1,26,-1
 537 531 l 1,27,-1
 518 524 l 1,28,-1
 505 631 l 1,29,30
 424 686 424 686 353 686 c 0,0,1
EndSplineSet
EndChar

StartChar: D
Encoding: 68 68 39
Width: 629
GlyphClass: 2
Flags: W
LayerCount: 2
Fore
SplineSet
46 685 m 1,0,-1
 47 700 l 1,1,-1
 291 700 l 2,2,3
 426 700 426 700 507.5 621.5 c 128,-1,4
 589 543 589 543 589 366 c 0,5,6
 589 191 589 191 532 104 c 0,7,8
 482 28 482 28 376 8 c 0,9,10
 329 0 329 0 266 0 c 2,11,-1
 247 0 l 1,12,-1
 46 -1 l 1,13,-1
 47 13 l 1,14,-1
 99 20 l 2,15,16
 109 21 109 21 111 33 c 1,17,-1
 111 665 l 1,18,19
 109 678 109 678 99 679 c 2,20,-1
 46 685 l 1,0,-1
286 685 m 2,21,-1
 179 685 l 1,22,-1
 179 15 l 1,23,-1
 261 15 l 2,24,25
 309 15 309 15 342.5 20.5 c 128,-1,26
 376 26 376 26 412.5 46.5 c 128,-1,27
 449 67 449 67 470 103 c 0,28,29
 521 188 521 188 521 361 c 0,30,31
 521 541 521 541 450 616 c 0,32,33
 385 685 385 685 286 685 c 2,21,-1
EndSplineSet
EndChar

StartChar: E
Encoding: 69 69 40
Width: 541
GlyphClass: 2
Flags: W
LayerCount: 2
Fore
SplineSet
46 685 m 1,0,-1
 47 700 l 1,1,-1
 475 700 l 1,2,-1
 474 697 l 1,3,-1
 487 556 l 1,4,-1
 467 548 l 1,5,-1
 451 680 l 1,6,-1
 179 680 l 1,7,-1
 179 357 l 1,8,-1
 418 357 l 1,9,10
 423 356 423 356 427 359.5 c 128,-1,11
 431 363 431 363 431 369 c 2,12,-1
 435 438 l 1,13,-1
 451 440 l 1,14,-1
 451 269 l 1,15,16
 450 269 450 269 436 268 c 1,17,-1
 432 337 l 1,18,-1
 179 337 l 1,19,-1
 179 20 l 1,20,-1
 478 20 l 1,21,-1
 497 180 l 1,22,-1
 516 175 l 1,23,-1
 501 0 l 1,24,-1
 247 0 l 1,25,-1
 46 -1 l 1,26,-1
 47 13 l 1,27,-1
 99 20 l 2,28,29
 109 21 109 21 111 33 c 1,30,-1
 111 666 l 1,31,32
 109 678 109 678 99 679 c 2,33,-1
 46 685 l 1,0,-1
EndSplineSet
EndChar

StartChar: F
Encoding: 70 70 41
Width: 512
GlyphClass: 2
Flags: W
LayerCount: 2
Fore
SplineSet
46 685 m 1,0,-1
 47 700 l 1,1,-1
 475 700 l 1,2,-1
 474 697 l 1,3,-1
 487 556 l 1,4,-1
 467 548 l 1,5,-1
 451 680 l 1,6,-1
 179 680 l 1,7,-1
 179 357 l 1,8,-1
 418 357 l 1,9,10
 423 356 423 356 427 359.5 c 128,-1,11
 431 363 431 363 431 369 c 2,12,-1
 435 438 l 1,13,-1
 451 440 l 1,14,-1
 451 269 l 1,15,16
 450 269 450 269 436 268 c 1,17,-1
 432 337 l 1,18,-1
 179 337 l 1,19,-1
 179 19 l 1,20,-1
 248 15 l 2,21,22
 248 14 248 14 247 0 c 1,23,-1
 46 -1 l 1,24,-1
 47 13 l 1,25,-1
 99 20 l 2,26,27
 109 21 109 21 111 33 c 1,28,-1
 111 666 l 1,29,30
 109 678 109 678 99 679 c 2,31,-1
 46 685 l 1,0,-1
EndSplineSet
PairPos2: "'kern' Horizontal Kerning in Latin lookup 0 per glyph data 1" Ydieresis dx=0 dy=0 dh=-10 dv=0 dx=0 dy=0 dh=0 dv=0
PairPos2: "'kern' Horizontal Kerning in Latin lookup 0 per glyph data 1" oe dx=0 dy=0 dh=-52 dv=0 dx=0 dy=0 dh=0 dv=0
PairPos2: "'kern' Horizontal Kerning in Latin lookup 0 per glyph data 1" OE dx=0 dy=0 dh=-22 dv=0 dx=0 dy=0 dh=0 dv=0
PairPos2: "'kern' Horizontal Kerning in Latin lookup 0 per glyph data 1" dotlessi dx=0 dy=0 dh=-50 dv=0 dx=0 dy=0 dh=0 dv=0
PairPos2: "'kern' Horizontal Kerning in Latin lookup 0 per glyph data 1" ydieresis dx=0 dy=0 dh=-37 dv=0 dx=0 dy=0 dh=0 dv=0
PairPos2: "'kern' Horizontal Kerning in Latin lookup 0 per glyph data 1" thorn dx=0 dy=0 dh=-50 dv=0 dx=0 dy=0 dh=0 dv=0
PairPos2: "'kern' Horizontal Kerning in Latin lookup 0 per glyph data 1" yacute dx=0 dy=0 dh=-37 dv=0 dx=0 dy=0 dh=0 dv=0
PairPos2: "'kern' Horizontal Kerning in Latin lookup 0 per glyph data 1" udieresis dx=0 dy=0 dh=-32 dv=0 dx=0 dy=0 dh=0 dv=0
PairPos2: "'kern' Horizontal Kerning in Latin lookup 0 per glyph data 1" ucircumflex dx=0 dy=0 dh=-32 dv=0 dx=0 dy=0 dh=0 dv=0
PairPos2: "'kern' Horizontal Kerning in Latin lookup 0 per glyph data 1" uacute dx=0 dy=0 dh=-32 dv=0 dx=0 dy=0 dh=0 dv=0
PairPos2: "'kern' Horizontal Kerning in Latin lookup 0 per glyph data 1" ugrave dx=0 dy=0 dh=-32 dv=0 dx=0 dy=0 dh=0 dv=0
PairPos2: "'kern' Horizontal Kerning in Latin lookup 0 per glyph data 1" oslash dx=0 dy=0 dh=-67 dv=0 dx=0 dy=0 dh=0 dv=0
PairPos2: "'kern' Horizontal Kerning in Latin lookup 0 per glyph data 1" odieresis dx=0 dy=0 dh=-52 dv=0 dx=0 dy=0 dh=0 dv=0
PairPos2: "'kern' Horizontal Kerning in Latin lookup 0 per glyph data 1" otilde dx=0 dy=0 dh=-52 dv=0 dx=0 dy=0 dh=0 dv=0
PairPos2: "'kern' Horizontal Kerning in Latin lookup 0 per glyph data 1" ocircumflex dx=0 dy=0 dh=-52 dv=0 dx=0 dy=0 dh=0 dv=0
PairPos2: "'kern' Horizontal Kerning in Latin lookup 0 per glyph data 1" oacute dx=0 dy=0 dh=-52 dv=0 dx=0 dy=0 dh=0 dv=0
PairPos2: "'kern' Horizontal Kerning in Latin lookup 0 per glyph data 1" ograve dx=0 dy=0 dh=-52 dv=0 dx=0 dy=0 dh=0 dv=0
PairPos2: "'kern' Horizontal Kerning in Latin lookup 0 per glyph data 1" ntilde dx=0 dy=0 dh=-50 dv=0 dx=0 dy=0 dh=0 dv=0
PairPos2: "'kern' Horizontal Kerning in Latin lookup 0 per glyph data 1" eth dx=0 dy=0 dh=-52 dv=0 dx=0 dy=0 dh=0 dv=0
PairPos2: "'kern' Horizontal Kerning in Latin lookup 0 per glyph data 1" idieresis dx=0 dy=0 dh=-50 dv=0 dx=0 dy=0 dh=0 dv=0
PairPos2: "'kern' Horizontal Kerning in Latin lookup 0 per glyph data 1" icircumflex dx=0 dy=0 dh=-50 dv=0 dx=0 dy=0 dh=0 dv=0
PairPos2: "'kern' Horizontal Kerning in Latin lookup 0 per glyph data 1" iacute dx=0 dy=0 dh=-50 dv=0 dx=0 dy=0 dh=0 dv=0
PairPos2: "'kern' Horizontal Kerning in Latin lookup 0 per glyph data 1" igrave dx=0 dy=0 dh=-50 dv=0 dx=0 dy=0 dh=0 dv=0
PairPos2: "'kern' Horizontal Kerning in Latin lookup 0 per glyph data 1" edieresis dx=0 dy=0 dh=-25 dv=0 dx=0 dy=0 dh=0 dv=0
PairPos2: "'kern' Horizontal Kerning in Latin lookup 0 per glyph data 1" ecircumflex dx=0 dy=0 dh=-25 dv=0 dx=0 dy=0 dh=0 dv=0
PairPos2: "'kern' Horizontal Kerning in Latin lookup 0 per glyph data 1" eacute dx=0 dy=0 dh=-25 dv=0 dx=0 dy=0 dh=0 dv=0
PairPos2: "'kern' Horizontal Kerning in Latin lookup 0 per glyph data 1" egrave dx=0 dy=0 dh=-25 dv=0 dx=0 dy=0 dh=0 dv=0
PairPos2: "'kern' Horizontal Kerning in Latin lookup 0 per glyph data 1" ccedilla dx=0 dy=0 dh=-25 dv=0 dx=0 dy=0 dh=0 dv=0
PairPos2: "'kern' Horizontal Kerning in Latin lookup 0 per glyph data 1" ae dx=0 dy=0 dh=-30 dv=0 dx=0 dy=0 dh=0 dv=0
PairPos2: "'kern' Horizontal Kerning in Latin lookup 0 per glyph data 1" aring dx=0 dy=0 dh=-32 dv=0 dx=0 dy=0 dh=0 dv=0
PairPos2: "'kern' Horizontal Kerning in Latin lookup 0 per glyph data 1" adieresis dx=0 dy=0 dh=-32 dv=0 dx=0 dy=0 dh=0 dv=0
PairPos2: "'kern' Horizontal Kerning in Latin lookup 0 per glyph data 1" atilde dx=0 dy=0 dh=-32 dv=0 dx=0 dy=0 dh=0 dv=0
PairPos2: "'kern' Horizontal Kerning in Latin lookup 0 per glyph data 1" acircumflex dx=0 dy=0 dh=-32 dv=0 dx=0 dy=0 dh=0 dv=0
PairPos2: "'kern' Horizontal Kerning in Latin lookup 0 per glyph data 1" aacute dx=0 dy=0 dh=-32 dv=0 dx=0 dy=0 dh=0 dv=0
PairPos2: "'kern' Horizontal Kerning in Latin lookup 0 per glyph data 1" agrave dx=0 dy=0 dh=-32 dv=0 dx=0 dy=0 dh=0 dv=0
PairPos2: "'kern' Horizontal Kerning in Latin lookup 0 per glyph data 1" germandbls dx=0 dy=0 dh=-50 dv=0 dx=0 dy=0 dh=0 dv=0
PairPos2: "'kern' Horizontal Kerning in Latin lookup 0 per glyph data 1" Thorn dx=0 dy=0 dh=-5 dv=0 dx=0 dy=0 dh=0 dv=0
PairPos2: "'kern' Horizontal Kerning in Latin lookup 0 per glyph data 1" Yacute dx=0 dy=0 dh=-10 dv=0 dx=0 dy=0 dh=0 dv=0
PairPos2: "'kern' Horizontal Kerning in Latin lookup 0 per glyph data 1" Udieresis dx=0 dy=0 dh=-10 dv=0 dx=0 dy=0 dh=0 dv=0
PairPos2: "'kern' Horizontal Kerning in Latin lookup 0 per glyph data 1" Ucircumflex dx=0 dy=0 dh=-10 dv=0 dx=0 dy=0 dh=0 dv=0
PairPos2: "'kern' Horizontal Kerning in Latin lookup 0 per glyph data 1" Uacute dx=0 dy=0 dh=-10 dv=0 dx=0 dy=0 dh=0 dv=0
PairPos2: "'kern' Horizontal Kerning in Latin lookup 0 per glyph data 1" Ugrave dx=0 dy=0 dh=-10 dv=0 dx=0 dy=0 dh=0 dv=0
PairPos2: "'kern' Horizontal Kerning in Latin lookup 0 per glyph data 1" Oslash dx=0 dy=0 dh=-21 dv=0 dx=0 dy=0 dh=0 dv=0
PairPos2: "'kern' Horizontal Kerning in Latin lookup 0 per glyph data 1" Odieresis dx=0 dy=0 dh=-22 dv=0 dx=0 dy=0 dh=0 dv=0
PairPos2: "'kern' Horizontal Kerning in Latin lookup 0 per glyph data 1" Otilde dx=0 dy=0 dh=-22 dv=0 dx=0 dy=0 dh=0 dv=0
PairPos2: "'kern' Horizontal Kerning in Latin lookup 0 per glyph data 1" Ocircumflex dx=0 dy=0 dh=-22 dv=0 dx=0 dy=0 dh=0 dv=0
PairPos2: "'kern' Horizontal Kerning in Latin lookup 0 per glyph data 1" Oacute dx=0 dy=0 dh=-22 dv=0 dx=0 dy=0 dh=0 dv=0
PairPos2: "'kern' Horizontal Kerning in Latin lookup 0 per glyph data 1" Ograve dx=0 dy=0 dh=-22 dv=0 dx=0 dy=0 dh=0 dv=0
PairPos2: "'kern' Horizontal Kerning in Latin lookup 0 per glyph data 1" Ntilde dx=0 dy=0 dh=-5 dv=0 dx=0 dy=0 dh=0 dv=0
PairPos2: "'kern' Horizontal Kerning in Latin lookup 0 per glyph data 1" Idieresis dx=0 dy=0 dh=-5 dv=0 dx=0 dy=0 dh=0 dv=0
PairPos2: "'kern' Horizontal Kerning in Latin lookup 0 per glyph data 1" Icircumflex dx=0 dy=0 dh=-5 dv=0 dx=0 dy=0 dh=0 dv=0
PairPos2: "'kern' Horizontal Kerning in Latin lookup 0 per glyph data 1" Iacute dx=0 dy=0 dh=-5 dv=0 dx=0 dy=0 dh=0 dv=0
PairPos2: "'kern' Horizontal Kerning in Latin lookup 0 per glyph data 1" Igrave dx=0 dy=0 dh=-5 dv=0 dx=0 dy=0 dh=0 dv=0
PairPos2: "'kern' Horizontal Kerning in Latin lookup 0 per glyph data 1" Edieresis dx=0 dy=0 dh=-5 dv=0 dx=0 dy=0 dh=0 dv=0
PairPos2: "'kern' Horizontal Kerning in Latin lookup 0 per glyph data 1" Ecircumflex dx=0 dy=0 dh=-5 dv=0 dx=0 dy=0 dh=0 dv=0
PairPos2: "'kern' Horizontal Kerning in Latin lookup 0 per glyph data 1" Eacute dx=0 dy=0 dh=-5 dv=0 dx=0 dy=0 dh=0 dv=0
PairPos2: "'kern' Horizontal Kerning in Latin lookup 0 per glyph data 1" Egrave dx=0 dy=0 dh=-5 dv=0 dx=0 dy=0 dh=0 dv=0
PairPos2: "'kern' Horizontal Kerning in Latin lookup 0 per glyph data 1" Ccedilla dx=0 dy=0 dh=-22 dv=0 dx=0 dy=0 dh=0 dv=0
PairPos2: "'kern' Horizontal Kerning in Latin lookup 0 per glyph data 1" AE dx=0 dy=0 dh=-50 dv=0 dx=0 dy=0 dh=0 dv=0
PairPos2: "'kern' Horizontal Kerning in Latin lookup 0 per glyph data 1" Aring dx=0 dy=0 dh=-50 dv=0 dx=0 dy=0 dh=0 dv=0
PairPos2: "'kern' Horizontal Kerning in Latin lookup 0 per glyph data 1" Adieresis dx=0 dy=0 dh=-50 dv=0 dx=0 dy=0 dh=0 dv=0
PairPos2: "'kern' Horizontal Kerning in Latin lookup 0 per glyph data 1" Atilde dx=0 dy=0 dh=-50 dv=0 dx=0 dy=0 dh=0 dv=0
PairPos2: "'kern' Horizontal Kerning in Latin lookup 0 per glyph data 1" Acircumflex dx=0 dy=0 dh=-50 dv=0 dx=0 dy=0 dh=0 dv=0
PairPos2: "'kern' Horizontal Kerning in Latin lookup 0 per glyph data 1" Aacute dx=0 dy=0 dh=-50 dv=0 dx=0 dy=0 dh=0 dv=0
PairPos2: "'kern' Horizontal Kerning in Latin lookup 0 per glyph data 1" Agrave dx=0 dy=0 dh=-50 dv=0 dx=0 dy=0 dh=0 dv=0
PairPos2: "'kern' Horizontal Kerning in Latin lookup 0 per glyph data 1" mu dx=0 dy=0 dh=-50 dv=0 dx=0 dy=0 dh=0 dv=0
PairPos2: "'kern' Horizontal Kerning in Latin lookup 0 per glyph data 1" brokenbar dx=0 dy=0 dh=-50 dv=0 dx=0 dy=0 dh=0 dv=0
PairPos2: "'kern' Horizontal Kerning in Latin lookup 0 per glyph data 1" cent dx=0 dy=0 dh=-25 dv=0 dx=0 dy=0 dh=0 dv=0
PairPos2: "'kern' Horizontal Kerning in Latin lookup 0 per glyph data 1" exclamdown dx=0 dy=0 dh=-50 dv=0 dx=0 dy=0 dh=0 dv=0
PairPos2: "'kern' Horizontal Kerning in Latin lookup 0 per glyph data 1" bar dx=0 dy=0 dh=-50 dv=0 dx=0 dy=0 dh=0 dv=0
PairPos2: "'kern' Horizontal Kerning in Latin lookup 0 per glyph data 1" y dx=0 dy=0 dh=-37 dv=0 dx=0 dy=0 dh=0 dv=0
PairPos2: "'kern' Horizontal Kerning in Latin lookup 0 per glyph data 1" u dx=0 dy=0 dh=-32 dv=0 dx=0 dy=0 dh=0 dv=0
PairPos2: "'kern' Horizontal Kerning in Latin lookup 0 per glyph data 1" t dx=0 dy=0 dh=-32 dv=0 dx=0 dy=0 dh=0 dv=0
PairPos2: "'kern' Horizontal Kerning in Latin lookup 0 per glyph data 1" s dx=0 dy=0 dh=-20 dv=0 dx=0 dy=0 dh=0 dv=0
PairPos2: "'kern' Horizontal Kerning in Latin lookup 0 per glyph data 1" r dx=0 dy=0 dh=-50 dv=0 dx=0 dy=0 dh=0 dv=0
PairPos2: "'kern' Horizontal Kerning in Latin lookup 0 per glyph data 1" q dx=0 dy=0 dh=-25 dv=0 dx=0 dy=0 dh=0 dv=0
PairPos2: "'kern' Horizontal Kerning in Latin lookup 0 per glyph data 1" p dx=0 dy=0 dh=-50 dv=0 dx=0 dy=0 dh=0 dv=0
PairPos2: "'kern' Horizontal Kerning in Latin lookup 0 per glyph data 1" o dx=0 dy=0 dh=-52 dv=0 dx=0 dy=0 dh=0 dv=0
PairPos2: "'kern' Horizontal Kerning in Latin lookup 0 per glyph data 1" n dx=0 dy=0 dh=-50 dv=0 dx=0 dy=0 dh=0 dv=0
PairPos2: "'kern' Horizontal Kerning in Latin lookup 0 per glyph data 1" m dx=0 dy=0 dh=-50 dv=0 dx=0 dy=0 dh=0 dv=0
PairPos2: "'kern' Horizontal Kerning in Latin lookup 0 per glyph data 1" l dx=0 dy=0 dh=-50 dv=0 dx=0 dy=0 dh=0 dv=0
PairPos2: "'kern' Horizontal Kerning in Latin lookup 0 per glyph data 1" k dx=0 dy=0 dh=-50 dv=0 dx=0 dy=0 dh=0 dv=0
PairPos2: "'kern' Horizontal Kerning in Latin lookup 0 per glyph data 1" j dx=0 dy=0 dh=-50 dv=0 dx=0 dy=0 dh=0 dv=0
PairPos2: "'kern' Horizontal Kerning in Latin lookup 0 per glyph data 1" i dx=0 dy=0 dh=-50 dv=0 dx=0 dy=0 dh=0 dv=0
PairPos2: "'kern' Horizontal Kerning in Latin lookup 0 per glyph data 1" h dx=0 dy=0 dh=-50 dv=0 dx=0 dy=0 dh=0 dv=0
PairPos2: "'kern' Horizontal Kerning in Latin lookup 0 per glyph data 1" f dx=0 dy=0 dh=-50 dv=0 dx=0 dy=0 dh=0 dv=0
PairPos2: "'kern' Horizontal Kerning in Latin lookup 0 per glyph data 1" e dx=0 dy=0 dh=-25 dv=0 dx=0 dy=0 dh=0 dv=0
PairPos2: "'kern' Horizontal Kerning in Latin lookup 0 per glyph data 1" d dx=0 dy=0 dh=-25 dv=0 dx=0 dy=0 dh=0 dv=0
PairPos2: "'kern' Horizontal Kerning in Latin lookup 0 per glyph data 1" c dx=0 dy=0 dh=-25 dv=0 dx=0 dy=0 dh=0 dv=0
PairPos2: "'kern' Horizontal Kerning in Latin lookup 0 per glyph data 1" b dx=0 dy=0 dh=-50 dv=0 dx=0 dy=0 dh=0 dv=0
PairPos2: "'kern' Horizontal Kerning in Latin lookup 0 per glyph data 1" a dx=0 dy=0 dh=-32 dv=0 dx=0 dy=0 dh=0 dv=0
PairPos2: "'kern' Horizontal Kerning in Latin lookup 0 per glyph data 1" bracketright dx=0 dy=0 dh=-50 dv=0 dx=0 dy=0 dh=0 dv=0
PairPos2: "'kern' Horizontal Kerning in Latin lookup 0 per glyph data 1" bracketleft dx=0 dy=0 dh=-50 dv=0 dx=0 dy=0 dh=0 dv=0
PairPos2: "'kern' Horizontal Kerning in Latin lookup 0 per glyph data 1" Y dx=0 dy=0 dh=-10 dv=0 dx=0 dy=0 dh=0 dv=0
PairPos2: "'kern' Horizontal Kerning in Latin lookup 0 per glyph data 1" U dx=0 dy=0 dh=-10 dv=0 dx=0 dy=0 dh=0 dv=0
PairPos2: "'kern' Horizontal Kerning in Latin lookup 0 per glyph data 1" S dx=0 dy=0 dh=-15 dv=0 dx=0 dy=0 dh=0 dv=0
PairPos2: "'kern' Horizontal Kerning in Latin lookup 0 per glyph data 1" R dx=0 dy=0 dh=-5 dv=0 dx=0 dy=0 dh=0 dv=0
PairPos2: "'kern' Horizontal Kerning in Latin lookup 0 per glyph data 1" Q dx=0 dy=0 dh=-22 dv=0 dx=0 dy=0 dh=0 dv=0
PairPos2: "'kern' Horizontal Kerning in Latin lookup 0 per glyph data 1" P dx=0 dy=0 dh=-5 dv=0 dx=0 dy=0 dh=0 dv=0
PairPos2: "'kern' Horizontal Kerning in Latin lookup 0 per glyph data 1" O dx=0 dy=0 dh=-22 dv=0 dx=0 dy=0 dh=0 dv=0
PairPos2: "'kern' Horizontal Kerning in Latin lookup 0 per glyph data 1" N dx=0 dy=0 dh=-5 dv=0 dx=0 dy=0 dh=0 dv=0
PairPos2: "'kern' Horizontal Kerning in Latin lookup 0 per glyph data 1" M dx=0 dy=0 dh=-5 dv=0 dx=0 dy=0 dh=0 dv=0
PairPos2: "'kern' Horizontal Kerning in Latin lookup 0 per glyph data 1" L dx=0 dy=0 dh=-5 dv=0 dx=0 dy=0 dh=0 dv=0
PairPos2: "'kern' Horizontal Kerning in Latin lookup 0 per glyph data 1" K dx=0 dy=0 dh=-5 dv=0 dx=0 dy=0 dh=0 dv=0
PairPos2: "'kern' Horizontal Kerning in Latin lookup 0 per glyph data 1" J dx=0 dy=0 dh=-5 dv=0 dx=0 dy=0 dh=0 dv=0
PairPos2: "'kern' Horizontal Kerning in Latin lookup 0 per glyph data 1" I dx=0 dy=0 dh=-5 dv=0 dx=0 dy=0 dh=0 dv=0
PairPos2: "'kern' Horizontal Kerning in Latin lookup 0 per glyph data 1" H dx=0 dy=0 dh=-5 dv=0 dx=0 dy=0 dh=0 dv=0
PairPos2: "'kern' Horizontal Kerning in Latin lookup 0 per glyph data 1" G dx=0 dy=0 dh=-22 dv=0 dx=0 dy=0 dh=0 dv=0
PairPos2: "'kern' Horizontal Kerning in Latin lookup 0 per glyph data 1" F dx=0 dy=0 dh=-5 dv=0 dx=0 dy=0 dh=0 dv=0
PairPos2: "'kern' Horizontal Kerning in Latin lookup 0 per glyph data 1" E dx=0 dy=0 dh=-5 dv=0 dx=0 dy=0 dh=0 dv=0
PairPos2: "'kern' Horizontal Kerning in Latin lookup 0 per glyph data 1" D dx=0 dy=0 dh=-5 dv=0 dx=0 dy=0 dh=0 dv=0
PairPos2: "'kern' Horizontal Kerning in Latin lookup 0 per glyph data 1" C dx=0 dy=0 dh=-22 dv=0 dx=0 dy=0 dh=0 dv=0
PairPos2: "'kern' Horizontal Kerning in Latin lookup 0 per glyph data 1" B dx=0 dy=0 dh=-5 dv=0 dx=0 dy=0 dh=0 dv=0
PairPos2: "'kern' Horizontal Kerning in Latin lookup 0 per glyph data 1" A dx=0 dy=0 dh=-50 dv=0 dx=0 dy=0 dh=0 dv=0
PairPos2: "'kern' Horizontal Kerning in Latin lookup 0 per glyph data 1" one dx=0 dy=0 dh=-50 dv=0 dx=0 dy=0 dh=0 dv=0
PairPos2: "'kern' Horizontal Kerning in Latin lookup 0 per glyph data 1" parenright dx=0 dy=0 dh=-50 dv=0 dx=0 dy=0 dh=0 dv=0
PairPos2: "'kern' Horizontal Kerning in Latin lookup 0 per glyph data 1" parenleft dx=0 dy=0 dh=-50 dv=0 dx=0 dy=0 dh=0 dv=0
PairPos2: "'kern' Horizontal Kerning in Latin lookup 0 per glyph data 1" exclam dx=0 dy=0 dh=-50 dv=0 dx=0 dy=0 dh=0 dv=0
EndChar

StartChar: G
Encoding: 71 71 42
Width: 614
GlyphClass: 2
Flags: W
LayerCount: 2
Fore
SplineSet
568 289 m 2,0,1
 568 288 568 288 569 274 c 1,2,-1
 529 269 l 1,3,-1
 529 21 l 1,4,5
 512 15 512 15 438.5 5.5 c 128,-1,6
 365 -4 365 -4 319 -4 c 128,-1,7
 273 -4 273 -4 239 2.5 c 128,-1,8
 205 9 205 9 167 30 c 128,-1,9
 129 51 129 51 102.5 85.5 c 128,-1,10
 76 120 76 120 58 180 c 128,-1,11
 40 240 40 240 40 320 c 0,12,13
 40 497 40 497 121 596 c 0,14,15
 206 700 206 700 353 700 c 0,16,17
 398 700 398 700 450.5 691.5 c 128,-1,18
 503 683 503 683 525 675 c 1,19,-1
 537 531 l 1,20,-1
 518 524 l 1,21,-1
 505 631 l 1,22,23
 424 686 424 686 353 686 c 0,24,25
 240 686 240 686 174 592 c 128,-1,26
 108 498 108 498 108 320 c 0,27,28
 108 104 108 104 207 41 c 0,29,30
 237 22 237 22 262.5 16.5 c 128,-1,31
 288 11 288 11 334 11 c 128,-1,32
 380 11 380 11 469 24 c 1,33,-1
 473 254 l 2,34,35
 473 266 473 266 461 268 c 1,36,-1
 389 273 l 1,37,38
 388 279 388 279 388 288 c 1,39,-1
 568 289 l 2,0,1
EndSplineSet
EndChar

StartChar: H
Encoding: 72 72 43
Width: 685
GlyphClass: 2
Flags: W
LayerCount: 2
Fore
SplineSet
634 700 m 2,0,1
 634 699 634 699 635 685 c 1,2,-1
 572 678 l 1,3,-1
 572 19 l 1,4,-1
 645 15 l 2,5,6
 645 14 645 14 644 0 c 1,7,-1
 444 -1 l 1,8,9
 444 8 444 8 445 13 c 1,10,-1
 497 20 l 2,11,12
 507 21 507 21 509 33 c 1,13,-1
 509 337 l 1,14,-1
 168 337 l 1,15,-1
 168 19 l 1,16,-1
 242 15 l 2,17,18
 242 14 242 14 241 0 c 1,19,-1
 40 -1 l 1,20,-1
 41 13 l 1,21,-1
 93 20 l 2,22,23
 103 21 103 21 105 32 c 1,24,-1
 105 666 l 1,25,26
 103 678 103 678 93 679 c 2,27,-1
 41 684 l 1,28,-1
 40 699 l 1,29,-1
 241 700 l 2,30,31
 241 699 241 699 242 685 c 1,32,-1
 168 678 l 1,33,-1
 168 357 l 1,34,-1
 509 357 l 1,35,-1
 509 665 l 1,36,37
 507 678 507 678 497 679 c 2,38,-1
 445 684 l 1,39,40
 444 690 444 690 444 699 c 1,41,-1
 634 700 l 2,0,1
EndSplineSet
EndChar

StartChar: I
Encoding: 73 73 44
Width: 302
GlyphClass: 2
Flags: W
LayerCount: 2
Fore
SplineSet
50 -1 m 1,0,-1
 51 13 l 1,1,-1
 103 20 l 2,2,3
 113 21 113 21 115 33 c 1,4,-1
 116 33 l 1,5,-1
 116 665 l 1,6,-1
 115 665 l 1,7,8
 113 678 113 678 103 679 c 2,9,-1
 51 684 l 1,10,-1
 50 699 l 1,11,-1
 251 700 l 2,12,13
 251 699 251 699 252 685 c 1,14,-1
 184 679 l 1,15,-1
 184 19 l 1,16,-1
 252 15 l 2,17,18
 252 14 252 14 251 0 c 1,19,-1
 50 -1 l 1,0,-1
EndSplineSet
EndChar

StartChar: J
Encoding: 74 74 45
Width: 235
GlyphClass: 2
Flags: W
LayerCount: 2
Fore
SplineSet
184 700 m 2,0,1
 184 699 184 699 185 685 c 1,2,-1
 146 680 l 1,3,-1
 146 0 l 1,4,5
 149 -120 149 -120 2 -248 c 1,6,-1
 -10 -239 l 1,7,8
 79 -118 79 -118 78 0 c 1,9,-1
 78 668 l 1,10,11
 76 677 76 677 66 679 c 1,12,-1
 4 684 l 1,13,-1
 3 699 l 1,14,-1
 184 700 l 2,0,1
EndSplineSet
EndChar

StartChar: K
Encoding: 75 75 46
Width: 602
GlyphClass: 2
Flags: W
LayerCount: 2
Fore
SplineSet
566 700 m 2,0,1
 566 699 566 699 567 685 c 1,2,-1
 482 677 l 1,3,-1
 239 394 l 1,4,-1
 535 18 l 1,5,-1
 582 15 l 2,6,7
 582 14 582 14 581 0 c 1,8,-1
 473 -1 l 1,9,-1
 184 364 l 1,10,-1
 183 365 l 1,11,-1
 183 19 l 1,12,-1
 251 15 l 2,13,14
 251 14 251 14 250 0 c 1,15,-1
 50 -1 l 1,16,17
 50 8 50 8 51 13 c 1,18,-1
 103 20 l 2,19,20
 113 21 113 21 115 33 c 1,21,-1
 115 666 l 1,22,23
 111 678 111 678 103 679 c 2,24,-1
 51 684 l 1,25,26
 50 690 50 690 50 699 c 1,27,-1
 250 700 l 2,28,29
 250 699 250 699 251 685 c 1,30,-1
 183 679 l 1,31,-1
 183 366 l 1,32,-1
 185 367 l 1,33,-1
 430 660 l 1,34,35
 438 676 438 676 424 679 c 1,36,-1
 372 684 l 1,37,38
 371 690 371 690 371 699 c 1,39,-1
 566 700 l 2,0,1
183 366 m 1,40,-1
 183 365 l 1,41,-1
 183 366 l 1,40,-1
EndSplineSet
EndChar

StartChar: L
Encoding: 76 76 47
Width: 517
GlyphClass: 2
Flags: W
LayerCount: 2
Fore
SplineSet
251 700 m 2,0,1
 251 699 251 699 252 685 c 1,2,-1
 183 679 l 1,3,-1
 183 20 l 1,4,-1
 459 20 l 1,5,-1
 479 180 l 1,6,-1
 498 175 l 1,7,-1
 483 0 l 1,8,-1
 251 0 l 1,9,-1
 50 -1 l 1,10,-1
 51 13 l 1,11,-1
 103 20 l 2,12,13
 113 21 113 21 115 33 c 1,14,-1
 115 666 l 1,15,16
 113 678 113 678 103 679 c 2,17,-1
 51 684 l 1,18,-1
 50 699 l 1,19,-1
 251 700 l 2,0,1
EndSplineSet
EndChar

StartChar: M
Encoding: 77 77 48
Width: 822
GlyphClass: 2
Flags: W
LayerCount: 2
Fore
SplineSet
38 685 m 1,0,-1
 39 700 l 1,1,-1
 171 700 l 1,2,-1
 410 193 l 1,3,-1
 645 700 l 1,4,-1
 777 700 l 1,5,6
 777 698 777 698 778 693 c 128,-1,7
 779 688 779 688 778 685 c 1,8,-1
 725 679 l 2,9,10
 715 678 715 678 713 666 c 1,11,-1
 713 19 l 1,12,-1
 787 15 l 2,13,14
 787 14 787 14 786 0 c 1,15,-1
 585 -1 l 1,16,-1
 586 13 l 1,17,-1
 638 20 l 2,18,19
 648 21 648 21 650 32 c 1,20,-1
 650 664 l 1,21,-1
 422 171 l 1,22,-1
 402 131 l 1,23,-1
 379 131 l 1,24,-1
 126 665 l 1,25,-1
 126 21 l 1,26,-1
 240 15 l 2,27,28
 240 14 240 14 239 0 c 1,29,-1
 38 -1 l 1,30,-1
 39 13 l 1,31,-1
 91 20 l 2,32,33
 101 21 101 21 103 33 c 1,34,-1
 103 666 l 1,35,36
 101 678 101 678 91 679 c 2,37,-1
 38 685 l 1,0,-1
EndSplineSet
EndChar

StartChar: N
Encoding: 78 78 49
Width: 699
GlyphClass: 2
Flags: W
LayerCount: 2
Fore
SplineSet
45 685 m 1,0,-1
 46 700 l 1,1,-1
 183 700 l 1,2,-1
 572 28 l 1,3,-1
 567 665 l 1,4,5
 563 675 563 675 556 676 c 2,6,-1
 464 684 l 1,7,8
 463 690 463 690 463 699 c 1,9,-1
 653 700 l 2,10,11
 653 699 653 699 654 685 c 1,12,-1
 590 678 l 1,13,-1
 590 0 l 1,14,-1
 517 0 l 1,15,-1
 128 672 l 1,16,-1
 133 21 l 1,17,-1
 247 15 l 2,18,19
 247 14 247 14 246 0 c 1,20,-1
 45 -1 l 1,21,-1
 46 13 l 1,22,-1
 98 20 l 2,23,24
 108 21 108 21 110 33 c 1,25,-1
 110 666 l 1,26,27
 108 678 108 678 98 679 c 2,28,-1
 45 685 l 1,0,-1
EndSplineSet
EndChar

StartChar: O
Encoding: 79 79 50
Width: 670
GlyphClass: 2
Flags: W
LayerCount: 2
Fore
SplineSet
40 348 m 0,0,1
 40 513 40 513 124.5 611 c 128,-1,2
 209 709 209 709 335 709 c 0,3,4
 630 709 630 709 630 348 c 0,5,6
 630 182 630 182 546 86.5 c 128,-1,7
 462 -9 462 -9 335 -9 c 0,8,9
 40 -9 40 -9 40 348 c 0,0,1
108 350 m 0,10,11
 108 11 108 11 335 11 c 0,12,13
 433 11 433 11 497.5 101 c 128,-1,14
 562 191 562 191 562 350 c 0,15,16
 562 689 562 689 335 689 c 0,17,18
 238 689 238 689 173 598 c 128,-1,19
 108 507 108 507 108 350 c 0,10,11
EndSplineSet
EndChar

StartChar: P
Encoding: 80 80 51
Width: 542
GlyphClass: 2
Flags: W
LayerCount: 2
Fore
SplineSet
50 688 m 2,0,-1
 52 700 l 1,1,-1
 260 700 l 2,2,3
 383 700 383 700 442.5 658 c 128,-1,4
 502 616 502 616 502 499.5 c 128,-1,5
 502 383 502 383 440.5 327.5 c 128,-1,6
 379 272 379 272 260 272 c 2,7,-1
 183 272 l 1,8,-1
 183 19 l 1,9,-1
 252 15 l 2,10,11
 252 14 252 14 251 0 c 1,12,-1
 51 -1 l 1,13,14
 51 8 51 8 52 13 c 1,15,-1
 104 20 l 2,16,17
 111 21 111 21 115 29 c 1,18,-1
 115 669 l 1,19,20
 111 678 111 678 104 679 c 2,21,-1
 51 685 l 2,22,23
 50 686 50 686 50 688 c 2,0,-1
255 685 m 2,24,-1
 183 685 l 1,25,-1
 183 287 l 1,26,-1
 255 287 l 2,27,28
 345 287 345 287 389.5 335 c 128,-1,29
 434 383 434 383 434 495.5 c 128,-1,30
 434 608 434 608 390 646.5 c 128,-1,31
 346 685 346 685 255 685 c 2,24,-1
EndSplineSet
PairPos2: "'kern' Horizontal Kerning in Latin lookup 0 per glyph data 1" Ydieresis dx=0 dy=0 dh=-29 dv=0 dx=0 dy=0 dh=0 dv=0
PairPos2: "'kern' Horizontal Kerning in Latin lookup 0 per glyph data 1" oe dx=0 dy=0 dh=-70 dv=0 dx=0 dy=0 dh=0 dv=0
PairPos2: "'kern' Horizontal Kerning in Latin lookup 0 per glyph data 1" OE dx=0 dy=0 dh=-25 dv=0 dx=0 dy=0 dh=0 dv=0
PairPos2: "'kern' Horizontal Kerning in Latin lookup 0 per glyph data 1" dotlessi dx=0 dy=0 dh=-40 dv=0 dx=0 dy=0 dh=0 dv=0
PairPos2: "'kern' Horizontal Kerning in Latin lookup 0 per glyph data 1" ydieresis dx=0 dy=0 dh=-10 dv=0 dx=0 dy=0 dh=0 dv=0
PairPos2: "'kern' Horizontal Kerning in Latin lookup 0 per glyph data 1" thorn dx=0 dy=0 dh=-40 dv=0 dx=0 dy=0 dh=0 dv=0
PairPos2: "'kern' Horizontal Kerning in Latin lookup 0 per glyph data 1" yacute dx=0 dy=0 dh=-10 dv=0 dx=0 dy=0 dh=0 dv=0
PairPos2: "'kern' Horizontal Kerning in Latin lookup 0 per glyph data 1" udieresis dx=0 dy=0 dh=-10 dv=0 dx=0 dy=0 dh=0 dv=0
PairPos2: "'kern' Horizontal Kerning in Latin lookup 0 per glyph data 1" ucircumflex dx=0 dy=0 dh=-10 dv=0 dx=0 dy=0 dh=0 dv=0
PairPos2: "'kern' Horizontal Kerning in Latin lookup 0 per glyph data 1" uacute dx=0 dy=0 dh=-10 dv=0 dx=0 dy=0 dh=0 dv=0
PairPos2: "'kern' Horizontal Kerning in Latin lookup 0 per glyph data 1" ugrave dx=0 dy=0 dh=-10 dv=0 dx=0 dy=0 dh=0 dv=0
PairPos2: "'kern' Horizontal Kerning in Latin lookup 0 per glyph data 1" odieresis dx=0 dy=0 dh=-70 dv=0 dx=0 dy=0 dh=0 dv=0
PairPos2: "'kern' Horizontal Kerning in Latin lookup 0 per glyph data 1" otilde dx=0 dy=0 dh=-70 dv=0 dx=0 dy=0 dh=0 dv=0
PairPos2: "'kern' Horizontal Kerning in Latin lookup 0 per glyph data 1" ocircumflex dx=0 dy=0 dh=-70 dv=0 dx=0 dy=0 dh=0 dv=0
PairPos2: "'kern' Horizontal Kerning in Latin lookup 0 per glyph data 1" oacute dx=0 dy=0 dh=-70 dv=0 dx=0 dy=0 dh=0 dv=0
PairPos2: "'kern' Horizontal Kerning in Latin lookup 0 per glyph data 1" ograve dx=0 dy=0 dh=-70 dv=0 dx=0 dy=0 dh=0 dv=0
PairPos2: "'kern' Horizontal Kerning in Latin lookup 0 per glyph data 1" ntilde dx=0 dy=0 dh=-40 dv=0 dx=0 dy=0 dh=0 dv=0
PairPos2: "'kern' Horizontal Kerning in Latin lookup 0 per glyph data 1" eth dx=0 dy=0 dh=-70 dv=0 dx=0 dy=0 dh=0 dv=0
PairPos2: "'kern' Horizontal Kerning in Latin lookup 0 per glyph data 1" idieresis dx=0 dy=0 dh=-40 dv=0 dx=0 dy=0 dh=0 dv=0
PairPos2: "'kern' Horizontal Kerning in Latin lookup 0 per glyph data 1" icircumflex dx=0 dy=0 dh=-40 dv=0 dx=0 dy=0 dh=0 dv=0
PairPos2: "'kern' Horizontal Kerning in Latin lookup 0 per glyph data 1" iacute dx=0 dy=0 dh=-40 dv=0 dx=0 dy=0 dh=0 dv=0
PairPos2: "'kern' Horizontal Kerning in Latin lookup 0 per glyph data 1" igrave dx=0 dy=0 dh=-40 dv=0 dx=0 dy=0 dh=0 dv=0
PairPos2: "'kern' Horizontal Kerning in Latin lookup 0 per glyph data 1" edieresis dx=0 dy=0 dh=-20 dv=0 dx=0 dy=0 dh=0 dv=0
PairPos2: "'kern' Horizontal Kerning in Latin lookup 0 per glyph data 1" ecircumflex dx=0 dy=0 dh=-20 dv=0 dx=0 dy=0 dh=0 dv=0
PairPos2: "'kern' Horizontal Kerning in Latin lookup 0 per glyph data 1" eacute dx=0 dy=0 dh=-20 dv=0 dx=0 dy=0 dh=0 dv=0
PairPos2: "'kern' Horizontal Kerning in Latin lookup 0 per glyph data 1" egrave dx=0 dy=0 dh=-20 dv=0 dx=0 dy=0 dh=0 dv=0
PairPos2: "'kern' Horizontal Kerning in Latin lookup 0 per glyph data 1" ccedilla dx=0 dy=0 dh=-20 dv=0 dx=0 dy=0 dh=0 dv=0
PairPos2: "'kern' Horizontal Kerning in Latin lookup 0 per glyph data 1" aring dx=0 dy=0 dh=-10 dv=0 dx=0 dy=0 dh=0 dv=0
PairPos2: "'kern' Horizontal Kerning in Latin lookup 0 per glyph data 1" adieresis dx=0 dy=0 dh=-10 dv=0 dx=0 dy=0 dh=0 dv=0
PairPos2: "'kern' Horizontal Kerning in Latin lookup 0 per glyph data 1" atilde dx=0 dy=0 dh=-10 dv=0 dx=0 dy=0 dh=0 dv=0
PairPos2: "'kern' Horizontal Kerning in Latin lookup 0 per glyph data 1" acircumflex dx=0 dy=0 dh=-10 dv=0 dx=0 dy=0 dh=0 dv=0
PairPos2: "'kern' Horizontal Kerning in Latin lookup 0 per glyph data 1" aacute dx=0 dy=0 dh=-10 dv=0 dx=0 dy=0 dh=0 dv=0
PairPos2: "'kern' Horizontal Kerning in Latin lookup 0 per glyph data 1" agrave dx=0 dy=0 dh=-10 dv=0 dx=0 dy=0 dh=0 dv=0
PairPos2: "'kern' Horizontal Kerning in Latin lookup 0 per glyph data 1" germandbls dx=0 dy=0 dh=-40 dv=0 dx=0 dy=0 dh=0 dv=0
PairPos2: "'kern' Horizontal Kerning in Latin lookup 0 per glyph data 1" Thorn dx=0 dy=0 dh=-27 dv=0 dx=0 dy=0 dh=0 dv=0
PairPos2: "'kern' Horizontal Kerning in Latin lookup 0 per glyph data 1" Yacute dx=0 dy=0 dh=-29 dv=0 dx=0 dy=0 dh=0 dv=0
PairPos2: "'kern' Horizontal Kerning in Latin lookup 0 per glyph data 1" Udieresis dx=0 dy=0 dh=-25 dv=0 dx=0 dy=0 dh=0 dv=0
PairPos2: "'kern' Horizontal Kerning in Latin lookup 0 per glyph data 1" Ucircumflex dx=0 dy=0 dh=-25 dv=0 dx=0 dy=0 dh=0 dv=0
PairPos2: "'kern' Horizontal Kerning in Latin lookup 0 per glyph data 1" Uacute dx=0 dy=0 dh=-25 dv=0 dx=0 dy=0 dh=0 dv=0
PairPos2: "'kern' Horizontal Kerning in Latin lookup 0 per glyph data 1" Ugrave dx=0 dy=0 dh=-25 dv=0 dx=0 dy=0 dh=0 dv=0
PairPos2: "'kern' Horizontal Kerning in Latin lookup 0 per glyph data 1" Odieresis dx=0 dy=0 dh=-25 dv=0 dx=0 dy=0 dh=0 dv=0
PairPos2: "'kern' Horizontal Kerning in Latin lookup 0 per glyph data 1" Otilde dx=0 dy=0 dh=-25 dv=0 dx=0 dy=0 dh=0 dv=0
PairPos2: "'kern' Horizontal Kerning in Latin lookup 0 per glyph data 1" Ocircumflex dx=0 dy=0 dh=-25 dv=0 dx=0 dy=0 dh=0 dv=0
PairPos2: "'kern' Horizontal Kerning in Latin lookup 0 per glyph data 1" Oacute dx=0 dy=0 dh=-25 dv=0 dx=0 dy=0 dh=0 dv=0
PairPos2: "'kern' Horizontal Kerning in Latin lookup 0 per glyph data 1" Ograve dx=0 dy=0 dh=-25 dv=0 dx=0 dy=0 dh=0 dv=0
PairPos2: "'kern' Horizontal Kerning in Latin lookup 0 per glyph data 1" Ntilde dx=0 dy=0 dh=-27 dv=0 dx=0 dy=0 dh=0 dv=0
PairPos2: "'kern' Horizontal Kerning in Latin lookup 0 per glyph data 1" Idieresis dx=0 dy=0 dh=-27 dv=0 dx=0 dy=0 dh=0 dv=0
PairPos2: "'kern' Horizontal Kerning in Latin lookup 0 per glyph data 1" Icircumflex dx=0 dy=0 dh=-27 dv=0 dx=0 dy=0 dh=0 dv=0
PairPos2: "'kern' Horizontal Kerning in Latin lookup 0 per glyph data 1" Iacute dx=0 dy=0 dh=-27 dv=0 dx=0 dy=0 dh=0 dv=0
PairPos2: "'kern' Horizontal Kerning in Latin lookup 0 per glyph data 1" Igrave dx=0 dy=0 dh=-27 dv=0 dx=0 dy=0 dh=0 dv=0
PairPos2: "'kern' Horizontal Kerning in Latin lookup 0 per glyph data 1" Edieresis dx=0 dy=0 dh=-27 dv=0 dx=0 dy=0 dh=0 dv=0
PairPos2: "'kern' Horizontal Kerning in Latin lookup 0 per glyph data 1" Ecircumflex dx=0 dy=0 dh=-27 dv=0 dx=0 dy=0 dh=0 dv=0
PairPos2: "'kern' Horizontal Kerning in Latin lookup 0 per glyph data 1" Eacute dx=0 dy=0 dh=-27 dv=0 dx=0 dy=0 dh=0 dv=0
PairPos2: "'kern' Horizontal Kerning in Latin lookup 0 per glyph data 1" Egrave dx=0 dy=0 dh=-27 dv=0 dx=0 dy=0 dh=0 dv=0
PairPos2: "'kern' Horizontal Kerning in Latin lookup 0 per glyph data 1" Ccedilla dx=0 dy=0 dh=-25 dv=0 dx=0 dy=0 dh=0 dv=0
PairPos2: "'kern' Horizontal Kerning in Latin lookup 0 per glyph data 1" AE dx=0 dy=0 dh=-70 dv=0 dx=0 dy=0 dh=0 dv=0
PairPos2: "'kern' Horizontal Kerning in Latin lookup 0 per glyph data 1" Aring dx=0 dy=0 dh=-70 dv=0 dx=0 dy=0 dh=0 dv=0
PairPos2: "'kern' Horizontal Kerning in Latin lookup 0 per glyph data 1" Adieresis dx=0 dy=0 dh=-70 dv=0 dx=0 dy=0 dh=0 dv=0
PairPos2: "'kern' Horizontal Kerning in Latin lookup 0 per glyph data 1" Atilde dx=0 dy=0 dh=-70 dv=0 dx=0 dy=0 dh=0 dv=0
PairPos2: "'kern' Horizontal Kerning in Latin lookup 0 per glyph data 1" Acircumflex dx=0 dy=0 dh=-70 dv=0 dx=0 dy=0 dh=0 dv=0
PairPos2: "'kern' Horizontal Kerning in Latin lookup 0 per glyph data 1" Aacute dx=0 dy=0 dh=-70 dv=0 dx=0 dy=0 dh=0 dv=0
PairPos2: "'kern' Horizontal Kerning in Latin lookup 0 per glyph data 1" Agrave dx=0 dy=0 dh=-70 dv=0 dx=0 dy=0 dh=0 dv=0
PairPos2: "'kern' Horizontal Kerning in Latin lookup 0 per glyph data 1" mu dx=0 dy=0 dh=-40 dv=0 dx=0 dy=0 dh=0 dv=0
PairPos2: "'kern' Horizontal Kerning in Latin lookup 0 per glyph data 1" brokenbar dx=0 dy=0 dh=-40 dv=0 dx=0 dy=0 dh=0 dv=0
PairPos2: "'kern' Horizontal Kerning in Latin lookup 0 per glyph data 1" cent dx=0 dy=0 dh=-20 dv=0 dx=0 dy=0 dh=0 dv=0
PairPos2: "'kern' Horizontal Kerning in Latin lookup 0 per glyph data 1" exclamdown dx=0 dy=0 dh=-40 dv=0 dx=0 dy=0 dh=0 dv=0
PairPos2: "'kern' Horizontal Kerning in Latin lookup 0 per glyph data 1" bar dx=0 dy=0 dh=-40 dv=0 dx=0 dy=0 dh=0 dv=0
PairPos2: "'kern' Horizontal Kerning in Latin lookup 0 per glyph data 1" y dx=0 dy=0 dh=-10 dv=0 dx=0 dy=0 dh=0 dv=0
PairPos2: "'kern' Horizontal Kerning in Latin lookup 0 per glyph data 1" w dx=0 dy=0 dh=-10 dv=0 dx=0 dy=0 dh=0 dv=0
PairPos2: "'kern' Horizontal Kerning in Latin lookup 0 per glyph data 1" v dx=0 dy=0 dh=-13 dv=0 dx=0 dy=0 dh=0 dv=0
PairPos2: "'kern' Horizontal Kerning in Latin lookup 0 per glyph data 1" u dx=0 dy=0 dh=-10 dv=0 dx=0 dy=0 dh=0 dv=0
PairPos2: "'kern' Horizontal Kerning in Latin lookup 0 per glyph data 1" t dx=0 dy=0 dh=-10 dv=0 dx=0 dy=0 dh=0 dv=0
PairPos2: "'kern' Horizontal Kerning in Latin lookup 0 per glyph data 1" s dx=0 dy=0 dh=-30 dv=0 dx=0 dy=0 dh=0 dv=0
PairPos2: "'kern' Horizontal Kerning in Latin lookup 0 per glyph data 1" r dx=0 dy=0 dh=-40 dv=0 dx=0 dy=0 dh=0 dv=0
PairPos2: "'kern' Horizontal Kerning in Latin lookup 0 per glyph data 1" q dx=0 dy=0 dh=-20 dv=0 dx=0 dy=0 dh=0 dv=0
PairPos2: "'kern' Horizontal Kerning in Latin lookup 0 per glyph data 1" p dx=0 dy=0 dh=-40 dv=0 dx=0 dy=0 dh=0 dv=0
PairPos2: "'kern' Horizontal Kerning in Latin lookup 0 per glyph data 1" o dx=0 dy=0 dh=-70 dv=0 dx=0 dy=0 dh=0 dv=0
PairPos2: "'kern' Horizontal Kerning in Latin lookup 0 per glyph data 1" n dx=0 dy=0 dh=-40 dv=0 dx=0 dy=0 dh=0 dv=0
PairPos2: "'kern' Horizontal Kerning in Latin lookup 0 per glyph data 1" m dx=0 dy=0 dh=-40 dv=0 dx=0 dy=0 dh=0 dv=0
PairPos2: "'kern' Horizontal Kerning in Latin lookup 0 per glyph data 1" l dx=0 dy=0 dh=-40 dv=0 dx=0 dy=0 dh=0 dv=0
PairPos2: "'kern' Horizontal Kerning in Latin lookup 0 per glyph data 1" k dx=0 dy=0 dh=-40 dv=0 dx=0 dy=0 dh=0 dv=0
PairPos2: "'kern' Horizontal Kerning in Latin lookup 0 per glyph data 1" j dx=0 dy=0 dh=-40 dv=0 dx=0 dy=0 dh=0 dv=0
PairPos2: "'kern' Horizontal Kerning in Latin lookup 0 per glyph data 1" i dx=0 dy=0 dh=-40 dv=0 dx=0 dy=0 dh=0 dv=0
PairPos2: "'kern' Horizontal Kerning in Latin lookup 0 per glyph data 1" h dx=0 dy=0 dh=-40 dv=0 dx=0 dy=0 dh=0 dv=0
PairPos2: "'kern' Horizontal Kerning in Latin lookup 0 per glyph data 1" g dx=0 dy=0 dh=-48 dv=0 dx=0 dy=0 dh=0 dv=0
PairPos2: "'kern' Horizontal Kerning in Latin lookup 0 per glyph data 1" f dx=0 dy=0 dh=-40 dv=0 dx=0 dy=0 dh=0 dv=0
PairPos2: "'kern' Horizontal Kerning in Latin lookup 0 per glyph data 1" e dx=0 dy=0 dh=-20 dv=0 dx=0 dy=0 dh=0 dv=0
PairPos2: "'kern' Horizontal Kerning in Latin lookup 0 per glyph data 1" d dx=0 dy=0 dh=-20 dv=0 dx=0 dy=0 dh=0 dv=0
PairPos2: "'kern' Horizontal Kerning in Latin lookup 0 per glyph data 1" c dx=0 dy=0 dh=-20 dv=0 dx=0 dy=0 dh=0 dv=0
PairPos2: "'kern' Horizontal Kerning in Latin lookup 0 per glyph data 1" b dx=0 dy=0 dh=-40 dv=0 dx=0 dy=0 dh=0 dv=0
PairPos2: "'kern' Horizontal Kerning in Latin lookup 0 per glyph data 1" a dx=0 dy=0 dh=-10 dv=0 dx=0 dy=0 dh=0 dv=0
PairPos2: "'kern' Horizontal Kerning in Latin lookup 0 per glyph data 1" bracketright dx=0 dy=0 dh=-40 dv=0 dx=0 dy=0 dh=0 dv=0
PairPos2: "'kern' Horizontal Kerning in Latin lookup 0 per glyph data 1" bracketleft dx=0 dy=0 dh=-40 dv=0 dx=0 dy=0 dh=0 dv=0
PairPos2: "'kern' Horizontal Kerning in Latin lookup 0 per glyph data 1" Z dx=0 dy=0 dh=-29 dv=0 dx=0 dy=0 dh=0 dv=0
PairPos2: "'kern' Horizontal Kerning in Latin lookup 0 per glyph data 1" Y dx=0 dy=0 dh=-29 dv=0 dx=0 dy=0 dh=0 dv=0
PairPos2: "'kern' Horizontal Kerning in Latin lookup 0 per glyph data 1" U dx=0 dy=0 dh=-25 dv=0 dx=0 dy=0 dh=0 dv=0
PairPos2: "'kern' Horizontal Kerning in Latin lookup 0 per glyph data 1" T dx=0 dy=0 dh=-15 dv=0 dx=0 dy=0 dh=0 dv=0
PairPos2: "'kern' Horizontal Kerning in Latin lookup 0 per glyph data 1" S dx=0 dy=0 dh=-15 dv=0 dx=0 dy=0 dh=0 dv=0
PairPos2: "'kern' Horizontal Kerning in Latin lookup 0 per glyph data 1" R dx=0 dy=0 dh=-27 dv=0 dx=0 dy=0 dh=0 dv=0
PairPos2: "'kern' Horizontal Kerning in Latin lookup 0 per glyph data 1" Q dx=0 dy=0 dh=-25 dv=0 dx=0 dy=0 dh=0 dv=0
PairPos2: "'kern' Horizontal Kerning in Latin lookup 0 per glyph data 1" P dx=0 dy=0 dh=-27 dv=0 dx=0 dy=0 dh=0 dv=0
PairPos2: "'kern' Horizontal Kerning in Latin lookup 0 per glyph data 1" O dx=0 dy=0 dh=-25 dv=0 dx=0 dy=0 dh=0 dv=0
PairPos2: "'kern' Horizontal Kerning in Latin lookup 0 per glyph data 1" N dx=0 dy=0 dh=-27 dv=0 dx=0 dy=0 dh=0 dv=0
PairPos2: "'kern' Horizontal Kerning in Latin lookup 0 per glyph data 1" M dx=0 dy=0 dh=-27 dv=0 dx=0 dy=0 dh=0 dv=0
PairPos2: "'kern' Horizontal Kerning in Latin lookup 0 per glyph data 1" L dx=0 dy=0 dh=-27 dv=0 dx=0 dy=0 dh=0 dv=0
PairPos2: "'kern' Horizontal Kerning in Latin lookup 0 per glyph data 1" K dx=0 dy=0 dh=-27 dv=0 dx=0 dy=0 dh=0 dv=0
PairPos2: "'kern' Horizontal Kerning in Latin lookup 0 per glyph data 1" J dx=0 dy=0 dh=-27 dv=0 dx=0 dy=0 dh=0 dv=0
PairPos2: "'kern' Horizontal Kerning in Latin lookup 0 per glyph data 1" I dx=0 dy=0 dh=-27 dv=0 dx=0 dy=0 dh=0 dv=0
PairPos2: "'kern' Horizontal Kerning in Latin lookup 0 per glyph data 1" H dx=0 dy=0 dh=-27 dv=0 dx=0 dy=0 dh=0 dv=0
PairPos2: "'kern' Horizontal Kerning in Latin lookup 0 per glyph data 1" G dx=0 dy=0 dh=-25 dv=0 dx=0 dy=0 dh=0 dv=0
PairPos2: "'kern' Horizontal Kerning in Latin lookup 0 per glyph data 1" F dx=0 dy=0 dh=-27 dv=0 dx=0 dy=0 dh=0 dv=0
PairPos2: "'kern' Horizontal Kerning in Latin lookup 0 per glyph data 1" E dx=0 dy=0 dh=-27 dv=0 dx=0 dy=0 dh=0 dv=0
PairPos2: "'kern' Horizontal Kerning in Latin lookup 0 per glyph data 1" D dx=0 dy=0 dh=-27 dv=0 dx=0 dy=0 dh=0 dv=0
PairPos2: "'kern' Horizontal Kerning in Latin lookup 0 per glyph data 1" C dx=0 dy=0 dh=-25 dv=0 dx=0 dy=0 dh=0 dv=0
PairPos2: "'kern' Horizontal Kerning in Latin lookup 0 per glyph data 1" B dx=0 dy=0 dh=-27 dv=0 dx=0 dy=0 dh=0 dv=0
PairPos2: "'kern' Horizontal Kerning in Latin lookup 0 per glyph data 1" A dx=0 dy=0 dh=-70 dv=0 dx=0 dy=0 dh=0 dv=0
PairPos2: "'kern' Horizontal Kerning in Latin lookup 0 per glyph data 1" one dx=0 dy=0 dh=-40 dv=0 dx=0 dy=0 dh=0 dv=0
PairPos2: "'kern' Horizontal Kerning in Latin lookup 0 per glyph data 1" parenright dx=0 dy=0 dh=-40 dv=0 dx=0 dy=0 dh=0 dv=0
PairPos2: "'kern' Horizontal Kerning in Latin lookup 0 per glyph data 1" parenleft dx=0 dy=0 dh=-40 dv=0 dx=0 dy=0 dh=0 dv=0
PairPos2: "'kern' Horizontal Kerning in Latin lookup 0 per glyph data 1" exclam dx=0 dy=0 dh=-40 dv=0 dx=0 dy=0 dh=0 dv=0
EndChar

StartChar: Q
Encoding: 81 81 52
Width: 670
GlyphClass: 2
Flags: W
LayerCount: 2
Fore
SplineSet
623 -184 m 1,0,1
 622 -198 622 -198 622 -199 c 2,2,-1
 461 -200 l 1,3,4
 412 -166 412 -166 364 -113 c 128,-1,5
 316 -60 316 -60 299 -2 c 1,6,7
 40 18 40 18 40 348 c 0,8,9
 40 511 40 511 124.5 607.5 c 128,-1,10
 209 704 209 704 335 704 c 0,11,12
 630 704 630 704 630 348 c 0,13,14
 630 194 630 194 554 100.5 c 128,-1,15
 478 7 478 7 361 -3 c 1,16,17
 386 -89 386 -89 497 -177 c 1,18,-1
 623 -184 l 1,0,1
108 350 m 0,19,20
 108 16 108 16 335 16 c 0,21,22
 433 16 433 16 497.5 105.5 c 128,-1,23
 562 195 562 195 562 350 c 0,24,25
 562 684 562 684 335 684 c 0,26,27
 238 684 238 684 173 594.5 c 128,-1,28
 108 505 108 505 108 350 c 0,19,20
EndSplineSet
EndChar

StartChar: R
Encoding: 82 82 53
Width: 632
GlyphClass: 2
Flags: W
LayerCount: 2
Fore
SplineSet
47 685 m 1,0,-1
 48 700 l 1,1,-1
 291 700 l 2,2,3
 394 700 394 700 450 655 c 128,-1,4
 506 610 506 610 506 521 c 0,5,6
 506 463 506 463 461.5 400 c 128,-1,7
 417 337 417 337 378 319 c 1,8,-1
 563 18 l 1,9,-1
 612 15 l 2,10,11
 612 14 612 14 611 0 c 1,12,-1
 502 -1 l 1,13,-1
 312 307 l 1,14,-1
 179 307 l 1,15,-1
 179 19 l 1,16,-1
 249 15 l 2,17,18
 249 14 249 14 248 0 c 1,19,-1
 47 -1 l 1,20,-1
 48 13 l 1,21,-1
 100 20 l 2,22,23
 107 21 107 21 111 29 c 1,24,-1
 111 669 l 1,25,26
 108 678 108 678 100 679 c 2,27,-1
 47 685 l 1,0,-1
286 685 m 2,28,-1
 179 685 l 1,29,-1
 179 322 l 1,30,-1
 350 322 l 1,31,32
 402 381 402 381 420 426.5 c 128,-1,33
 438 472 438 472 438 515 c 0,34,35
 438 599 438 599 399 642 c 128,-1,36
 360 685 360 685 286 685 c 2,28,-1
EndSplineSet
EndChar

StartChar: S
Encoding: 83 83 54
Width: 527
GlyphClass: 2
Flags: W
LayerCount: 2
Fore
SplineSet
238 19 m 0,0,1
 312 19 312 19 368 62.5 c 128,-1,2
 424 106 424 106 424 195 c 0,3,4
 424 235 424 235 404.5 263.5 c 128,-1,5
 385 292 385 292 353 307.5 c 128,-1,6
 321 323 321 323 283 334.5 c 128,-1,7
 245 346 245 346 207 359 c 128,-1,8
 169 372 169 372 137 390 c 128,-1,9
 105 408 105 408 85.5 441 c 128,-1,10
 66 474 66 474 66 520 c 0,11,12
 66 600 66 600 121 651 c 128,-1,13
 176 702 176 702 268 702 c 128,-1,14
 360 702 360 702 444 681 c 1,15,-1
 455 556 l 1,16,-1
 436 548 l 1,17,-1
 426 627 l 1,18,19
 352 682 352 682 287 682 c 128,-1,20
 222 682 222 682 178 642.5 c 128,-1,21
 134 603 134 603 134 524 c 0,22,23
 134 478 134 478 171 451 c 128,-1,24
 208 424 208 424 260.5 409 c 128,-1,25
 313 394 313 394 365.5 375 c 128,-1,26
 418 356 418 356 455 311 c 128,-1,27
 492 266 492 266 492 194 c 0,28,29
 492 97 492 97 423 48 c 128,-1,30
 354 -1 354 -1 241 -1 c 128,-1,31
 128 -1 128 -1 45 60 c 1,32,-1
 46 166 l 1,33,-1
 65 171 l 1,34,-1
 67 114 l 1,35,36
 94 76 94 76 141 47.5 c 128,-1,37
 188 19 188 19 238 19 c 0,0,1
EndSplineSet
EndChar

StartChar: T
Encoding: 84 84 55
Width: 521
GlyphClass: 2
Flags: W
LayerCount: 2
Fore
SplineSet
227 680 m 1,0,-1
 55 680 l 1,1,-1
 39 548 l 1,2,-1
 20 556 l 1,3,-1
 30 680 l 1,4,-1
 29 680 l 1,5,-1
 31 688 l 1,6,-1
 32 700 l 1,7,-1
 34 699 l 1,8,-1
 34 700 l 1,9,-1
 488 700 l 1,10,-1
 501 556 l 1,11,-1
 481 548 l 1,12,-1
 465 680 l 1,13,-1
 290 680 l 1,14,-1
 290 19 l 1,15,-1
 363 15 l 2,16,17
 363 14 363 14 362 0 c 1,18,-1
 162 -1 l 1,19,20
 162 8 162 8 163 13 c 1,21,-1
 215 20 l 2,22,23
 225 21 225 21 227 33 c 1,24,-1
 227 680 l 1,0,-1
EndSplineSet
EndChar

StartChar: U
Encoding: 85 85 56
Width: 728
GlyphClass: 2
Flags: W
LayerCount: 2
Fore
SplineSet
250 700 m 2,0,1
 250 699 250 699 251 685 c 1,2,-1
 183 679 l 1,3,-1
 183 301 l 2,4,5
 183 127 183 127 244 70 c 0,6,7
 273 42 273 42 303 31.5 c 128,-1,8
 333 21 333 21 373.5 21 c 128,-1,9
 414 21 414 21 447 32 c 128,-1,10
 480 43 480 43 511 72 c 0,11,12
 577 132 577 132 577 301 c 2,13,-1
 577 663 l 1,14,15
 575 676 575 676 565 677 c 2,16,-1
 493 684 l 1,17,18
 492 690 492 690 492 699 c 1,19,-1
 682 700 l 2,20,21
 682 699 682 699 683 685 c 1,22,-1
 600 676 l 1,23,-1
 600 300 l 2,24,25
 600 -4 600 -4 373 -4 c 0,26,27
 318 -4 318 -4 276.5 7.5 c 128,-1,28
 235 19 235 19 196 50 c 0,29,30
 115 113 115 113 115 300 c 2,31,-1
 115 666 l 1,32,33
 111 678 111 678 103 679 c 2,34,-1
 51 684 l 1,35,36
 50 690 50 690 50 699 c 1,37,-1
 250 700 l 2,0,1
EndSplineSet
EndChar

StartChar: V
Encoding: 86 86 57
Width: 668
GlyphClass: 2
Flags: W
LayerCount: 2
Fore
SplineSet
651 700 m 2,0,1
 651 699 651 699 652 685 c 1,2,-1
 589 679 l 1,3,-1
 369 0 l 1,4,-1
 303 0 l 1,5,-1
 75 674 l 1,6,7
 72 678 72 678 67 679 c 2,8,-1
 15 684 l 1,9,10
 14 690 14 690 14 699 c 1,11,-1
 214 700 l 2,12,13
 214 699 214 699 215 685 c 1,14,-1
 141 678 l 1,15,-1
 362 19 l 1,16,-1
 556 654 l 1,17,-1
 557 663 l 1,18,19
 557 675 557 675 548 676 c 2,20,-1
 457 684 l 1,21,22
 456 690 456 690 456 699 c 1,23,-1
 651 700 l 2,0,1
EndSplineSet
PairPos2: "'kern' Horizontal Kerning in Latin lookup 0 per glyph data 1" oe dx=0 dy=0 dh=-97 dv=0 dx=0 dy=0 dh=0 dv=0
PairPos2: "'kern' Horizontal Kerning in Latin lookup 0 per glyph data 1" OE dx=0 dy=0 dh=-70 dv=0 dx=0 dy=0 dh=0 dv=0
PairPos2: "'kern' Horizontal Kerning in Latin lookup 0 per glyph data 1" dotlessi dx=0 dy=0 dh=-60 dv=0 dx=0 dy=0 dh=0 dv=0
PairPos2: "'kern' Horizontal Kerning in Latin lookup 0 per glyph data 1" thorn dx=0 dy=0 dh=-60 dv=0 dx=0 dy=0 dh=0 dv=0
PairPos2: "'kern' Horizontal Kerning in Latin lookup 0 per glyph data 1" oslash dx=0 dy=0 dh=-98 dv=0 dx=0 dy=0 dh=0 dv=0
PairPos2: "'kern' Horizontal Kerning in Latin lookup 0 per glyph data 1" odieresis dx=0 dy=0 dh=-97 dv=0 dx=0 dy=0 dh=0 dv=0
PairPos2: "'kern' Horizontal Kerning in Latin lookup 0 per glyph data 1" otilde dx=0 dy=0 dh=-97 dv=0 dx=0 dy=0 dh=0 dv=0
PairPos2: "'kern' Horizontal Kerning in Latin lookup 0 per glyph data 1" ocircumflex dx=0 dy=0 dh=-97 dv=0 dx=0 dy=0 dh=0 dv=0
PairPos2: "'kern' Horizontal Kerning in Latin lookup 0 per glyph data 1" oacute dx=0 dy=0 dh=-97 dv=0 dx=0 dy=0 dh=0 dv=0
PairPos2: "'kern' Horizontal Kerning in Latin lookup 0 per glyph data 1" ograve dx=0 dy=0 dh=-97 dv=0 dx=0 dy=0 dh=0 dv=0
PairPos2: "'kern' Horizontal Kerning in Latin lookup 0 per glyph data 1" ntilde dx=0 dy=0 dh=-60 dv=0 dx=0 dy=0 dh=0 dv=0
PairPos2: "'kern' Horizontal Kerning in Latin lookup 0 per glyph data 1" eth dx=0 dy=0 dh=-97 dv=0 dx=0 dy=0 dh=0 dv=0
PairPos2: "'kern' Horizontal Kerning in Latin lookup 0 per glyph data 1" idieresis dx=0 dy=0 dh=-60 dv=0 dx=0 dy=0 dh=0 dv=0
PairPos2: "'kern' Horizontal Kerning in Latin lookup 0 per glyph data 1" icircumflex dx=0 dy=0 dh=-60 dv=0 dx=0 dy=0 dh=0 dv=0
PairPos2: "'kern' Horizontal Kerning in Latin lookup 0 per glyph data 1" iacute dx=0 dy=0 dh=-60 dv=0 dx=0 dy=0 dh=0 dv=0
PairPos2: "'kern' Horizontal Kerning in Latin lookup 0 per glyph data 1" igrave dx=0 dy=0 dh=-60 dv=0 dx=0 dy=0 dh=0 dv=0
PairPos2: "'kern' Horizontal Kerning in Latin lookup 0 per glyph data 1" edieresis dx=0 dy=0 dh=-117 dv=0 dx=0 dy=0 dh=0 dv=0
PairPos2: "'kern' Horizontal Kerning in Latin lookup 0 per glyph data 1" ecircumflex dx=0 dy=0 dh=-117 dv=0 dx=0 dy=0 dh=0 dv=0
PairPos2: "'kern' Horizontal Kerning in Latin lookup 0 per glyph data 1" eacute dx=0 dy=0 dh=-117 dv=0 dx=0 dy=0 dh=0 dv=0
PairPos2: "'kern' Horizontal Kerning in Latin lookup 0 per glyph data 1" egrave dx=0 dy=0 dh=-117 dv=0 dx=0 dy=0 dh=0 dv=0
PairPos2: "'kern' Horizontal Kerning in Latin lookup 0 per glyph data 1" ccedilla dx=0 dy=0 dh=-117 dv=0 dx=0 dy=0 dh=0 dv=0
PairPos2: "'kern' Horizontal Kerning in Latin lookup 0 per glyph data 1" ae dx=0 dy=0 dh=-82 dv=0 dx=0 dy=0 dh=0 dv=0
PairPos2: "'kern' Horizontal Kerning in Latin lookup 0 per glyph data 1" aring dx=0 dy=0 dh=-83 dv=0 dx=0 dy=0 dh=0 dv=0
PairPos2: "'kern' Horizontal Kerning in Latin lookup 0 per glyph data 1" adieresis dx=0 dy=0 dh=-83 dv=0 dx=0 dy=0 dh=0 dv=0
PairPos2: "'kern' Horizontal Kerning in Latin lookup 0 per glyph data 1" atilde dx=0 dy=0 dh=-83 dv=0 dx=0 dy=0 dh=0 dv=0
PairPos2: "'kern' Horizontal Kerning in Latin lookup 0 per glyph data 1" acircumflex dx=0 dy=0 dh=-83 dv=0 dx=0 dy=0 dh=0 dv=0
PairPos2: "'kern' Horizontal Kerning in Latin lookup 0 per glyph data 1" aacute dx=0 dy=0 dh=-83 dv=0 dx=0 dy=0 dh=0 dv=0
PairPos2: "'kern' Horizontal Kerning in Latin lookup 0 per glyph data 1" agrave dx=0 dy=0 dh=-83 dv=0 dx=0 dy=0 dh=0 dv=0
PairPos2: "'kern' Horizontal Kerning in Latin lookup 0 per glyph data 1" germandbls dx=0 dy=0 dh=-60 dv=0 dx=0 dy=0 dh=0 dv=0
PairPos2: "'kern' Horizontal Kerning in Latin lookup 0 per glyph data 1" Thorn dx=0 dy=0 dh=-10 dv=0 dx=0 dy=0 dh=0 dv=0
PairPos2: "'kern' Horizontal Kerning in Latin lookup 0 per glyph data 1" Udieresis dx=0 dy=0 dh=-8 dv=0 dx=0 dy=0 dh=0 dv=0
PairPos2: "'kern' Horizontal Kerning in Latin lookup 0 per glyph data 1" Ucircumflex dx=0 dy=0 dh=-8 dv=0 dx=0 dy=0 dh=0 dv=0
PairPos2: "'kern' Horizontal Kerning in Latin lookup 0 per glyph data 1" Uacute dx=0 dy=0 dh=-8 dv=0 dx=0 dy=0 dh=0 dv=0
PairPos2: "'kern' Horizontal Kerning in Latin lookup 0 per glyph data 1" Ugrave dx=0 dy=0 dh=-8 dv=0 dx=0 dy=0 dh=0 dv=0
PairPos2: "'kern' Horizontal Kerning in Latin lookup 0 per glyph data 1" Odieresis dx=0 dy=0 dh=-70 dv=0 dx=0 dy=0 dh=0 dv=0
PairPos2: "'kern' Horizontal Kerning in Latin lookup 0 per glyph data 1" Otilde dx=0 dy=0 dh=-70 dv=0 dx=0 dy=0 dh=0 dv=0
PairPos2: "'kern' Horizontal Kerning in Latin lookup 0 per glyph data 1" Ocircumflex dx=0 dy=0 dh=-70 dv=0 dx=0 dy=0 dh=0 dv=0
PairPos2: "'kern' Horizontal Kerning in Latin lookup 0 per glyph data 1" Oacute dx=0 dy=0 dh=-70 dv=0 dx=0 dy=0 dh=0 dv=0
PairPos2: "'kern' Horizontal Kerning in Latin lookup 0 per glyph data 1" Ograve dx=0 dy=0 dh=-70 dv=0 dx=0 dy=0 dh=0 dv=0
PairPos2: "'kern' Horizontal Kerning in Latin lookup 0 per glyph data 1" Ntilde dx=0 dy=0 dh=-10 dv=0 dx=0 dy=0 dh=0 dv=0
PairPos2: "'kern' Horizontal Kerning in Latin lookup 0 per glyph data 1" Idieresis dx=0 dy=0 dh=-10 dv=0 dx=0 dy=0 dh=0 dv=0
PairPos2: "'kern' Horizontal Kerning in Latin lookup 0 per glyph data 1" Icircumflex dx=0 dy=0 dh=-10 dv=0 dx=0 dy=0 dh=0 dv=0
PairPos2: "'kern' Horizontal Kerning in Latin lookup 0 per glyph data 1" Iacute dx=0 dy=0 dh=-10 dv=0 dx=0 dy=0 dh=0 dv=0
PairPos2: "'kern' Horizontal Kerning in Latin lookup 0 per glyph data 1" Igrave dx=0 dy=0 dh=-10 dv=0 dx=0 dy=0 dh=0 dv=0
PairPos2: "'kern' Horizontal Kerning in Latin lookup 0 per glyph data 1" Edieresis dx=0 dy=0 dh=-10 dv=0 dx=0 dy=0 dh=0 dv=0
PairPos2: "'kern' Horizontal Kerning in Latin lookup 0 per glyph data 1" Ecircumflex dx=0 dy=0 dh=-10 dv=0 dx=0 dy=0 dh=0 dv=0
PairPos2: "'kern' Horizontal Kerning in Latin lookup 0 per glyph data 1" Eacute dx=0 dy=0 dh=-10 dv=0 dx=0 dy=0 dh=0 dv=0
PairPos2: "'kern' Horizontal Kerning in Latin lookup 0 per glyph data 1" Egrave dx=0 dy=0 dh=-10 dv=0 dx=0 dy=0 dh=0 dv=0
PairPos2: "'kern' Horizontal Kerning in Latin lookup 0 per glyph data 1" Ccedilla dx=0 dy=0 dh=-70 dv=0 dx=0 dy=0 dh=0 dv=0
PairPos2: "'kern' Horizontal Kerning in Latin lookup 0 per glyph data 1" AE dx=0 dy=0 dh=-140 dv=0 dx=0 dy=0 dh=0 dv=0
PairPos2: "'kern' Horizontal Kerning in Latin lookup 0 per glyph data 1" Aring dx=0 dy=0 dh=-140 dv=0 dx=0 dy=0 dh=0 dv=0
PairPos2: "'kern' Horizontal Kerning in Latin lookup 0 per glyph data 1" Adieresis dx=0 dy=0 dh=-140 dv=0 dx=0 dy=0 dh=0 dv=0
PairPos2: "'kern' Horizontal Kerning in Latin lookup 0 per glyph data 1" Atilde dx=0 dy=0 dh=-140 dv=0 dx=0 dy=0 dh=0 dv=0
PairPos2: "'kern' Horizontal Kerning in Latin lookup 0 per glyph data 1" Acircumflex dx=0 dy=0 dh=-140 dv=0 dx=0 dy=0 dh=0 dv=0
PairPos2: "'kern' Horizontal Kerning in Latin lookup 0 per glyph data 1" Aacute dx=0 dy=0 dh=-140 dv=0 dx=0 dy=0 dh=0 dv=0
PairPos2: "'kern' Horizontal Kerning in Latin lookup 0 per glyph data 1" Agrave dx=0 dy=0 dh=-140 dv=0 dx=0 dy=0 dh=0 dv=0
PairPos2: "'kern' Horizontal Kerning in Latin lookup 0 per glyph data 1" mu dx=0 dy=0 dh=-60 dv=0 dx=0 dy=0 dh=0 dv=0
PairPos2: "'kern' Horizontal Kerning in Latin lookup 0 per glyph data 1" brokenbar dx=0 dy=0 dh=-60 dv=0 dx=0 dy=0 dh=0 dv=0
PairPos2: "'kern' Horizontal Kerning in Latin lookup 0 per glyph data 1" cent dx=0 dy=0 dh=-117 dv=0 dx=0 dy=0 dh=0 dv=0
PairPos2: "'kern' Horizontal Kerning in Latin lookup 0 per glyph data 1" exclamdown dx=0 dy=0 dh=-60 dv=0 dx=0 dy=0 dh=0 dv=0
PairPos2: "'kern' Horizontal Kerning in Latin lookup 0 per glyph data 1" bar dx=0 dy=0 dh=-60 dv=0 dx=0 dy=0 dh=0 dv=0
PairPos2: "'kern' Horizontal Kerning in Latin lookup 0 per glyph data 1" s dx=0 dy=0 dh=-83 dv=0 dx=0 dy=0 dh=0 dv=0
PairPos2: "'kern' Horizontal Kerning in Latin lookup 0 per glyph data 1" r dx=0 dy=0 dh=-60 dv=0 dx=0 dy=0 dh=0 dv=0
PairPos2: "'kern' Horizontal Kerning in Latin lookup 0 per glyph data 1" q dx=0 dy=0 dh=-117 dv=0 dx=0 dy=0 dh=0 dv=0
PairPos2: "'kern' Horizontal Kerning in Latin lookup 0 per glyph data 1" p dx=0 dy=0 dh=-60 dv=0 dx=0 dy=0 dh=0 dv=0
PairPos2: "'kern' Horizontal Kerning in Latin lookup 0 per glyph data 1" o dx=0 dy=0 dh=-97 dv=0 dx=0 dy=0 dh=0 dv=0
PairPos2: "'kern' Horizontal Kerning in Latin lookup 0 per glyph data 1" n dx=0 dy=0 dh=-60 dv=0 dx=0 dy=0 dh=0 dv=0
PairPos2: "'kern' Horizontal Kerning in Latin lookup 0 per glyph data 1" m dx=0 dy=0 dh=-60 dv=0 dx=0 dy=0 dh=0 dv=0
PairPos2: "'kern' Horizontal Kerning in Latin lookup 0 per glyph data 1" l dx=0 dy=0 dh=-60 dv=0 dx=0 dy=0 dh=0 dv=0
PairPos2: "'kern' Horizontal Kerning in Latin lookup 0 per glyph data 1" k dx=0 dy=0 dh=-60 dv=0 dx=0 dy=0 dh=0 dv=0
PairPos2: "'kern' Horizontal Kerning in Latin lookup 0 per glyph data 1" j dx=0 dy=0 dh=-60 dv=0 dx=0 dy=0 dh=0 dv=0
PairPos2: "'kern' Horizontal Kerning in Latin lookup 0 per glyph data 1" i dx=0 dy=0 dh=-60 dv=0 dx=0 dy=0 dh=0 dv=0
PairPos2: "'kern' Horizontal Kerning in Latin lookup 0 per glyph data 1" h dx=0 dy=0 dh=-60 dv=0 dx=0 dy=0 dh=0 dv=0
PairPos2: "'kern' Horizontal Kerning in Latin lookup 0 per glyph data 1" f dx=0 dy=0 dh=-60 dv=0 dx=0 dy=0 dh=0 dv=0
PairPos2: "'kern' Horizontal Kerning in Latin lookup 0 per glyph data 1" e dx=0 dy=0 dh=-117 dv=0 dx=0 dy=0 dh=0 dv=0
PairPos2: "'kern' Horizontal Kerning in Latin lookup 0 per glyph data 1" d dx=0 dy=0 dh=-117 dv=0 dx=0 dy=0 dh=0 dv=0
PairPos2: "'kern' Horizontal Kerning in Latin lookup 0 per glyph data 1" c dx=0 dy=0 dh=-117 dv=0 dx=0 dy=0 dh=0 dv=0
PairPos2: "'kern' Horizontal Kerning in Latin lookup 0 per glyph data 1" b dx=0 dy=0 dh=-60 dv=0 dx=0 dy=0 dh=0 dv=0
PairPos2: "'kern' Horizontal Kerning in Latin lookup 0 per glyph data 1" a dx=0 dy=0 dh=-83 dv=0 dx=0 dy=0 dh=0 dv=0
PairPos2: "'kern' Horizontal Kerning in Latin lookup 0 per glyph data 1" bracketright dx=0 dy=0 dh=-60 dv=0 dx=0 dy=0 dh=0 dv=0
PairPos2: "'kern' Horizontal Kerning in Latin lookup 0 per glyph data 1" bracketleft dx=0 dy=0 dh=-60 dv=0 dx=0 dy=0 dh=0 dv=0
PairPos2: "'kern' Horizontal Kerning in Latin lookup 0 per glyph data 1" U dx=0 dy=0 dh=-8 dv=0 dx=0 dy=0 dh=0 dv=0
PairPos2: "'kern' Horizontal Kerning in Latin lookup 0 per glyph data 1" S dx=0 dy=0 dh=-30 dv=0 dx=0 dy=0 dh=0 dv=0
PairPos2: "'kern' Horizontal Kerning in Latin lookup 0 per glyph data 1" R dx=0 dy=0 dh=-10 dv=0 dx=0 dy=0 dh=0 dv=0
PairPos2: "'kern' Horizontal Kerning in Latin lookup 0 per glyph data 1" Q dx=0 dy=0 dh=-70 dv=0 dx=0 dy=0 dh=0 dv=0
PairPos2: "'kern' Horizontal Kerning in Latin lookup 0 per glyph data 1" P dx=0 dy=0 dh=-10 dv=0 dx=0 dy=0 dh=0 dv=0
PairPos2: "'kern' Horizontal Kerning in Latin lookup 0 per glyph data 1" O dx=0 dy=0 dh=-70 dv=0 dx=0 dy=0 dh=0 dv=0
PairPos2: "'kern' Horizontal Kerning in Latin lookup 0 per glyph data 1" N dx=0 dy=0 dh=-10 dv=0 dx=0 dy=0 dh=0 dv=0
PairPos2: "'kern' Horizontal Kerning in Latin lookup 0 per glyph data 1" M dx=0 dy=0 dh=-10 dv=0 dx=0 dy=0 dh=0 dv=0
PairPos2: "'kern' Horizontal Kerning in Latin lookup 0 per glyph data 1" L dx=0 dy=0 dh=-10 dv=0 dx=0 dy=0 dh=0 dv=0
PairPos2: "'kern' Horizontal Kerning in Latin lookup 0 per glyph data 1" K dx=0 dy=0 dh=-10 dv=0 dx=0 dy=0 dh=0 dv=0
PairPos2: "'kern' Horizontal Kerning in Latin lookup 0 per glyph data 1" J dx=0 dy=0 dh=-10 dv=0 dx=0 dy=0 dh=0 dv=0
PairPos2: "'kern' Horizontal Kerning in Latin lookup 0 per glyph data 1" I dx=0 dy=0 dh=-10 dv=0 dx=0 dy=0 dh=0 dv=0
PairPos2: "'kern' Horizontal Kerning in Latin lookup 0 per glyph data 1" H dx=0 dy=0 dh=-10 dv=0 dx=0 dy=0 dh=0 dv=0
PairPos2: "'kern' Horizontal Kerning in Latin lookup 0 per glyph data 1" G dx=0 dy=0 dh=-70 dv=0 dx=0 dy=0 dh=0 dv=0
PairPos2: "'kern' Horizontal Kerning in Latin lookup 0 per glyph data 1" F dx=0 dy=0 dh=-10 dv=0 dx=0 dy=0 dh=0 dv=0
PairPos2: "'kern' Horizontal Kerning in Latin lookup 0 per glyph data 1" E dx=0 dy=0 dh=-10 dv=0 dx=0 dy=0 dh=0 dv=0
PairPos2: "'kern' Horizontal Kerning in Latin lookup 0 per glyph data 1" D dx=0 dy=0 dh=-10 dv=0 dx=0 dy=0 dh=0 dv=0
PairPos2: "'kern' Horizontal Kerning in Latin lookup 0 per glyph data 1" C dx=0 dy=0 dh=-70 dv=0 dx=0 dy=0 dh=0 dv=0
PairPos2: "'kern' Horizontal Kerning in Latin lookup 0 per glyph data 1" B dx=0 dy=0 dh=-10 dv=0 dx=0 dy=0 dh=0 dv=0
PairPos2: "'kern' Horizontal Kerning in Latin lookup 0 per glyph data 1" A dx=0 dy=0 dh=-140 dv=0 dx=0 dy=0 dh=0 dv=0
PairPos2: "'kern' Horizontal Kerning in Latin lookup 0 per glyph data 1" one dx=0 dy=0 dh=-60 dv=0 dx=0 dy=0 dh=0 dv=0
PairPos2: "'kern' Horizontal Kerning in Latin lookup 0 per glyph data 1" parenright dx=0 dy=0 dh=-60 dv=0 dx=0 dy=0 dh=0 dv=0
PairPos2: "'kern' Horizontal Kerning in Latin lookup 0 per glyph data 1" parenleft dx=0 dy=0 dh=-60 dv=0 dx=0 dy=0 dh=0 dv=0
PairPos2: "'kern' Horizontal Kerning in Latin lookup 0 per glyph data 1" exclam dx=0 dy=0 dh=-60 dv=0 dx=0 dy=0 dh=0 dv=0
EndChar

StartChar: W
Encoding: 87 87 58
Width: 969
GlyphClass: 2
Flags: W
LayerCount: 2
Fore
SplineSet
216 700 m 2,0,1
 216 699 216 699 217 685 c 1,2,-1
 139 678 l 1,3,-1
 305 26 l 1,4,-1
 491 700 l 1,5,-1
 506 700 l 1,6,-1
 503 692 l 1,7,-1
 507 700 l 1,8,-1
 683 24 l 1,9,-1
 859 665 l 1,10,11
 859 675 859 675 850 676 c 2,12,-1
 756 684 l 1,13,-1
 755 699 l 1,14,-1
 951 700 l 2,15,16
 951 699 951 699 952 685 c 1,17,-1
 887 679 l 1,18,-1
 689 0 l 1,19,-1
 628 0 l 1,20,-1
 477 597 l 1,21,-1
 312 0 l 1,22,-1
 250 0 l 1,23,-1
 78 671 l 1,24,25
 75 678 75 678 68 679 c 2,26,-1
 16 684 l 1,27,-1
 15 699 l 1,28,-1
 216 700 l 2,0,1
EndSplineSet
EndChar

StartChar: X
Encoding: 88 88 59
Width: 612
GlyphClass: 2
Flags: W
LayerCount: 2
Fore
SplineSet
20 -1 m 1,0,-1
 21 13 l 1,1,-1
 93 22 l 2,2,3
 103 23 103 23 109 35 c 2,4,-1
 278 340 l 1,5,-1
 87 666 l 1,6,-1
 82 673 l 1,7,8
 81 677 81 677 73 679 c 1,9,-1
 28 684 l 1,10,-1
 27 699 l 1,11,-1
 215 700 l 2,12,13
 215 699 215 699 216 685 c 1,14,-1
 151 679 l 1,15,-1
 320 380 l 1,16,-1
 471 664 l 2,17,18
 472 667 472 667 469.5 671 c 128,-1,19
 467 675 467 675 463 676 c 2,20,-1
 378 684 l 1,21,-1
 377 699 l 1,22,-1
 559 700 l 2,23,24
 559 699 559 699 560 685 c 1,25,-1
 507 680 l 1,26,-1
 329 363 l 1,27,-1
 531 19 l 1,28,-1
 592 15 l 2,29,30
 592 14 592 14 591 0 c 1,31,-1
 391 -1 l 1,32,33
 391 8 391 8 392 13 c 1,34,-1
 440 20 l 2,35,36
 446 21 446 21 450 25 c 128,-1,37
 454 29 454 29 451 33 c 2,38,-1
 288 322 l 1,39,-1
 128 21 l 1,40,-1
 213 15 l 2,41,42
 213 14 213 14 212 0 c 1,43,-1
 20 -1 l 1,0,-1
EndSplineSet
EndChar

StartChar: Y
Encoding: 89 89 60
Width: 645
GlyphClass: 2
Flags: W
LayerCount: 2
Fore
SplineSet
629 700 m 2,0,1
 629 699 629 699 630 685 c 1,2,-1
 573 680 l 1,3,-1
 359 236 l 1,4,-1
 359 19 l 1,5,-1
 432 15 l 2,6,7
 432 14 432 14 431 0 c 1,8,-1
 231 -1 l 1,9,10
 231 8 231 8 232 13 c 1,11,-1
 284 20 l 2,12,13
 294 21 294 21 296 33 c 1,14,-1
 296 236 l 1,15,-1
 71 675 l 1,16,17
 67 678 67 678 63 680 c 1,18,-1
 21 684 l 1,19,20
 20 690 20 690 20 699 c 1,21,-1
 222 700 l 2,22,23
 222 699 222 699 223 685 c 1,24,-1
 141 678 l 1,25,-1
 348 253 l 1,26,-1
 535 663 l 1,27,28
 535 675 535 675 526 676 c 2,29,-1
 435 684 l 1,30,31
 434 690 434 690 434 699 c 1,32,-1
 629 700 l 2,0,1
EndSplineSet
EndChar

StartChar: Z
Encoding: 90 90 61
Width: 577
GlyphClass: 2
Flags: W
LayerCount: 2
Fore
SplineSet
35 0 m 1,0,-1
 25 15 l 1,1,-1
 418 685 l 1,2,-1
 75 685 l 1,3,-1
 58 548 l 1,4,-1
 38 556 l 1,5,-1
 51 700 l 1,6,-1
 486 700 l 1,7,-1
 496 685 l 1,8,-1
 102 15 l 1,9,-1
 513 15 l 1,10,-1
 533 180 l 1,11,-1
 552 175 l 1,12,-1
 537 0 l 1,13,-1
 35 0 l 1,0,-1
EndSplineSet
PairPos2: "'kern' Horizontal Kerning in Latin lookup 0 per glyph data 1" Ydieresis dx=0 dy=0 dh=-22 dv=0 dx=0 dy=0 dh=0 dv=0
PairPos2: "'kern' Horizontal Kerning in Latin lookup 0 per glyph data 1" oe dx=0 dy=0 dh=-49 dv=0 dx=0 dy=0 dh=0 dv=0
PairPos2: "'kern' Horizontal Kerning in Latin lookup 0 per glyph data 1" OE dx=0 dy=0 dh=-36 dv=0 dx=0 dy=0 dh=0 dv=0
PairPos2: "'kern' Horizontal Kerning in Latin lookup 0 per glyph data 1" dotlessi dx=0 dy=0 dh=-10 dv=0 dx=0 dy=0 dh=0 dv=0
PairPos2: "'kern' Horizontal Kerning in Latin lookup 0 per glyph data 1" ydieresis dx=0 dy=0 dh=-42 dv=0 dx=0 dy=0 dh=0 dv=0
PairPos2: "'kern' Horizontal Kerning in Latin lookup 0 per glyph data 1" thorn dx=0 dy=0 dh=-10 dv=0 dx=0 dy=0 dh=0 dv=0
PairPos2: "'kern' Horizontal Kerning in Latin lookup 0 per glyph data 1" yacute dx=0 dy=0 dh=-42 dv=0 dx=0 dy=0 dh=0 dv=0
PairPos2: "'kern' Horizontal Kerning in Latin lookup 0 per glyph data 1" udieresis dx=0 dy=0 dh=-20 dv=0 dx=0 dy=0 dh=0 dv=0
PairPos2: "'kern' Horizontal Kerning in Latin lookup 0 per glyph data 1" ucircumflex dx=0 dy=0 dh=-20 dv=0 dx=0 dy=0 dh=0 dv=0
PairPos2: "'kern' Horizontal Kerning in Latin lookup 0 per glyph data 1" uacute dx=0 dy=0 dh=-20 dv=0 dx=0 dy=0 dh=0 dv=0
PairPos2: "'kern' Horizontal Kerning in Latin lookup 0 per glyph data 1" ugrave dx=0 dy=0 dh=-20 dv=0 dx=0 dy=0 dh=0 dv=0
PairPos2: "'kern' Horizontal Kerning in Latin lookup 0 per glyph data 1" odieresis dx=0 dy=0 dh=-49 dv=0 dx=0 dy=0 dh=0 dv=0
PairPos2: "'kern' Horizontal Kerning in Latin lookup 0 per glyph data 1" otilde dx=0 dy=0 dh=-49 dv=0 dx=0 dy=0 dh=0 dv=0
PairPos2: "'kern' Horizontal Kerning in Latin lookup 0 per glyph data 1" ocircumflex dx=0 dy=0 dh=-49 dv=0 dx=0 dy=0 dh=0 dv=0
PairPos2: "'kern' Horizontal Kerning in Latin lookup 0 per glyph data 1" oacute dx=0 dy=0 dh=-49 dv=0 dx=0 dy=0 dh=0 dv=0
PairPos2: "'kern' Horizontal Kerning in Latin lookup 0 per glyph data 1" ograve dx=0 dy=0 dh=-49 dv=0 dx=0 dy=0 dh=0 dv=0
PairPos2: "'kern' Horizontal Kerning in Latin lookup 0 per glyph data 1" ntilde dx=0 dy=0 dh=-10 dv=0 dx=0 dy=0 dh=0 dv=0
PairPos2: "'kern' Horizontal Kerning in Latin lookup 0 per glyph data 1" eth dx=0 dy=0 dh=-49 dv=0 dx=0 dy=0 dh=0 dv=0
PairPos2: "'kern' Horizontal Kerning in Latin lookup 0 per glyph data 1" idieresis dx=0 dy=0 dh=-10 dv=0 dx=0 dy=0 dh=0 dv=0
PairPos2: "'kern' Horizontal Kerning in Latin lookup 0 per glyph data 1" icircumflex dx=0 dy=0 dh=-10 dv=0 dx=0 dy=0 dh=0 dv=0
PairPos2: "'kern' Horizontal Kerning in Latin lookup 0 per glyph data 1" iacute dx=0 dy=0 dh=-10 dv=0 dx=0 dy=0 dh=0 dv=0
PairPos2: "'kern' Horizontal Kerning in Latin lookup 0 per glyph data 1" igrave dx=0 dy=0 dh=-10 dv=0 dx=0 dy=0 dh=0 dv=0
PairPos2: "'kern' Horizontal Kerning in Latin lookup 0 per glyph data 1" edieresis dx=0 dy=0 dh=-48 dv=0 dx=0 dy=0 dh=0 dv=0
PairPos2: "'kern' Horizontal Kerning in Latin lookup 0 per glyph data 1" ecircumflex dx=0 dy=0 dh=-48 dv=0 dx=0 dy=0 dh=0 dv=0
PairPos2: "'kern' Horizontal Kerning in Latin lookup 0 per glyph data 1" eacute dx=0 dy=0 dh=-48 dv=0 dx=0 dy=0 dh=0 dv=0
PairPos2: "'kern' Horizontal Kerning in Latin lookup 0 per glyph data 1" egrave dx=0 dy=0 dh=-48 dv=0 dx=0 dy=0 dh=0 dv=0
PairPos2: "'kern' Horizontal Kerning in Latin lookup 0 per glyph data 1" ccedilla dx=0 dy=0 dh=-48 dv=0 dx=0 dy=0 dh=0 dv=0
PairPos2: "'kern' Horizontal Kerning in Latin lookup 0 per glyph data 1" aring dx=0 dy=0 dh=-8 dv=0 dx=0 dy=0 dh=0 dv=0
PairPos2: "'kern' Horizontal Kerning in Latin lookup 0 per glyph data 1" adieresis dx=0 dy=0 dh=-8 dv=0 dx=0 dy=0 dh=0 dv=0
PairPos2: "'kern' Horizontal Kerning in Latin lookup 0 per glyph data 1" atilde dx=0 dy=0 dh=-8 dv=0 dx=0 dy=0 dh=0 dv=0
PairPos2: "'kern' Horizontal Kerning in Latin lookup 0 per glyph data 1" acircumflex dx=0 dy=0 dh=-8 dv=0 dx=0 dy=0 dh=0 dv=0
PairPos2: "'kern' Horizontal Kerning in Latin lookup 0 per glyph data 1" aacute dx=0 dy=0 dh=-8 dv=0 dx=0 dy=0 dh=0 dv=0
PairPos2: "'kern' Horizontal Kerning in Latin lookup 0 per glyph data 1" agrave dx=0 dy=0 dh=-8 dv=0 dx=0 dy=0 dh=0 dv=0
PairPos2: "'kern' Horizontal Kerning in Latin lookup 0 per glyph data 1" germandbls dx=0 dy=0 dh=-10 dv=0 dx=0 dy=0 dh=0 dv=0
PairPos2: "'kern' Horizontal Kerning in Latin lookup 0 per glyph data 1" Thorn dx=0 dy=0 dh=-15 dv=0 dx=0 dy=0 dh=0 dv=0
PairPos2: "'kern' Horizontal Kerning in Latin lookup 0 per glyph data 1" Yacute dx=0 dy=0 dh=-22 dv=0 dx=0 dy=0 dh=0 dv=0
PairPos2: "'kern' Horizontal Kerning in Latin lookup 0 per glyph data 1" Udieresis dx=0 dy=0 dh=-29 dv=0 dx=0 dy=0 dh=0 dv=0
PairPos2: "'kern' Horizontal Kerning in Latin lookup 0 per glyph data 1" Ucircumflex dx=0 dy=0 dh=-29 dv=0 dx=0 dy=0 dh=0 dv=0
PairPos2: "'kern' Horizontal Kerning in Latin lookup 0 per glyph data 1" Uacute dx=0 dy=0 dh=-29 dv=0 dx=0 dy=0 dh=0 dv=0
PairPos2: "'kern' Horizontal Kerning in Latin lookup 0 per glyph data 1" Ugrave dx=0 dy=0 dh=-29 dv=0 dx=0 dy=0 dh=0 dv=0
PairPos2: "'kern' Horizontal Kerning in Latin lookup 0 per glyph data 1" Odieresis dx=0 dy=0 dh=-36 dv=0 dx=0 dy=0 dh=0 dv=0
PairPos2: "'kern' Horizontal Kerning in Latin lookup 0 per glyph data 1" Otilde dx=0 dy=0 dh=-36 dv=0 dx=0 dy=0 dh=0 dv=0
PairPos2: "'kern' Horizontal Kerning in Latin lookup 0 per glyph data 1" Ocircumflex dx=0 dy=0 dh=-36 dv=0 dx=0 dy=0 dh=0 dv=0
PairPos2: "'kern' Horizontal Kerning in Latin lookup 0 per glyph data 1" Oacute dx=0 dy=0 dh=-36 dv=0 dx=0 dy=0 dh=0 dv=0
PairPos2: "'kern' Horizontal Kerning in Latin lookup 0 per glyph data 1" Ograve dx=0 dy=0 dh=-36 dv=0 dx=0 dy=0 dh=0 dv=0
PairPos2: "'kern' Horizontal Kerning in Latin lookup 0 per glyph data 1" Ntilde dx=0 dy=0 dh=-15 dv=0 dx=0 dy=0 dh=0 dv=0
PairPos2: "'kern' Horizontal Kerning in Latin lookup 0 per glyph data 1" Idieresis dx=0 dy=0 dh=-15 dv=0 dx=0 dy=0 dh=0 dv=0
PairPos2: "'kern' Horizontal Kerning in Latin lookup 0 per glyph data 1" Icircumflex dx=0 dy=0 dh=-15 dv=0 dx=0 dy=0 dh=0 dv=0
PairPos2: "'kern' Horizontal Kerning in Latin lookup 0 per glyph data 1" Iacute dx=0 dy=0 dh=-15 dv=0 dx=0 dy=0 dh=0 dv=0
PairPos2: "'kern' Horizontal Kerning in Latin lookup 0 per glyph data 1" Igrave dx=0 dy=0 dh=-15 dv=0 dx=0 dy=0 dh=0 dv=0
PairPos2: "'kern' Horizontal Kerning in Latin lookup 0 per glyph data 1" Edieresis dx=0 dy=0 dh=-15 dv=0 dx=0 dy=0 dh=0 dv=0
PairPos2: "'kern' Horizontal Kerning in Latin lookup 0 per glyph data 1" Ecircumflex dx=0 dy=0 dh=-15 dv=0 dx=0 dy=0 dh=0 dv=0
PairPos2: "'kern' Horizontal Kerning in Latin lookup 0 per glyph data 1" Eacute dx=0 dy=0 dh=-15 dv=0 dx=0 dy=0 dh=0 dv=0
PairPos2: "'kern' Horizontal Kerning in Latin lookup 0 per glyph data 1" Egrave dx=0 dy=0 dh=-15 dv=0 dx=0 dy=0 dh=0 dv=0
PairPos2: "'kern' Horizontal Kerning in Latin lookup 0 per glyph data 1" Ccedilla dx=0 dy=0 dh=-36 dv=0 dx=0 dy=0 dh=0 dv=0
PairPos2: "'kern' Horizontal Kerning in Latin lookup 0 per glyph data 1" AE dx=0 dy=0 dh=-5 dv=0 dx=0 dy=0 dh=0 dv=0
PairPos2: "'kern' Horizontal Kerning in Latin lookup 0 per glyph data 1" Aring dx=0 dy=0 dh=-5 dv=0 dx=0 dy=0 dh=0 dv=0
PairPos2: "'kern' Horizontal Kerning in Latin lookup 0 per glyph data 1" Adieresis dx=0 dy=0 dh=-5 dv=0 dx=0 dy=0 dh=0 dv=0
PairPos2: "'kern' Horizontal Kerning in Latin lookup 0 per glyph data 1" Atilde dx=0 dy=0 dh=-5 dv=0 dx=0 dy=0 dh=0 dv=0
PairPos2: "'kern' Horizontal Kerning in Latin lookup 0 per glyph data 1" Acircumflex dx=0 dy=0 dh=-5 dv=0 dx=0 dy=0 dh=0 dv=0
PairPos2: "'kern' Horizontal Kerning in Latin lookup 0 per glyph data 1" Aacute dx=0 dy=0 dh=-5 dv=0 dx=0 dy=0 dh=0 dv=0
PairPos2: "'kern' Horizontal Kerning in Latin lookup 0 per glyph data 1" Agrave dx=0 dy=0 dh=-5 dv=0 dx=0 dy=0 dh=0 dv=0
PairPos2: "'kern' Horizontal Kerning in Latin lookup 0 per glyph data 1" mu dx=0 dy=0 dh=-10 dv=0 dx=0 dy=0 dh=0 dv=0
PairPos2: "'kern' Horizontal Kerning in Latin lookup 0 per glyph data 1" brokenbar dx=0 dy=0 dh=-10 dv=0 dx=0 dy=0 dh=0 dv=0
PairPos2: "'kern' Horizontal Kerning in Latin lookup 0 per glyph data 1" cent dx=0 dy=0 dh=-48 dv=0 dx=0 dy=0 dh=0 dv=0
PairPos2: "'kern' Horizontal Kerning in Latin lookup 0 per glyph data 1" exclamdown dx=0 dy=0 dh=-10 dv=0 dx=0 dy=0 dh=0 dv=0
PairPos2: "'kern' Horizontal Kerning in Latin lookup 0 per glyph data 1" bar dx=0 dy=0 dh=-10 dv=0 dx=0 dy=0 dh=0 dv=0
PairPos2: "'kern' Horizontal Kerning in Latin lookup 0 per glyph data 1" y dx=0 dy=0 dh=-42 dv=0 dx=0 dy=0 dh=0 dv=0
PairPos2: "'kern' Horizontal Kerning in Latin lookup 0 per glyph data 1" w dx=0 dy=0 dh=-52 dv=0 dx=0 dy=0 dh=0 dv=0
PairPos2: "'kern' Horizontal Kerning in Latin lookup 0 per glyph data 1" u dx=0 dy=0 dh=-20 dv=0 dx=0 dy=0 dh=0 dv=0
PairPos2: "'kern' Horizontal Kerning in Latin lookup 0 per glyph data 1" t dx=0 dy=0 dh=-20 dv=0 dx=0 dy=0 dh=0 dv=0
PairPos2: "'kern' Horizontal Kerning in Latin lookup 0 per glyph data 1" r dx=0 dy=0 dh=-10 dv=0 dx=0 dy=0 dh=0 dv=0
PairPos2: "'kern' Horizontal Kerning in Latin lookup 0 per glyph data 1" q dx=0 dy=0 dh=-48 dv=0 dx=0 dy=0 dh=0 dv=0
PairPos2: "'kern' Horizontal Kerning in Latin lookup 0 per glyph data 1" p dx=0 dy=0 dh=-10 dv=0 dx=0 dy=0 dh=0 dv=0
PairPos2: "'kern' Horizontal Kerning in Latin lookup 0 per glyph data 1" o dx=0 dy=0 dh=-49 dv=0 dx=0 dy=0 dh=0 dv=0
PairPos2: "'kern' Horizontal Kerning in Latin lookup 0 per glyph data 1" n dx=0 dy=0 dh=-10 dv=0 dx=0 dy=0 dh=0 dv=0
PairPos2: "'kern' Horizontal Kerning in Latin lookup 0 per glyph data 1" m dx=0 dy=0 dh=-10 dv=0 dx=0 dy=0 dh=0 dv=0
PairPos2: "'kern' Horizontal Kerning in Latin lookup 0 per glyph data 1" l dx=0 dy=0 dh=-10 dv=0 dx=0 dy=0 dh=0 dv=0
PairPos2: "'kern' Horizontal Kerning in Latin lookup 0 per glyph data 1" k dx=0 dy=0 dh=-10 dv=0 dx=0 dy=0 dh=0 dv=0
PairPos2: "'kern' Horizontal Kerning in Latin lookup 0 per glyph data 1" j dx=0 dy=0 dh=-10 dv=0 dx=0 dy=0 dh=0 dv=0
PairPos2: "'kern' Horizontal Kerning in Latin lookup 0 per glyph data 1" i dx=0 dy=0 dh=-10 dv=0 dx=0 dy=0 dh=0 dv=0
PairPos2: "'kern' Horizontal Kerning in Latin lookup 0 per glyph data 1" h dx=0 dy=0 dh=-10 dv=0 dx=0 dy=0 dh=0 dv=0
PairPos2: "'kern' Horizontal Kerning in Latin lookup 0 per glyph data 1" f dx=0 dy=0 dh=-10 dv=0 dx=0 dy=0 dh=0 dv=0
PairPos2: "'kern' Horizontal Kerning in Latin lookup 0 per glyph data 1" e dx=0 dy=0 dh=-48 dv=0 dx=0 dy=0 dh=0 dv=0
PairPos2: "'kern' Horizontal Kerning in Latin lookup 0 per glyph data 1" d dx=0 dy=0 dh=-48 dv=0 dx=0 dy=0 dh=0 dv=0
PairPos2: "'kern' Horizontal Kerning in Latin lookup 0 per glyph data 1" c dx=0 dy=0 dh=-48 dv=0 dx=0 dy=0 dh=0 dv=0
PairPos2: "'kern' Horizontal Kerning in Latin lookup 0 per glyph data 1" b dx=0 dy=0 dh=-10 dv=0 dx=0 dy=0 dh=0 dv=0
PairPos2: "'kern' Horizontal Kerning in Latin lookup 0 per glyph data 1" a dx=0 dy=0 dh=-8 dv=0 dx=0 dy=0 dh=0 dv=0
PairPos2: "'kern' Horizontal Kerning in Latin lookup 0 per glyph data 1" bracketright dx=0 dy=0 dh=-10 dv=0 dx=0 dy=0 dh=0 dv=0
PairPos2: "'kern' Horizontal Kerning in Latin lookup 0 per glyph data 1" bracketleft dx=0 dy=0 dh=-10 dv=0 dx=0 dy=0 dh=0 dv=0
PairPos2: "'kern' Horizontal Kerning in Latin lookup 0 per glyph data 1" Y dx=0 dy=0 dh=-22 dv=0 dx=0 dy=0 dh=0 dv=0
PairPos2: "'kern' Horizontal Kerning in Latin lookup 0 per glyph data 1" W dx=0 dy=0 dh=-20 dv=0 dx=0 dy=0 dh=0 dv=0
PairPos2: "'kern' Horizontal Kerning in Latin lookup 0 per glyph data 1" U dx=0 dy=0 dh=-29 dv=0 dx=0 dy=0 dh=0 dv=0
PairPos2: "'kern' Horizontal Kerning in Latin lookup 0 per glyph data 1" T dx=0 dy=0 dh=-15 dv=0 dx=0 dy=0 dh=0 dv=0
PairPos2: "'kern' Horizontal Kerning in Latin lookup 0 per glyph data 1" R dx=0 dy=0 dh=-15 dv=0 dx=0 dy=0 dh=0 dv=0
PairPos2: "'kern' Horizontal Kerning in Latin lookup 0 per glyph data 1" Q dx=0 dy=0 dh=-36 dv=0 dx=0 dy=0 dh=0 dv=0
PairPos2: "'kern' Horizontal Kerning in Latin lookup 0 per glyph data 1" P dx=0 dy=0 dh=-15 dv=0 dx=0 dy=0 dh=0 dv=0
PairPos2: "'kern' Horizontal Kerning in Latin lookup 0 per glyph data 1" O dx=0 dy=0 dh=-36 dv=0 dx=0 dy=0 dh=0 dv=0
PairPos2: "'kern' Horizontal Kerning in Latin lookup 0 per glyph data 1" N dx=0 dy=0 dh=-15 dv=0 dx=0 dy=0 dh=0 dv=0
PairPos2: "'kern' Horizontal Kerning in Latin lookup 0 per glyph data 1" M dx=0 dy=0 dh=-15 dv=0 dx=0 dy=0 dh=0 dv=0
PairPos2: "'kern' Horizontal Kerning in Latin lookup 0 per glyph data 1" L dx=0 dy=0 dh=-15 dv=0 dx=0 dy=0 dh=0 dv=0
PairPos2: "'kern' Horizontal Kerning in Latin lookup 0 per glyph data 1" K dx=0 dy=0 dh=-15 dv=0 dx=0 dy=0 dh=0 dv=0
PairPos2: "'kern' Horizontal Kerning in Latin lookup 0 per glyph data 1" J dx=0 dy=0 dh=-15 dv=0 dx=0 dy=0 dh=0 dv=0
PairPos2: "'kern' Horizontal Kerning in Latin lookup 0 per glyph data 1" I dx=0 dy=0 dh=-15 dv=0 dx=0 dy=0 dh=0 dv=0
PairPos2: "'kern' Horizontal Kerning in Latin lookup 0 per glyph data 1" H dx=0 dy=0 dh=-15 dv=0 dx=0 dy=0 dh=0 dv=0
PairPos2: "'kern' Horizontal Kerning in Latin lookup 0 per glyph data 1" G dx=0 dy=0 dh=-36 dv=0 dx=0 dy=0 dh=0 dv=0
PairPos2: "'kern' Horizontal Kerning in Latin lookup 0 per glyph data 1" F dx=0 dy=0 dh=-15 dv=0 dx=0 dy=0 dh=0 dv=0
PairPos2: "'kern' Horizontal Kerning in Latin lookup 0 per glyph data 1" E dx=0 dy=0 dh=-15 dv=0 dx=0 dy=0 dh=0 dv=0
PairPos2: "'kern' Horizontal Kerning in Latin lookup 0 per glyph data 1" D dx=0 dy=0 dh=-15 dv=0 dx=0 dy=0 dh=0 dv=0
PairPos2: "'kern' Horizontal Kerning in Latin lookup 0 per glyph data 1" C dx=0 dy=0 dh=-36 dv=0 dx=0 dy=0 dh=0 dv=0
PairPos2: "'kern' Horizontal Kerning in Latin lookup 0 per glyph data 1" B dx=0 dy=0 dh=-15 dv=0 dx=0 dy=0 dh=0 dv=0
PairPos2: "'kern' Horizontal Kerning in Latin lookup 0 per glyph data 1" A dx=0 dy=0 dh=-5 dv=0 dx=0 dy=0 dh=0 dv=0
PairPos2: "'kern' Horizontal Kerning in Latin lookup 0 per glyph data 1" one dx=0 dy=0 dh=-10 dv=0 dx=0 dy=0 dh=0 dv=0
PairPos2: "'kern' Horizontal Kerning in Latin lookup 0 per glyph data 1" parenright dx=0 dy=0 dh=-10 dv=0 dx=0 dy=0 dh=0 dv=0
PairPos2: "'kern' Horizontal Kerning in Latin lookup 0 per glyph data 1" parenleft dx=0 dy=0 dh=-10 dv=0 dx=0 dy=0 dh=0 dv=0
PairPos2: "'kern' Horizontal Kerning in Latin lookup 0 per glyph data 1" exclam dx=0 dy=0 dh=-10 dv=0 dx=0 dy=0 dh=0 dv=0
EndChar

StartChar: bracketleft
Encoding: 91 91 62
Width: 430
GlyphClass: 2
Flags: W
LayerCount: 2
Fore
SplineSet
107 -200 m 1,0,-1
 107 750 l 1,1,-1
 300 750 l 1,2,-1
 300 732 l 1,3,-1
 172 732 l 1,4,-1
 172 -182 l 1,5,-1
 300 -182 l 1,6,-1
 300 -200 l 1,7,-1
 107 -200 l 1,0,-1
EndSplineSet
EndChar

StartChar: backslash
Encoding: 92 92 63
Width: 600
GlyphClass: 2
Flags: W
LayerCount: 2
Fore
SplineSet
495 -200 m 1,0,-1
 425 -200 l 1,1,-1
 107 749 l 1,2,-1
 177 749 l 1,3,-1
 495 -200 l 1,0,-1
EndSplineSet
EndChar

StartChar: bracketright
Encoding: 93 93 64
Width: 430
GlyphClass: 2
Flags: W
LayerCount: 2
Fore
SplineSet
107 750 m 1,0,-1
 300 750 l 1,1,-1
 300 -200 l 1,2,-1
 107 -200 l 1,3,-1
 107 -182 l 1,4,-1
 235 -182 l 1,5,-1
 235 732 l 1,6,-1
 107 732 l 1,7,-1
 107 750 l 1,0,-1
EndSplineSet
EndChar

StartChar: asciicircum
Encoding: 94 94 65
Width: 560
GlyphClass: 2
Flags: W
LayerCount: 2
Fore
SplineSet
406 305 m 1,0,-1
 374 300 l 1,1,2
 366 311 366 311 324 362 c 128,-1,3
 282 413 282 413 270 429 c 1,4,5
 260 416 260 416 236 386 c 0,6,7
 180 318 180 318 168 300 c 1,8,-1
 136 305 l 1,9,10
 147 319 147 319 203 384 c 128,-1,11
 259 449 259 449 270 463 c 1,12,13
 281 449 281 449 338 384 c 128,-1,14
 395 319 395 319 406 305 c 1,0,-1
EndSplineSet
EndChar

StartChar: underscore
Encoding: 95 95 66
Width: 500
GlyphClass: 2
Flags: W
LayerCount: 2
Fore
SplineSet
79 18 m 1,0,-1
 433 18 l 1,1,-1
 433 0 l 1,2,-1
 79 0 l 1,3,-1
 79 18 l 1,0,-1
EndSplineSet
EndChar

StartChar: grave
Encoding: 96 96 67
Width: 299
GlyphClass: 2
Flags: W
LayerCount: 2
Fore
SplineSet
205 603 m 1,0,-1
 189 595 l 1,1,-1
 71 743 l 1,2,-1
 101 750 l 1,3,-1
 205 603 l 1,0,-1
EndSplineSet
EndChar

StartChar: a
Encoding: 97 97 68
Width: 539
GlyphClass: 2
Flags: W
LayerCount: 2
Fore
SplineSet
360 38 m 1,0,-1
 357 38 l 1,1,2
 267 -4 267 -4 182 -4 c 0,3,4
 49 -4 49 -4 41 101 c 0,5,6
 40 108 40 108 40 114 c 0,7,8
 40 191 40 191 141 217 c 1,9,10
 201 230 201 230 357 248 c 1,11,-1
 357 336 l 2,12,13
 357 378 357 378 347 408 c 128,-1,14
 337 438 337 438 325 452.5 c 128,-1,15
 313 467 313 467 294 475 c 0,16,17
 270 485 270 485 240.5 485 c 128,-1,18
 211 485 211 485 173 470 c 0,19,20
 118 447 118 447 75 412 c 1,21,-1
 71 334 l 1,22,-1
 52 329 l 1,23,-1
 52 450 l 1,24,-1
 62 454 l 1,25,26
 140 488 140 488 181 495 c 128,-1,27
 222 502 222 502 241 502.5 c 128,-1,28
 260 503 260 503 277.5 502 c 128,-1,29
 295 501 295 501 323 493 c 128,-1,30
 351 485 351 485 371.5 470.5 c 128,-1,31
 392 456 392 456 407 427 c 128,-1,32
 422 398 422 398 422 358 c 2,33,-1
 422 52 l 2,34,35
 422 21 422 21 438 21 c 2,36,-1
 499 18 l 1,37,-1
 498 3 l 1,38,39
 442 -5 442 -5 398 -5 c 1,40,41
 386 -4 386 -4 373 7.5 c 128,-1,42
 360 19 360 19 360 38 c 1,0,-1
200 12 m 0,43,44
 274 12 274 12 357 64 c 1,45,-1
 357 229 l 1,46,47
 207 224 207 224 168.5 211.5 c 128,-1,48
 130 199 130 199 115.5 172.5 c 128,-1,49
 101 146 101 146 101 120 c 0,50,51
 101 115 101 115 101 110 c 0,52,53
 104 58 104 58 132 35 c 128,-1,54
 160 12 160 12 200 12 c 0,43,44
EndSplineSet
EndChar

StartChar: b
Encoding: 98 98 69
Width: 560
GlyphClass: 2
Flags: W
LayerCount: 2
Fore
SplineSet
182 709 m 2,0,-1
 182 460 l 1,1,2
 242 509 242 509 316 509 c 0,3,4
 384 509 384 509 444 467 c 0,5,6
 476 444 476 444 495.5 395 c 128,-1,7
 515 346 515 346 515 276 c 0,8,9
 515 143 515 143 449 76 c 0,10,11
 374 0 374 0 259 0 c 0,12,13
 216 0 216 0 173.5 7 c 128,-1,14
 131 14 131 14 117 23 c 1,15,-1
 117 717 l 1,16,17
 115 725 115 725 111 725 c 2,18,-1
 50 727 l 1,19,-1
 51 741 l 1,20,21
 114 750 114 750 137.5 750 c 128,-1,22
 161 750 161 750 171.5 737 c 128,-1,23
 182 724 182 724 182 709 c 2,0,-1
182 441 m 1,24,-1
 182 18 l 1,25,26
 209 9 209 9 245 9 c 0,27,28
 343 9 343 9 396.5 78 c 128,-1,29
 450 147 450 147 450 271 c 0,30,31
 450 407 450 407 396 454 c 0,32,33
 354 491 354 491 299 491 c 128,-1,34
 244 491 244 491 182 441 c 1,24,-1
EndSplineSet
EndChar

StartChar: c
Encoding: 99 99 70
Width: 478
GlyphClass: 2
Flags: W
LayerCount: 2
Fore
SplineSet
300 486 m 0,0,1
 215 486 215 486 162.5 419.5 c 128,-1,2
 110 353 110 353 110 231 c 0,3,4
 110 14 110 14 275 14 c 0,5,6
 340 14 340 14 386 26.5 c 128,-1,7
 432 39 432 39 436 42 c 1,8,-1
 443 31 l 1,9,10
 420 16 420 16 367 6 c 128,-1,11
 314 -4 314 -4 271 -4 c 128,-1,12
 228 -4 228 -4 193 5 c 128,-1,13
 158 14 158 14 122.5 37 c 128,-1,14
 87 60 87 60 66 109.5 c 128,-1,15
 45 159 45 159 45 230 c 0,16,17
 45 361 45 361 112 428 c 1,18,19
 187 505 187 505 301 505 c 0,20,21
 337 505 337 505 377.5 495.5 c 128,-1,22
 418 486 418 486 440 466 c 1,23,-1
 440 335 l 1,24,-1
 421 328 l 1,25,-1
 416 433 l 1,26,27
 394 456 394 456 362.5 471 c 128,-1,28
 331 486 331 486 300 486 c 0,0,1
EndSplineSet
EndChar

StartChar: d
Encoding: 100 100 71
Width: 579
GlyphClass: 2
Flags: W
LayerCount: 2
Fore
SplineSet
453 709 m 2,0,-1
 453 52 l 2,1,2
 453 21 453 21 469 21 c 2,3,-1
 529 18 l 1,4,-1
 528 3 l 1,5,6
 480 -5 480 -5 428 -5 c 1,7,8
 417 -4 417 -4 404.5 6 c 128,-1,9
 392 16 392 16 390 32 c 1,10,11
 333 -4 333 -4 258 -4 c 0,12,13
 185 -4 185 -4 123 37 c 0,14,15
 88 60 88 60 66.5 109.5 c 128,-1,16
 45 159 45 159 45 230 c 0,17,18
 45 361 45 361 112 430 c 0,19,20
 183 504 183 504 274 504 c 0,21,22
 330 504 330 504 388 475 c 1,23,-1
 388 714 l 2,24,25
 388 725 388 725 382 725 c 2,26,-1
 321 727 l 1,27,-1
 322 741 l 1,28,29
 385 750 385 750 408.5 750 c 128,-1,30
 432 750 432 750 442.5 737 c 128,-1,31
 453 724 453 724 453 709 c 2,0,-1
271 14 m 0,32,33
 332 14 332 14 388 41 c 1,34,-1
 388 459 l 1,35,36
 344 486 344 486 301 486 c 0,37,38
 215 486 215 486 162.5 420 c 128,-1,39
 110 354 110 354 110 231 c 0,40,41
 110 14 110 14 271 14 c 0,32,33
EndSplineSet
EndChar

StartChar: e
Encoding: 101 101 72
Width: 506
GlyphClass: 2
Flags: W
LayerCount: 2
Fore
SplineSet
110 230 m 0,0,1
 110 14 110 14 278 14 c 0,2,3
 322 14 322 14 372 23.5 c 128,-1,4
 422 33 422 33 436 41 c 1,5,-1
 443 31 l 1,6,7
 420 16 420 16 367.5 6 c 128,-1,8
 315 -4 315 -4 271.5 -4 c 128,-1,9
 228 -4 228 -4 193.5 5 c 128,-1,10
 159 14 159 14 123 37 c 128,-1,11
 87 60 87 60 66 109 c 128,-1,12
 45 158 45 158 45 229 c 0,13,14
 45 361 45 361 113 431 c 0,15,16
 184 504 184 504 278 504 c 128,-1,17
 372 504 372 504 421.5 452 c 128,-1,18
 471 400 471 400 471 306 c 0,19,20
 471 286 471 286 468 263 c 1,21,-1
 111 263 l 1,22,23
 110 252 110 252 110 230 c 0,0,1
412 313 m 0,24,25
 412 388 412 388 379 435.5 c 128,-1,26
 346 483 346 483 289 483 c 0,27,28
 215 483 215 483 164 418 c 0,29,30
 123 367 123 367 113 282 c 1,31,-1
 411 282 l 1,32,33
 412 293 412 293 412 313 c 0,24,25
EndSplineSet
EndChar

StartChar: f
Encoding: 102 102 73
Width: 360
GlyphClass: 2
Flags: W
LayerCount: 2
Fore
SplineSet
40 -1 m 1,0,-1
 41 13 l 1,1,-1
 93 20 l 2,2,3
 102 21 102 21 102 34 c 2,4,-1
 102 482 l 1,5,-1
 51 482 l 1,6,-1
 59 490 l 1,7,-1
 102 499 l 1,8,-1
 102 621 l 2,9,10
 102 690 102 690 147 720.5 c 128,-1,11
 192 751 192 751 252 751 c 0,12,13
 292 751 292 751 320 740 c 1,14,-1
 317 733 l 1,15,16
 293 736 293 736 275.5 736 c 128,-1,17
 258 736 258 736 241.5 731 c 128,-1,18
 225 726 225 726 207 713 c 0,19,20
 167 684 167 684 167 598 c 2,21,-1
 167 500 l 1,22,-1
 288 500 l 1,23,-1
 288 482 l 1,24,-1
 167 482 l 1,25,-1
 167 20 l 1,26,-1
 252 15 l 2,27,28
 252 14 252 14 251 0 c 1,29,-1
 40 -1 l 1,0,-1
EndSplineSet
EndChar

StartChar: g
Encoding: 103 103 74
Width: 561
GlyphClass: 2
Flags: W
LayerCount: 2
Fore
SplineSet
41 -103 m 0,0,1
 41 -9 41 -9 155 58 c 1,2,3
 106 85 106 85 106 126.5 c 128,-1,4
 106 168 106 168 146 191 c 1,5,6
 68 226 68 226 68 339 c 0,7,8
 68 416 68 416 126 460 c 128,-1,9
 184 504 184 504 274 504 c 0,10,11
 316 504 316 504 354 494 c 1,12,-1
 521 504 l 1,13,-1
 519 466 l 1,14,-1
 400 473 l 1,15,16
 465 431 465 431 465 346 c 128,-1,17
 465 261 465 261 410 216 c 128,-1,18
 355 171 355 171 268 171 c 0,19,20
 210 171 210 171 173 181 c 1,21,22
 156 162 156 162 156 137 c 0,23,24
 156 92 156 92 192 72 c 1,25,26
 231 49 231 49 330 32 c 0,27,28
 353 28 353 28 363.5 25.5 c 128,-1,29
 374 23 374 23 394 19 c 128,-1,30
 414 15 414 15 424 11.5 c 128,-1,31
 434 8 434 8 449.5 1.5 c 128,-1,32
 465 -5 465 -5 473 -11 c 128,-1,33
 481 -17 481 -17 491 -26 c 128,-1,34
 501 -35 501 -35 506 -46 c 0,35,36
 517 -72 517 -72 517 -106.5 c 128,-1,37
 517 -141 517 -141 496 -172 c 128,-1,38
 475 -203 475 -203 438 -219 c 0,39,40
 366 -250 366 -250 273 -250 c 0,41,42
 150 -250 150 -250 95.5 -206.5 c 128,-1,43
 41 -163 41 -163 41 -103 c 0,0,1
171 50 m 1,44,45
 106 -21 106 -21 106 -89 c 128,-1,46
 106 -157 106 -157 145.5 -194.5 c 128,-1,47
 185 -232 185 -232 266 -232 c 128,-1,48
 347 -232 347 -232 399.5 -201 c 128,-1,49
 452 -170 452 -170 452 -102 c 0,50,51
 452 -48 452 -48 418.5 -23 c 128,-1,52
 385 2 385 2 324 14 c 0,53,54
 201 37 201 37 171 50 c 1,44,45
171 452.5 m 128,-1,56
 133 414 133 414 133 337 c 128,-1,57
 133 260 133 260 162 222 c 128,-1,58
 191 184 191 184 256.5 184 c 128,-1,59
 322 184 322 184 359.5 227.5 c 128,-1,60
 397 271 397 271 397 345 c 0,61,62
 397 491 397 491 271 491 c 0,63,55
 209 491 209 491 171 452.5 c 128,-1,56
EndSplineSet
EndChar

StartChar: h
Encoding: 104 104 75
Width: 628
GlyphClass: 2
Flags: W
LayerCount: 2
Fore
SplineSet
191 709 m 2,0,-1
 191 438 l 1,1,2
 322 528 322 528 428 494 c 0,3,4
 452 487 452 487 469.5 473.5 c 128,-1,5
 487 460 487 460 500 433 c 128,-1,6
 513 406 513 406 513 368 c 2,7,-1
 513 20 l 1,8,-1
 588 15 l 2,9,10
 588 14 588 14 587 0 c 1,11,-1
 387 -1 l 1,12,13
 387 8 387 8 388 13 c 1,14,-1
 440 20 l 2,15,16
 446 20 446 20 448 29 c 1,17,-1
 448 342 l 2,18,19
 448 381 448 381 437.5 409.5 c 128,-1,20
 427 438 427 438 413 451 c 128,-1,21
 399 464 399 464 380 471 c 0,22,23
 354 481 354 481 334 479 c 1,24,25
 269 477 269 477 191 426 c 1,26,-1
 191 20 l 1,27,-1
 266 15 l 2,28,29
 266 14 266 14 265 0 c 1,30,-1
 65 -1 l 1,31,32
 65 8 65 8 66 13 c 1,33,-1
 118 20 l 2,34,35
 126 21 126 21 126 34 c 2,36,-1
 126 714 l 2,37,38
 126 725 126 725 120 725 c 2,39,-1
 60 727 l 1,40,-1
 61 741 l 1,41,42
 115 750 115 750 143 750 c 128,-1,43
 171 750 171 750 181 737 c 128,-1,44
 191 724 191 724 191 709 c 2,0,-1
EndSplineSet
EndChar

StartChar: i
Encoding: 105 105 76
Width: 316
GlyphClass: 2
Flags: W
LayerCount: 2
Fore
SplineSet
191 459 m 2,0,-1
 191 20 l 1,1,-1
 266 15 l 2,2,3
 266 14 266 14 265 0 c 1,4,-1
 65 -1 l 1,5,6
 65 8 65 8 66 13 c 1,7,-1
 118 20 l 2,8,9
 124 20 124 20 126 29 c 1,10,-1
 126 468 l 1,11,12
 124 475 124 475 120 475 c 2,13,-1
 60 477 l 1,14,-1
 61 491 l 1,15,16
 115 500 115 500 143 500 c 128,-1,17
 171 500 171 500 181 487 c 128,-1,18
 191 474 191 474 191 459 c 2,0,-1
126 646.5 m 128,-1,20
 115 659 115 659 115 679.5 c 128,-1,21
 115 700 115 700 126.5 712.5 c 128,-1,22
 138 725 138 725 158 725 c 128,-1,23
 178 725 178 725 190.5 712.5 c 128,-1,24
 203 700 203 700 203 678.5 c 128,-1,25
 203 657 203 657 190 645.5 c 128,-1,26
 177 634 177 634 157 634 c 128,-1,19
 137 634 137 634 126 646.5 c 128,-1,20
EndSplineSet
EndChar

StartChar: j
Encoding: 106 106 77
Width: 285
GlyphClass: 2
Flags: W
LayerCount: 2
Fore
SplineSet
159 0 m 2,0,-1
 159 467 l 1,1,2
 157 475 157 475 153 475 c 2,3,-1
 92 477 l 1,4,-1
 93 491 l 1,5,6
 156 500 156 500 178 500 c 0,7,8
 218 500 218 500 223 465 c 1,9,-1
 224 465 l 1,10,-1
 224 0 l 2,11,12
 224 -3 224 -3 224 -5 c 0,13,14
 224 -44 224 -44 209 -84 c 128,-1,15
 194 -124 194 -124 172 -152 c 0,16,17
 126 -211 126 -211 88 -237 c 1,18,-1
 73 -248 l 1,19,-1
 66 -240 l 1,20,21
 107 -193 107 -193 133 -122 c 128,-1,22
 159 -51 159 -51 159 0 c 2,0,-1
158.5 646.5 m 128,-1,24
 147 659 147 659 147 679.5 c 128,-1,25
 147 700 147 700 159 712.5 c 128,-1,26
 171 725 171 725 191 725 c 128,-1,27
 211 725 211 725 223 712.5 c 128,-1,28
 235 700 235 700 235 678.5 c 128,-1,29
 235 657 235 657 222.5 645.5 c 128,-1,30
 210 634 210 634 190 634 c 128,-1,23
 170 634 170 634 158.5 646.5 c 128,-1,24
EndSplineSet
EndChar

StartChar: k
Encoding: 107 107 78
Width: 582
GlyphClass: 2
Flags: W
LayerCount: 2
Fore
SplineSet
65 -1 m 1,0,-1
 66 13 l 1,1,-1
 118 20 l 2,2,3
 125 21 125 21 127 30 c 1,4,-1
 127 714 l 2,5,6
 127 725 127 725 121 725 c 2,7,-1
 60 727 l 1,8,-1
 61 741 l 1,9,10
 124 750 124 750 147.5 750 c 128,-1,11
 171 750 171 750 181.5 737 c 128,-1,12
 192 724 192 724 192 709 c 2,13,-1
 192 20 l 1,14,-1
 267 15 l 2,15,16
 267 14 267 14 266 0 c 1,17,-1
 65 -1 l 1,0,-1
542 15 m 2,18,19
 542 14 542 14 541 0 c 1,20,-1
 415 0 l 1,21,-1
 192 266 l 1,22,-1
 364 465 l 1,23,24
 364 478 364 478 356 479 c 2,25,-1
 304 486 l 1,26,27
 303 491 303 491 303 500 c 1,28,-1
 513 499 l 2,29,30
 513 498 513 498 514 484 c 1,31,-1
 400 477 l 1,32,-1
 232 294 l 1,33,-1
 473 20 l 1,34,-1
 542 15 l 2,18,19
EndSplineSet
EndChar

StartChar: l
Encoding: 108 108 79
Width: 307
GlyphClass: 2
Flags: W
LayerCount: 2
Fore
SplineSet
65 -1 m 1,0,-1
 66 13 l 1,1,-1
 118 20 l 2,2,3
 125 21 125 21 127 30 c 1,4,-1
 127 714 l 2,5,6
 127 725 127 725 121 725 c 2,7,-1
 60 727 l 1,8,-1
 61 741 l 1,9,10
 124 750 124 750 147.5 750 c 128,-1,11
 171 750 171 750 181.5 737 c 128,-1,12
 192 724 192 724 192 709 c 2,13,-1
 192 20 l 1,14,-1
 267 15 l 2,15,16
 267 14 267 14 266 0 c 1,17,-1
 65 -1 l 1,0,-1
EndSplineSet
EndChar

StartChar: m
Encoding: 109 109 80
Width: 909
GlyphClass: 2
Flags: W
LayerCount: 2
Fore
SplineSet
311 481 m 0,0,1
 251 480 251 480 181 437 c 1,2,-1
 181 20 l 1,3,-1
 256 15 l 2,4,5
 256 14 256 14 255 0 c 1,6,-1
 55 -1 l 1,7,8
 55 8 55 8 56 13 c 1,9,-1
 108 20 l 2,10,11
 114 20 114 20 116 29 c 1,12,-1
 116 468 l 1,13,14
 114 475 114 475 110 475 c 2,15,-1
 50 477 l 1,16,-1
 51 491 l 1,17,18
 105 500 105 500 133 500 c 128,-1,19
 161 500 161 500 171 487 c 128,-1,20
 181 474 181 474 181 459 c 2,21,-1
 181 447 l 1,22,23
 264 499 264 499 333 503 c 1,24,25
 428 503 428 503 462 449 c 1,26,27
 549 499 549 499 626 503 c 1,28,29
 696 503 696 503 732 474 c 0,30,31
 749 461 749 461 761.5 433.5 c 128,-1,32
 774 406 774 406 774 368 c 2,33,-1
 774 20 l 1,34,-1
 849 15 l 2,35,36
 849 14 849 14 848 0 c 1,37,-1
 648 -1 l 1,38,39
 648 8 648 8 649 13 c 1,40,-1
 701 20 l 2,41,42
 707 20 707 20 709 29 c 1,43,-1
 709 343 l 2,44,45
 709 383 709 383 699 411.5 c 128,-1,46
 689 440 689 440 677 453 c 128,-1,47
 665 466 665 466 647 473 c 0,48,49
 627 481 627 481 604 481 c 0,50,51
 542 480 542 480 469 434 c 1,52,53
 482 406 482 406 482 368 c 2,54,-1
 482 20 l 1,55,-1
 557 15 l 2,56,57
 557 14 557 14 556 0 c 1,58,-1
 355 -1 l 1,59,-1
 356 13 l 1,60,-1
 408 20 l 2,61,62
 415 21 415 21 417 30 c 1,63,-1
 417 344 l 2,64,65
 417 393 417 393 404 424.5 c 128,-1,66
 391 456 391 456 369 466 c 0,67,68
 339 481 339 481 311 481 c 0,0,1
EndSplineSet
EndChar

StartChar: n
Encoding: 110 110 81
Width: 630
GlyphClass: 2
Flags: W
LayerCount: 2
Fore
SplineSet
55 -1 m 1,0,-1
 56 13 l 1,1,-1
 108 20 l 2,2,3
 117 21 117 21 117 34 c 2,4,-1
 117 467 l 1,5,6
 115 475 115 475 111 475 c 2,7,-1
 50 477 l 1,8,-1
 51 491 l 1,9,10
 114 500 114 500 136 500 c 0,11,12
 176 500 176 500 181 465 c 1,13,-1
 182 465 l 1,14,-1
 182 444 l 1,15,16
 264 500 264 500 339 503 c 1,17,18
 412 503 412 503 450 474 c 0,19,20
 467 461 467 461 480.5 433.5 c 128,-1,21
 494 406 494 406 494 368 c 2,22,-1
 494 20 l 1,23,-1
 569 15 l 2,24,25
 569 14 569 14 568 0 c 1,26,-1
 368 -1 l 1,27,28
 368 8 368 8 369 13 c 1,29,-1
 421 20 l 2,30,31
 429 21 429 21 429 34 c 2,32,-1
 429 343 l 2,33,34
 429 383 429 383 418.5 411 c 128,-1,35
 408 439 408 439 395 452 c 128,-1,36
 382 465 382 465 363 472 c 0,37,38
 341 480 341 480 317 480 c 0,39,40
 257 479 257 479 182 433 c 1,41,-1
 182 20 l 1,42,-1
 257 15 l 2,43,44
 257 14 257 14 256 0 c 1,45,-1
 55 -1 l 1,0,-1
EndSplineSet
EndChar

StartChar: o
Encoding: 111 111 82
Width: 565
GlyphClass: 2
Flags: W
LayerCount: 2
Fore
SplineSet
109.5 56 m 128,-1,1
 45 116 45 116 45 239.5 c 128,-1,2
 45 363 45 363 113.5 433.5 c 128,-1,3
 182 504 182 504 286 504 c 128,-1,4
 390 504 390 504 455 444 c 128,-1,5
 520 384 520 384 520 260.5 c 128,-1,6
 520 137 520 137 451.5 66.5 c 128,-1,7
 383 -4 383 -4 278.5 -4 c 128,-1,0
 174 -4 174 -4 109.5 56 c 128,-1,1
160 421 m 128,-1,9
 110 356 110 356 110 244.5 c 128,-1,10
 110 133 110 133 157.5 73.5 c 128,-1,11
 205 14 205 14 280 14 c 128,-1,12
 355 14 355 14 405 79 c 128,-1,13
 455 144 455 144 455 255 c 128,-1,14
 455 366 455 366 407.5 426 c 128,-1,15
 360 486 360 486 285 486 c 128,-1,8
 210 486 210 486 160 421 c 128,-1,9
EndSplineSet
EndChar

StartChar: p
Encoding: 112 112 83
Width: 570
GlyphClass: 2
Flags: W
LayerCount: 2
Fore
SplineSet
65 -250 m 1,0,-1
 66 -236 l 1,1,-1
 118 -229 l 2,2,3
 127 -228 127 -228 127 -215 c 2,4,-1
 127 467 l 1,5,6
 125 475 125 475 121 475 c 2,7,-1
 60 477 l 1,8,-1
 61 491 l 1,9,10
 124 500 124 500 147 500 c 128,-1,11
 170 500 170 500 180 488.5 c 128,-1,12
 190 477 190 477 192 463 c 1,13,14
 255 509 255 509 326 509 c 0,15,16
 394 509 394 509 454 467 c 0,17,18
 486 444 486 444 505.5 395 c 128,-1,19
 525 346 525 346 525 276 c 0,20,21
 525 143 525 143 459 76 c 0,22,23
 384 0 384 0 265 0 c 0,24,25
 230 0 230 0 192 5 c 1,26,-1
 192 -229 l 1,27,-1
 277 -234 l 1,28,29
 276 -248 276 -248 276 -249 c 2,30,-1
 65 -250 l 1,0,-1
192 443 m 1,31,-1
 192 26 l 1,32,33
 221 19 221 19 255 19 c 0,34,35
 353 19 353 19 406.5 85.5 c 128,-1,36
 460 152 460 152 460 271 c 0,37,38
 460 407 460 407 406 454 c 0,39,40
 364 491 364 491 312 491 c 128,-1,41
 260 491 260 491 192 443 c 1,31,-1
EndSplineSet
EndChar

StartChar: q
Encoding: 113 113 84
Width: 588
GlyphClass: 2
Flags: W
LayerCount: 2
Fore
SplineSet
326 -250 m 1,0,-1
 327 -236 l 1,1,-1
 379 -229 l 2,2,3
 386 -228 386 -228 388 -218 c 1,4,-1
 388 31 l 1,5,6
 332 -4 332 -4 258 -4 c 0,7,8
 185 -4 185 -4 123 37 c 0,9,10
 88 60 88 60 66.5 109.5 c 128,-1,11
 45 159 45 159 45 230 c 0,12,13
 45 361 45 361 112 430 c 0,14,15
 183 504 183 504 274 504 c 0,16,17
 330 504 330 504 388 475 c 1,18,-1
 388 495 l 1,19,-1
 453 500 l 1,20,-1
 453 -229 l 1,21,-1
 538 -234 l 1,22,23
 537 -248 537 -248 537 -249 c 2,24,-1
 326 -250 l 1,0,-1
271 14 m 0,25,26
 334 14 334 14 388 49 c 1,27,-1
 388 459 l 1,28,29
 344 486 344 486 301 486 c 0,30,31
 215 486 215 486 162.5 420 c 128,-1,32
 110 354 110 354 110 231 c 0,33,34
 110 14 110 14 271 14 c 0,25,26
EndSplineSet
EndChar

StartChar: r
Encoding: 114 114 85
Width: 444
GlyphClass: 2
Flags: W
LayerCount: 2
Fore
SplineSet
181 459 m 2,0,-1
 181 379 l 1,1,2
 260 495 260 495 336 497 c 0,3,4
 342 497 342 497 348 497 c 2,5,-1
 404 490 l 1,6,-1
 378 430 l 1,7,8
 359 449 359 449 329 449 c 0,9,10
 256 448 256 448 181 352 c 1,11,-1
 181 20 l 1,12,-1
 266 15 l 2,13,14
 266 14 266 14 265 0 c 1,15,-1
 55 -1 l 1,16,17
 55 8 55 8 56 13 c 1,18,-1
 108 20 l 2,19,20
 116 21 116 21 116 34 c 2,21,-1
 116 468 l 1,22,23
 114 475 114 475 110 475 c 2,24,-1
 50 477 l 1,25,-1
 51 491 l 1,26,27
 105 500 105 500 133 500 c 128,-1,28
 161 500 161 500 171 487 c 128,-1,29
 181 474 181 474 181 459 c 2,0,-1
EndSplineSet
EndChar

StartChar: s
Encoding: 115 115 86
Width: 421
GlyphClass: 2
Flags: W
LayerCount: 2
Fore
SplineSet
182 12 m 0,0,1
 188 12 188 12 194 13 c 0,2,3
 246 14 246 14 281 45.5 c 128,-1,4
 316 77 316 77 316 138 c 0,5,6
 316 198 316 198 222 225 c 0,7,8
 183 236 183 236 144 249 c 128,-1,9
 105 262 105 262 77.5 290 c 128,-1,10
 50 318 50 318 50 363 c 0,11,12
 50 427 50 427 99 465.5 c 128,-1,13
 148 504 148 504 223 504 c 0,14,15
 279 504 279 504 336 484 c 1,16,-1
 354 477 l 1,17,-1
 354 362 l 1,18,-1
 335 355 l 1,19,-1
 331 440 l 1,20,21
 273 486 273 486 234 486 c 0,22,23
 179 486 179 486 147 453.5 c 128,-1,24
 115 421 115 421 115 367 c 0,25,26
 115 336 115 336 142.5 317 c 128,-1,27
 170 298 170 298 209 287 c 128,-1,28
 248 276 248 276 287 262.5 c 128,-1,29
 326 249 326 249 353.5 218.5 c 128,-1,30
 381 188 381 188 381 139 c 0,31,32
 381 73 381 73 331.5 34.5 c 128,-1,33
 282 -4 282 -4 191 -4 c 128,-1,34
 100 -4 100 -4 40 39 c 1,35,-1
 40 154 l 1,36,-1
 58 161 l 1,37,-1
 63 76 l 1,38,39
 77 50 77 50 113.5 31 c 128,-1,40
 150 12 150 12 182 12 c 0,0,1
EndSplineSet
EndChar

StartChar: t
Encoding: 116 116 87
Width: 350
GlyphClass: 2
Flags: W
LayerCount: 2
Fore
SplineSet
268 19 m 1,0,-1
 307 21 l 1,1,-1
 310 11 l 2,2,3
 309 11 309 11 296 8 c 0,4,5
 266 1 266 1 229 1 c 1,6,7
 195 3 195 3 167 12.5 c 128,-1,8
 139 22 139 22 115 52.5 c 128,-1,9
 91 83 91 83 91 131 c 2,10,-1
 91 482 l 1,11,-1
 40 482 l 1,12,-1
 48 490 l 1,13,-1
 92 499 l 1,14,-1
 100 595 l 1,15,-1
 156 600 l 1,16,-1
 156 500 l 1,17,-1
 277 500 l 1,18,-1
 277 482 l 1,19,-1
 156 482 l 1,20,-1
 156 148 l 2,21,22
 156 72 156 72 188 45.5 c 128,-1,23
 220 19 220 19 268 19 c 1,0,-1
EndSplineSet
EndChar

StartChar: u
Encoding: 117 117 88
Width: 649
GlyphClass: 2
Flags: W
LayerCount: 2
Fore
SplineSet
61 484 m 1,0,-1
 60 499 l 1,1,-1
 195 500 l 1,2,-1
 195 152 l 2,3,4
 195 113 195 113 206 84.5 c 128,-1,5
 217 56 217 56 230.5 43 c 128,-1,6
 244 30 244 30 262 23 c 0,7,8
 290 13 290 13 309 15 c 1,9,10
 370 16 370 16 448 78 c 1,11,-1
 448 465 l 1,12,13
 444 477 444 477 431 479 c 2,14,-1
 379 484 l 1,15,16
 378 490 378 490 378 499 c 1,17,-1
 513 500 l 1,18,-1
 513 46 l 1,19,20
 515 21 515 21 529 21 c 2,21,-1
 589 18 l 1,22,-1
 588 3 l 1,23,24
 540 -5 540 -5 488 -5 c 1,25,26
 476 -4 476 -4 462 8.5 c 128,-1,27
 448 21 448 21 448 40 c 2,28,-1
 448 58 l 1,29,30
 357 -3 357 -3 276 -3 c 0,31,32
 242 -3 242 -3 196 14 c 0,33,34
 166 25 166 25 148 55.5 c 128,-1,35
 130 86 130 86 130 132 c 2,36,-1
 130 464 l 2,37,38
 130 469 130 469 124.5 473.5 c 128,-1,39
 119 478 119 478 113 479 c 2,40,-1
 61 484 l 1,0,-1
EndSplineSet
EndChar

StartChar: v
Encoding: 118 118 89
Width: 616
GlyphClass: 2
Flags: W
LayerCount: 2
Fore
SplineSet
606 500 m 2,0,1
 606 499 606 499 607 485 c 1,2,-1
 527 476 l 1,3,-1
 335 0 l 1,4,-1
 275 0 l 1,5,-1
 101 468 l 1,6,7
 95 477 95 477 86 479 c 1,8,-1
 34 484 l 1,9,-1
 33 499 l 1,10,-1
 244 500 l 2,11,12
 244 499 244 499 245 485 c 1,13,-1
 171 480 l 1,14,-1
 328 21 l 1,15,-1
 492 464 l 1,16,17
 495 469 495 469 488.5 473.5 c 128,-1,18
 482 478 482 478 475 479 c 2,19,-1
 423 484 l 1,20,-1
 422 499 l 1,21,-1
 606 500 l 2,0,1
EndSplineSet
EndChar

StartChar: w
Encoding: 119 119 90
Width: 901
GlyphClass: 2
Flags: W
LayerCount: 2
Fore
SplineSet
903 500 m 2,0,1
 903 499 903 499 904 485 c 1,2,-1
 846 479 l 1,3,-1
 810 471 l 1,4,-1
 631 0 l 1,5,-1
 571 0 l 1,6,-1
 454 396 l 1,7,-1
 319 0 l 1,8,-1
 259 0 l 1,9,-1
 103 467 l 1,10,11
 97 478 97 478 88 479 c 2,12,-1
 36 484 l 1,13,14
 35 490 35 490 35 499 c 1,15,-1
 245 500 l 2,16,17
 245 499 245 499 246 485 c 1,18,-1
 174 480 l 1,19,-1
 309 32 l 1,20,-1
 455 495 l 1,21,-1
 489 500 l 1,22,-1
 616 16 l 1,23,-1
 773 464 l 2,24,25
 776 470 776 470 770 474 c 128,-1,26
 764 478 764 478 756 479 c 2,27,-1
 704 484 l 1,28,29
 703 490 703 490 703 499 c 1,30,-1
 903 500 l 2,0,1
EndSplineSet
EndChar

StartChar: x
Encoding: 120 120 91
Width: 582
GlyphClass: 2
Flags: W
LayerCount: 2
Fore
SplineSet
523 500 m 2,0,1
 523 499 523 499 524 485 c 1,2,-1
 480 480 l 1,3,-1
 329 250 l 1,4,-1
 488 18 l 1,5,-1
 542 15 l 2,6,7
 542 14 542 14 541 0 c 1,8,-1
 326 -1 l 1,9,10
 326 8 326 8 327 13 c 1,11,-1
 390 21 l 2,12,13
 396 22 396 22 398.5 26.5 c 128,-1,14
 401 31 401 31 398 35 c 2,15,-1
 278 221 l 1,16,-1
 137 0 l 1,17,-1
 41 -1 l 1,18,-1
 40 14 l 1,19,-1
 116 21 l 1,20,-1
 262 244 l 1,21,-1
 250 264 l 1,22,-1
 95 495 l 1,23,-1
 175 495 l 1,24,-1
 185 479 l 1,25,-1
 116 464 l 1,26,27
 105 478 105 478 99 479 c 2,28,-1
 60 484 l 1,29,30
 59 490 59 490 59 499 c 1,31,-1
 269 500 l 2,32,33
 269 499 269 499 270 485 c 1,34,-1
 185 479 l 1,35,-1
 313 274 l 1,36,-1
 456 499 l 1,37,-1
 523 500 l 2,0,1
EndSplineSet
EndChar

StartChar: y
Encoding: 121 121 92
Width: 653
GlyphClass: 2
Flags: W
LayerCount: 2
Fore
SplineSet
170 -250 m 1,0,-1
 168 -236 l 1,1,-1
 261 -224 l 2,2,3
 268 -223 268 -223 270 -210 c 2,4,-1
 303 0 l 1,5,-1
 270 0 l 1,6,-1
 103 465 l 1,7,-1
 102 466 l 1,8,9
 97 478 97 478 86 480 c 1,10,-1
 41 484 l 1,11,12
 40 490 40 490 40 499 c 1,13,-1
 250 500 l 2,14,15
 250 499 250 499 251 485 c 1,16,-1
 173 479 l 1,17,-1
 321 26 l 1,18,-1
 507 466 l 2,19,20
 510 472 510 472 503.5 476 c 128,-1,21
 497 480 497 480 490 481 c 2,22,-1
 446 484 l 1,23,24
 445 490 445 490 445 499 c 1,25,-1
 628 500 l 2,26,27
 628 499 628 499 629 485 c 1,28,-1
 540 476 l 1,29,-1
 330 0 l 1,30,-1
 292 -229 l 1,31,-1
 379 -234 l 1,32,33
 381 -248 381 -248 381 -249 c 2,34,-1
 170 -250 l 1,0,-1
EndSplineSet
EndChar

StartChar: z
Encoding: 122 122 93
Width: 500
GlyphClass: 2
Flags: W
LayerCount: 2
Fore
SplineSet
58 500 m 1,0,-1
 430 500 l 1,1,-1
 439 482 l 1,2,-1
 438 482 l 1,3,-1
 126 18 l 1,4,-1
 434 18 l 1,5,-1
 440 154 l 1,6,-1
 459 161 l 1,7,-1
 459 2 l 1,8,-1
 460 0 l 1,9,-1
 49 0 l 1,10,-1
 40 18 l 1,11,-1
 355 482 l 1,12,-1
 84 482 l 1,13,-1
 77 362 l 1,14,-1
 58 355 l 1,15,-1
 58 500 l 1,0,-1
EndSplineSet
PairPos2: "'kern' Horizontal Kerning in Latin lookup 0 per glyph data 1" oe dx=0 dy=0 dh=-29 dv=0 dx=0 dy=0 dh=0 dv=0
PairPos2: "'kern' Horizontal Kerning in Latin lookup 0 per glyph data 1" dotlessi dx=0 dy=0 dh=-24 dv=0 dx=0 dy=0 dh=0 dv=0
PairPos2: "'kern' Horizontal Kerning in Latin lookup 0 per glyph data 1" ydieresis dx=0 dy=0 dh=-29 dv=0 dx=0 dy=0 dh=0 dv=0
PairPos2: "'kern' Horizontal Kerning in Latin lookup 0 per glyph data 1" thorn dx=0 dy=0 dh=-24 dv=0 dx=0 dy=0 dh=0 dv=0
PairPos2: "'kern' Horizontal Kerning in Latin lookup 0 per glyph data 1" yacute dx=0 dy=0 dh=-29 dv=0 dx=0 dy=0 dh=0 dv=0
PairPos2: "'kern' Horizontal Kerning in Latin lookup 0 per glyph data 1" udieresis dx=0 dy=0 dh=-24 dv=0 dx=0 dy=0 dh=0 dv=0
PairPos2: "'kern' Horizontal Kerning in Latin lookup 0 per glyph data 1" ucircumflex dx=0 dy=0 dh=-24 dv=0 dx=0 dy=0 dh=0 dv=0
PairPos2: "'kern' Horizontal Kerning in Latin lookup 0 per glyph data 1" uacute dx=0 dy=0 dh=-24 dv=0 dx=0 dy=0 dh=0 dv=0
PairPos2: "'kern' Horizontal Kerning in Latin lookup 0 per glyph data 1" ugrave dx=0 dy=0 dh=-24 dv=0 dx=0 dy=0 dh=0 dv=0
PairPos2: "'kern' Horizontal Kerning in Latin lookup 0 per glyph data 1" odieresis dx=0 dy=0 dh=-29 dv=0 dx=0 dy=0 dh=0 dv=0
PairPos2: "'kern' Horizontal Kerning in Latin lookup 0 per glyph data 1" otilde dx=0 dy=0 dh=-29 dv=0 dx=0 dy=0 dh=0 dv=0
PairPos2: "'kern' Horizontal Kerning in Latin lookup 0 per glyph data 1" ocircumflex dx=0 dy=0 dh=-29 dv=0 dx=0 dy=0 dh=0 dv=0
PairPos2: "'kern' Horizontal Kerning in Latin lookup 0 per glyph data 1" oacute dx=0 dy=0 dh=-29 dv=0 dx=0 dy=0 dh=0 dv=0
PairPos2: "'kern' Horizontal Kerning in Latin lookup 0 per glyph data 1" ograve dx=0 dy=0 dh=-29 dv=0 dx=0 dy=0 dh=0 dv=0
PairPos2: "'kern' Horizontal Kerning in Latin lookup 0 per glyph data 1" ntilde dx=0 dy=0 dh=-24 dv=0 dx=0 dy=0 dh=0 dv=0
PairPos2: "'kern' Horizontal Kerning in Latin lookup 0 per glyph data 1" eth dx=0 dy=0 dh=-29 dv=0 dx=0 dy=0 dh=0 dv=0
PairPos2: "'kern' Horizontal Kerning in Latin lookup 0 per glyph data 1" idieresis dx=0 dy=0 dh=-24 dv=0 dx=0 dy=0 dh=0 dv=0
PairPos2: "'kern' Horizontal Kerning in Latin lookup 0 per glyph data 1" icircumflex dx=0 dy=0 dh=-24 dv=0 dx=0 dy=0 dh=0 dv=0
PairPos2: "'kern' Horizontal Kerning in Latin lookup 0 per glyph data 1" iacute dx=0 dy=0 dh=-24 dv=0 dx=0 dy=0 dh=0 dv=0
PairPos2: "'kern' Horizontal Kerning in Latin lookup 0 per glyph data 1" igrave dx=0 dy=0 dh=-24 dv=0 dx=0 dy=0 dh=0 dv=0
PairPos2: "'kern' Horizontal Kerning in Latin lookup 0 per glyph data 1" edieresis dx=0 dy=0 dh=-15 dv=0 dx=0 dy=0 dh=0 dv=0
PairPos2: "'kern' Horizontal Kerning in Latin lookup 0 per glyph data 1" ecircumflex dx=0 dy=0 dh=-15 dv=0 dx=0 dy=0 dh=0 dv=0
PairPos2: "'kern' Horizontal Kerning in Latin lookup 0 per glyph data 1" eacute dx=0 dy=0 dh=-15 dv=0 dx=0 dy=0 dh=0 dv=0
PairPos2: "'kern' Horizontal Kerning in Latin lookup 0 per glyph data 1" egrave dx=0 dy=0 dh=-15 dv=0 dx=0 dy=0 dh=0 dv=0
PairPos2: "'kern' Horizontal Kerning in Latin lookup 0 per glyph data 1" ccedilla dx=0 dy=0 dh=-15 dv=0 dx=0 dy=0 dh=0 dv=0
PairPos2: "'kern' Horizontal Kerning in Latin lookup 0 per glyph data 1" aring dx=0 dy=0 dh=-14 dv=0 dx=0 dy=0 dh=0 dv=0
PairPos2: "'kern' Horizontal Kerning in Latin lookup 0 per glyph data 1" adieresis dx=0 dy=0 dh=-14 dv=0 dx=0 dy=0 dh=0 dv=0
PairPos2: "'kern' Horizontal Kerning in Latin lookup 0 per glyph data 1" atilde dx=0 dy=0 dh=-14 dv=0 dx=0 dy=0 dh=0 dv=0
PairPos2: "'kern' Horizontal Kerning in Latin lookup 0 per glyph data 1" acircumflex dx=0 dy=0 dh=-14 dv=0 dx=0 dy=0 dh=0 dv=0
PairPos2: "'kern' Horizontal Kerning in Latin lookup 0 per glyph data 1" aacute dx=0 dy=0 dh=-14 dv=0 dx=0 dy=0 dh=0 dv=0
PairPos2: "'kern' Horizontal Kerning in Latin lookup 0 per glyph data 1" agrave dx=0 dy=0 dh=-14 dv=0 dx=0 dy=0 dh=0 dv=0
PairPos2: "'kern' Horizontal Kerning in Latin lookup 0 per glyph data 1" germandbls dx=0 dy=0 dh=-24 dv=0 dx=0 dy=0 dh=0 dv=0
PairPos2: "'kern' Horizontal Kerning in Latin lookup 0 per glyph data 1" mu dx=0 dy=0 dh=-24 dv=0 dx=0 dy=0 dh=0 dv=0
PairPos2: "'kern' Horizontal Kerning in Latin lookup 0 per glyph data 1" brokenbar dx=0 dy=0 dh=-24 dv=0 dx=0 dy=0 dh=0 dv=0
PairPos2: "'kern' Horizontal Kerning in Latin lookup 0 per glyph data 1" cent dx=0 dy=0 dh=-15 dv=0 dx=0 dy=0 dh=0 dv=0
PairPos2: "'kern' Horizontal Kerning in Latin lookup 0 per glyph data 1" exclamdown dx=0 dy=0 dh=-24 dv=0 dx=0 dy=0 dh=0 dv=0
PairPos2: "'kern' Horizontal Kerning in Latin lookup 0 per glyph data 1" bar dx=0 dy=0 dh=-24 dv=0 dx=0 dy=0 dh=0 dv=0
PairPos2: "'kern' Horizontal Kerning in Latin lookup 0 per glyph data 1" z dx=0 dy=0 dh=-7 dv=0 dx=0 dy=0 dh=0 dv=0
PairPos2: "'kern' Horizontal Kerning in Latin lookup 0 per glyph data 1" y dx=0 dy=0 dh=-29 dv=0 dx=0 dy=0 dh=0 dv=0
PairPos2: "'kern' Horizontal Kerning in Latin lookup 0 per glyph data 1" w dx=0 dy=0 dh=-15 dv=0 dx=0 dy=0 dh=0 dv=0
PairPos2: "'kern' Horizontal Kerning in Latin lookup 0 per glyph data 1" u dx=0 dy=0 dh=-24 dv=0 dx=0 dy=0 dh=0 dv=0
PairPos2: "'kern' Horizontal Kerning in Latin lookup 0 per glyph data 1" t dx=0 dy=0 dh=-24 dv=0 dx=0 dy=0 dh=0 dv=0
PairPos2: "'kern' Horizontal Kerning in Latin lookup 0 per glyph data 1" r dx=0 dy=0 dh=-24 dv=0 dx=0 dy=0 dh=0 dv=0
PairPos2: "'kern' Horizontal Kerning in Latin lookup 0 per glyph data 1" q dx=0 dy=0 dh=-15 dv=0 dx=0 dy=0 dh=0 dv=0
PairPos2: "'kern' Horizontal Kerning in Latin lookup 0 per glyph data 1" p dx=0 dy=0 dh=-24 dv=0 dx=0 dy=0 dh=0 dv=0
PairPos2: "'kern' Horizontal Kerning in Latin lookup 0 per glyph data 1" o dx=0 dy=0 dh=-29 dv=0 dx=0 dy=0 dh=0 dv=0
PairPos2: "'kern' Horizontal Kerning in Latin lookup 0 per glyph data 1" n dx=0 dy=0 dh=-24 dv=0 dx=0 dy=0 dh=0 dv=0
PairPos2: "'kern' Horizontal Kerning in Latin lookup 0 per glyph data 1" m dx=0 dy=0 dh=-24 dv=0 dx=0 dy=0 dh=0 dv=0
PairPos2: "'kern' Horizontal Kerning in Latin lookup 0 per glyph data 1" l dx=0 dy=0 dh=-24 dv=0 dx=0 dy=0 dh=0 dv=0
PairPos2: "'kern' Horizontal Kerning in Latin lookup 0 per glyph data 1" k dx=0 dy=0 dh=-24 dv=0 dx=0 dy=0 dh=0 dv=0
PairPos2: "'kern' Horizontal Kerning in Latin lookup 0 per glyph data 1" j dx=0 dy=0 dh=-24 dv=0 dx=0 dy=0 dh=0 dv=0
PairPos2: "'kern' Horizontal Kerning in Latin lookup 0 per glyph data 1" i dx=0 dy=0 dh=-24 dv=0 dx=0 dy=0 dh=0 dv=0
PairPos2: "'kern' Horizontal Kerning in Latin lookup 0 per glyph data 1" h dx=0 dy=0 dh=-24 dv=0 dx=0 dy=0 dh=0 dv=0
PairPos2: "'kern' Horizontal Kerning in Latin lookup 0 per glyph data 1" f dx=0 dy=0 dh=-24 dv=0 dx=0 dy=0 dh=0 dv=0
PairPos2: "'kern' Horizontal Kerning in Latin lookup 0 per glyph data 1" e dx=0 dy=0 dh=-15 dv=0 dx=0 dy=0 dh=0 dv=0
PairPos2: "'kern' Horizontal Kerning in Latin lookup 0 per glyph data 1" d dx=0 dy=0 dh=-15 dv=0 dx=0 dy=0 dh=0 dv=0
PairPos2: "'kern' Horizontal Kerning in Latin lookup 0 per glyph data 1" c dx=0 dy=0 dh=-15 dv=0 dx=0 dy=0 dh=0 dv=0
PairPos2: "'kern' Horizontal Kerning in Latin lookup 0 per glyph data 1" b dx=0 dy=0 dh=-24 dv=0 dx=0 dy=0 dh=0 dv=0
PairPos2: "'kern' Horizontal Kerning in Latin lookup 0 per glyph data 1" a dx=0 dy=0 dh=-14 dv=0 dx=0 dy=0 dh=0 dv=0
PairPos2: "'kern' Horizontal Kerning in Latin lookup 0 per glyph data 1" bracketright dx=0 dy=0 dh=-24 dv=0 dx=0 dy=0 dh=0 dv=0
PairPos2: "'kern' Horizontal Kerning in Latin lookup 0 per glyph data 1" bracketleft dx=0 dy=0 dh=-24 dv=0 dx=0 dy=0 dh=0 dv=0
PairPos2: "'kern' Horizontal Kerning in Latin lookup 0 per glyph data 1" W dx=0 dy=0 dh=-36 dv=0 dx=0 dy=0 dh=0 dv=0
PairPos2: "'kern' Horizontal Kerning in Latin lookup 0 per glyph data 1" one dx=0 dy=0 dh=-24 dv=0 dx=0 dy=0 dh=0 dv=0
PairPos2: "'kern' Horizontal Kerning in Latin lookup 0 per glyph data 1" parenright dx=0 dy=0 dh=-24 dv=0 dx=0 dy=0 dh=0 dv=0
PairPos2: "'kern' Horizontal Kerning in Latin lookup 0 per glyph data 1" parenleft dx=0 dy=0 dh=-24 dv=0 dx=0 dy=0 dh=0 dv=0
PairPos2: "'kern' Horizontal Kerning in Latin lookup 0 per glyph data 1" exclam dx=0 dy=0 dh=-24 dv=0 dx=0 dy=0 dh=0 dv=0
EndChar

StartChar: braceleft
Encoding: 123 123 94
Width: 453
GlyphClass: 2
Flags: W
LayerCount: 2
Fore
SplineSet
61 241 m 1,0,-1
 61 258 l 1,1,2
 177 258 177 258 177 378 c 2,3,-1
 177 613 l 2,4,5
 177 657 177 657 194 687 c 0,6,7
 229 749 229 749 333 749 c 0,8,9
 343 749 343 749 353 748 c 1,10,-1
 353 731 l 1,11,12
 350 731 350 731 347 731 c 0,13,14
 303 731 303 731 270 700.5 c 128,-1,15
 237 670 237 670 237 591 c 2,16,-1
 237 381 l 2,17,18
 237 275 237 275 141 249 c 1,19,20
 237 225 237 225 237 118 c 2,21,-1
 237 -92 l 2,22,23
 237 -179 237 -179 276 -208 c 0,24,25
 308 -232 308 -232 346 -232 c 0,26,27
 350 -232 350 -232 353 -232 c 1,28,-1
 353 -249 l 1,29,30
 343 -250 343 -250 328 -250 c 128,-1,31
 313 -250 313 -250 290.5 -246.5 c 128,-1,32
 268 -243 268 -243 239.5 -230.5 c 128,-1,33
 211 -218 211 -218 194 -188 c 128,-1,34
 177 -158 177 -158 177 -114 c 2,35,-1
 177 96 l 2,36,37
 177 237 177 237 68 241 c 1,38,-1
 61 241 l 1,0,-1
EndSplineSet
EndChar

StartChar: bar
Encoding: 124 124 95
Width: 284
GlyphClass: 2
Flags: W
LayerCount: 2
Fore
SplineSet
112 749 m 1,0,-1
 172 749 l 1,1,-1
 172 -200 l 1,2,-1
 112 -200 l 1,3,-1
 112 749 l 1,0,-1
EndSplineSet
EndChar

StartChar: braceright
Encoding: 125 125 96
Width: 453
GlyphClass: 2
Flags: W
LayerCount: 2
Fore
SplineSet
353 241 m 1,0,-1
 346 241 l 1,1,2
 237 237 237 237 237 96 c 2,3,-1
 237 -114 l 2,4,5
 237 -158 237 -158 220 -188 c 0,6,7
 185 -250 185 -250 81 -250 c 0,8,9
 71 -250 71 -250 61 -249 c 1,10,-1
 61 -232 l 1,11,12
 64 -232 64 -232 75 -232 c 128,-1,13
 86 -232 86 -232 103 -227 c 128,-1,14
 120 -222 120 -222 138 -208 c 0,15,16
 177 -179 177 -179 177 -92 c 2,17,-1
 177 118 l 2,18,19
 177 225 177 225 273 249 c 1,20,21
 177 275 177 275 177 381 c 2,22,-1
 177 591 l 2,23,24
 177 670 177 670 144 700.5 c 128,-1,25
 111 731 111 731 67 731 c 0,26,27
 64 731 64 731 61 731 c 1,28,-1
 61 748 l 1,29,30
 71 749 71 749 85.5 749 c 128,-1,31
 100 749 100 749 122.5 745.5 c 128,-1,32
 145 742 145 742 174 729.5 c 128,-1,33
 203 717 203 717 220 687 c 128,-1,34
 237 657 237 657 237 613 c 2,35,-1
 237 378 l 2,36,37
 237 258 237 258 353 258 c 1,38,-1
 353 241 l 1,0,-1
EndSplineSet
EndChar

StartChar: asciitilde
Encoding: 126 126 97
Width: 588
GlyphClass: 2
Flags: W
LayerCount: 2
Fore
SplineSet
205 380 m 0,0,1
 229 380 229 380 308.5 363 c 128,-1,2
 388 346 388 346 417.5 346 c 128,-1,3
 447 346 447 346 457 355 c 128,-1,4
 467 364 467 364 473 386 c 1,5,-1
 489 382 l 1,6,7
 480 341 480 341 461.5 324.5 c 128,-1,8
 443 308 443 308 417.5 308 c 128,-1,9
 392 308 392 308 308 328 c 1,10,11
 237 343 237 343 200 343 c 0,12,13
 145 343 145 343 136 308 c 1,14,-1
 122 312 l 1,15,16
 134 380 134 380 205 380 c 0,0,1
EndSplineSet
EndChar

StartChar: exclamdown
Encoding: 161 161 98
Width: 282
GlyphClass: 2
Flags: W
LayerCount: 2
Fore
SplineSet
150 371 m 1,0,-1
 170 -200 l 1,1,-1
 110 -195 l 1,2,-1
 130 371 l 1,3,-1
 150 371 l 1,0,-1
104 465 m 128,-1,5
 104 479 104 479 114.5 489.5 c 128,-1,6
 125 500 125 500 139 500 c 128,-1,7
 153 500 153 500 163.5 489.5 c 128,-1,8
 174 479 174 479 174 465 c 128,-1,9
 174 451 174 451 163.5 440.5 c 128,-1,10
 153 430 153 430 139 430 c 128,-1,11
 125 430 125 430 114.5 440.5 c 128,-1,4
 104 451 104 451 104 465 c 128,-1,5
EndSplineSet
EndChar

StartChar: cent
Encoding: 162 162 99
Width: 479
GlyphClass: 2
Flags: W
LayerCount: 2
Fore
SplineSet
300 486 m 2,0,-1
 289 486 l 1,1,-1
 289 14 l 1,2,3
 350 16 350 16 391 27.5 c 128,-1,4
 432 39 432 39 436 42 c 1,5,-1
 443 31 l 1,6,7
 397 3 397 3 289 -3 c 1,8,-1
 289 -100 l 1,9,-1
 259 -100 l 1,10,-1
 259 -4 l 1,11,12
 177 -2 177 -2 118 40 c 0,13,14
 84 64 84 64 64.5 112.5 c 128,-1,15
 45 161 45 161 45 230 c 0,16,17
 45 356 45 356 106 422.5 c 128,-1,18
 167 489 167 489 259 502 c 1,19,-1
 259 600 l 1,20,-1
 289 600 l 1,21,-1
 289 505 l 1,22,23
 296 505 296 505 319 505 c 128,-1,24
 342 505 342 505 381 495 c 128,-1,25
 420 485 420 485 440 466 c 1,26,-1
 440 335 l 1,27,-1
 421 328 l 1,28,-1
 416 433 l 1,29,30
 394 456 394 456 362.5 471 c 128,-1,31
 331 486 331 486 300 486 c 2,0,-1
110 231 m 0,32,33
 110 25 110 25 259 14 c 1,34,-1
 259 481 l 1,35,36
 191 466 191 466 150.5 401.5 c 128,-1,37
 110 337 110 337 110 231 c 0,32,33
EndSplineSet
EndChar

StartChar: sterling
Encoding: 163 163 100
Width: 502
GlyphClass: 2
Flags: W
LayerCount: 2
Fore
SplineSet
208 153 m 0,0,1
 208 45 208 45 130 13 c 1,2,-1
 426 13 l 1,3,-1
 431 0 l 1,4,-1
 85 0 l 1,5,-1
 78 13 l 1,6,-1
 82 13 l 2,7,8
 106 13 106 13 126 46 c 1,9,10
 147 84 147 84 147 146 c 0,11,12
 147 189 147 189 132 239 c 128,-1,13
 117 289 117 289 114 300 c 1,14,-1
 51 300 l 1,15,-1
 51 313 l 1,16,-1
 111 313 l 1,17,18
 100 355 100 355 100 394.5 c 128,-1,19
 100 434 100 434 101.5 452 c 128,-1,20
 103 470 103 470 106.5 488.5 c 128,-1,21
 110 507 110 507 120.5 528.5 c 128,-1,22
 131 550 131 550 147 564 c 0,23,24
 185 597 185 597 258.5 597 c 128,-1,25
 332 597 332 597 379 557 c 1,26,-1
 373 550 l 1,27,28
 336 584 336 584 278 584 c 128,-1,29
 220 584 220 584 190 552.5 c 128,-1,30
 160 521 160 521 160 429 c 0,31,32
 160 370 160 370 171 313 c 1,33,-1
 333 313 l 1,34,-1
 333 300 l 1,35,-1
 174 300 l 1,36,37
 179 281 179 281 190 245 c 0,38,39
 208 187 208 187 208 153 c 0,0,1
EndSplineSet
EndChar

StartChar: currency
Encoding: 164 164 101
Width: 600
GlyphClass: 2
Flags: W
LayerCount: 2
Fore
SplineSet
134 324 m 1,0,1
 100 372 100 372 100 446 c 128,-1,2
 100 520 100 520 138 571 c 1,3,-1
 90 620 l 1,4,-1
 131 661 l 1,5,-1
 180 613 l 1,6,7
 231 650 231 650 302.5 650 c 128,-1,8
 374 650 374 650 425 615 c 1,9,-1
 473 663 l 1,10,-1
 515 621 l 1,11,-1
 466 572 l 1,12,13
 500 522 500 522 500 451.5 c 128,-1,14
 500 381 500 381 462 329 c 1,15,-1
 515 277 l 1,16,-1
 474 236 l 1,17,-1
 421 289 l 1,18,19
 368 250 368 250 297 250 c 128,-1,20
 226 250 226 250 177 283 c 1,21,-1
 131 237 l 1,22,-1
 89 279 l 1,23,-1
 134 324 l 1,0,1
201.5 578 m 128,-1,25
 160 524 160 524 160 445.5 c 128,-1,26
 160 367 160 367 200 317.5 c 128,-1,27
 240 268 240 268 298.5 268 c 128,-1,28
 357 268 357 268 398.5 322 c 128,-1,29
 440 376 440 376 440 454.5 c 128,-1,30
 440 533 440 533 400 582.5 c 128,-1,31
 360 632 360 632 301.5 632 c 128,-1,24
 243 632 243 632 201.5 578 c 128,-1,25
EndSplineSet
EndChar

StartChar: yen
Encoding: 165 165 102
Width: 682
GlyphClass: 2
Flags: W
LayerCount: 2
Fore
SplineSet
618 600 m 2,0,1
 618 599 618 599 619 585 c 1,2,-1
 562 580 l 1,3,-1
 387 253 l 1,4,-1
 538 253 l 1,5,-1
 538 235 l 1,6,-1
 379 235 l 1,7,-1
 379 111 l 1,8,-1
 538 111 l 1,9,-1
 538 93 l 1,10,-1
 379 93 l 1,11,-1
 379 19 l 1,12,-1
 452 15 l 2,13,14
 452 14 452 14 451 0 c 1,15,-1
 251 -1 l 1,16,17
 251 8 251 8 252 13 c 1,18,-1
 304 20 l 2,19,20
 314 21 314 21 316 33 c 1,21,-1
 316 93 l 1,22,-1
 154 93 l 1,23,-1
 154 111 l 1,24,-1
 316 111 l 1,25,-1
 316 235 l 1,26,-1
 154 235 l 1,27,-1
 154 253 l 1,28,-1
 306 253 l 1,29,-1
 131 566 l 2,30,31
 124 578 124 578 117 580 c 1,32,-1
 75 584 l 1,33,34
 74 590 74 590 74 599 c 1,35,-1
 276 600 l 2,36,37
 276 599 276 599 277 585 c 1,38,-1
 198 578 l 1,39,-1
 196 577 l 1,40,-1
 367 253 l 1,41,-1
 524 563 l 1,42,43
 524 575 524 575 515 576 c 2,44,-1
 424 584 l 1,45,46
 423 590 423 590 423 599 c 1,47,-1
 618 600 l 2,0,1
EndSplineSet
EndChar

StartChar: brokenbar
Encoding: 166 166 103
Width: 284
GlyphClass: 2
Flags: W
LayerCount: 2
Fore
SplineSet
102 200 m 1,0,-1
 182 200 l 1,1,-1
 182 -200 l 1,2,-1
 102 -200 l 1,3,-1
 102 200 l 1,0,-1
182 400 m 1,4,-1
 102 400 l 1,5,-1
 102 749 l 1,6,-1
 182 749 l 1,7,-1
 182 400 l 1,4,-1
EndSplineSet
EndChar

StartChar: section
Encoding: 167 167 104
Width: 500
GlyphClass: 2
Flags: W
LayerCount: 2
Fore
SplineSet
90 600 m 1,0,-1
 155 600 l 1,1,2
 157 524 157 524 206 491 c 0,3,4
 229 476 229 476 256.5 464 c 128,-1,5
 284 452 284 452 311 438 c 128,-1,6
 338 424 338 424 360 404 c 0,7,8
 410 360 410 360 410 262 c 1,9,-1
 345 262 l 1,10,11
 345 340 345 340 294 376 c 0,12,13
 272 392 272 392 245 404.5 c 128,-1,14
 218 417 218 417 190.5 431 c 128,-1,15
 163 445 163 445 140 464 c 0,16,17
 90 507 90 507 90 600 c 1,0,-1
90 361 m 1,18,-1
 155 361 l 1,19,20
 157 284 157 284 206 251 c 0,21,22
 229 236 229 236 256.5 223.5 c 128,-1,23
 284 211 284 211 311 197 c 128,-1,24
 338 183 338 183 360 164 c 0,25,26
 410 119 410 119 410 23 c 1,27,-1
 345 23 l 1,28,29
 345 101 345 101 294 137 c 0,30,31
 272 153 272 153 245 165 c 128,-1,32
 218 177 218 177 190.5 191 c 128,-1,33
 163 205 163 205 140 224 c 0,34,35
 90 267 90 267 90 361 c 1,18,-1
EndSplineSet
EndChar

StartChar: dieresis
Encoding: 168 168 105
Width: 500
GlyphClass: 2
Flags: W
LayerCount: 2
Fore
SplineSet
119.5 581.5 m 128,-1,1
 109 593 109 593 109 611 c 128,-1,2
 109 629 109 629 119.5 639.5 c 128,-1,3
 130 650 130 650 147.5 650 c 128,-1,4
 165 650 165 650 175.5 639.5 c 128,-1,5
 186 629 186 629 186 610 c 128,-1,6
 186 591 186 591 175 580.5 c 128,-1,7
 164 570 164 570 147 570 c 128,-1,0
 130 570 130 570 119.5 581.5 c 128,-1,1
335 581.5 m 128,-1,9
 325 593 325 593 325 611 c 128,-1,10
 325 629 325 629 335 639.5 c 128,-1,11
 345 650 345 650 362 650 c 0,12,13
 402 650 402 650 402 610 c 0,14,15
 402 591 402 591 391 580.5 c 128,-1,16
 380 570 380 570 362.5 570 c 128,-1,8
 345 570 345 570 335 581.5 c 128,-1,9
EndSplineSet
EndChar

StartChar: copyright
Encoding: 169 169 106
Width: 833
GlyphClass: 2
Flags: W
LayerCount: 2
Fore
SplineSet
172 76 m 128,-1,1
 85 157 85 157 85 303 c 128,-1,2
 85 449 85 449 174 537 c 128,-1,3
 263 625 263 625 396 625 c 128,-1,4
 529 625 529 625 616 543.5 c 128,-1,5
 703 462 703 462 703 316.5 c 128,-1,6
 703 171 703 171 614 83 c 128,-1,7
 525 -5 525 -5 392 -5 c 128,-1,0
 259 -5 259 -5 172 76 c 128,-1,1
196.5 521.5 m 128,-1,9
 115 436 115 436 115 306.5 c 128,-1,10
 115 177 115 177 195 95 c 128,-1,11
 275 13 275 13 392.5 13 c 128,-1,12
 510 13 510 13 591.5 98.5 c 128,-1,13
 673 184 673 184 673 313.5 c 128,-1,14
 673 443 673 443 593 525 c 128,-1,15
 513 607 513 607 395.5 607 c 128,-1,8
 278 607 278 607 196.5 521.5 c 128,-1,9
387 498 m 0,16,17
 325 498 325 498 289 447 c 128,-1,18
 253 396 253 396 253 299 c 0,19,20
 253 130 253 130 368 130 c 0,21,22
 416 130 416 130 481 143 c 1,23,-1
 483 135 l 1,24,25
 435 122 435 122 364 122 c 0,26,27
 216 122 216 122 216 299 c 0,28,29
 216 396 216 396 260 450 c 1,30,31
 307 506 307 506 385 506 c 0,32,33
 411 506 411 506 440.5 501 c 128,-1,34
 470 496 470 496 480 492 c 1,35,-1
 487 414 l 1,36,-1
 477 410 l 1,37,-1
 470 468 l 1,38,39
 426 498 426 498 387 498 c 0,16,17
EndSplineSet
EndChar

StartChar: ordfeminine
Encoding: 170 170 107
Width: 300
GlyphClass: 2
Flags: W
LayerCount: 2
Fore
SplineSet
76 663 m 1,0,1
 123 682 123 682 145 682 c 0,2,3
 210 682 210 682 210 629 c 2,4,-1
 210 519 l 2,5,6
 210 508 210 508 216 508 c 2,7,-1
 238 507 l 1,8,-1
 237 501 l 1,9,-1
 222 500 l 2,10,11
 206 498 206 498 201 498 c 1,12,13
 187 502 187 502 187 514 c 1,14,-1
 186 514 l 1,15,16
 154 499 154 499 123 499 c 0,17,18
 75 499 75 499 72 537 c 0,19,20
 72 540 72 540 72 543 c 0,21,22
 72 570 72 570 108 578 c 0,23,24
 126 583 126 583 186 590 c 1,25,-1
 186 621 l 2,26,27
 186 675 186 675 145 675 c 0,28,29
 119 675 119 675 84 649 c 1,30,-1
 83 621 l 1,31,-1
 76 619 l 1,32,-1
 76 663 l 1,0,1
93 547 m 0,33,34
 93 504 93 504 129 504 c 0,35,36
 158 504 158 504 186 523 c 1,37,-1
 186 583 l 1,38,39
 131 580 131 580 112 574 c 128,-1,40
 93 568 93 568 93 547 c 0,33,34
EndSplineSet
EndChar

StartChar: guillemotleft
Encoding: 171 171 108
Width: 694
GlyphClass: 2
Flags: W
LayerCount: 2
Fore
SplineSet
344 106 m 1,0,-1
 344 88 l 1,1,-1
 75 259 l 1,2,-1
 344 430 l 1,3,-1
 344 412 l 1,4,-1
 139 259 l 1,5,-1
 344 106 l 1,0,-1
600 106 m 1,6,-1
 600 88 l 1,7,-1
 331 259 l 1,8,-1
 600 430 l 1,9,-1
 600 412 l 1,10,-1
 395 259 l 1,11,-1
 600 106 l 1,6,-1
EndSplineSet
EndChar

StartChar: logicalnot
Encoding: 172 172 109
Width: 600
GlyphClass: 2
Flags: W
LayerCount: 2
Fore
SplineSet
100 290 m 1,0,-1
 522 290 l 1,1,-1
 522 152 l 1,2,-1
 462 152 l 1,3,-1
 462 272 l 1,4,-1
 100 272 l 1,5,-1
 100 290 l 1,0,-1
EndSplineSet
EndChar

StartChar: registered
Encoding: 174 174 110
Width: 599
GlyphClass: 2
Flags: W
LayerCount: 2
Fore
SplineSet
148 343 m 128,-1,1
 90 397 90 397 90 494.5 c 128,-1,2
 90 592 90 592 149.5 651 c 128,-1,3
 209 710 209 710 298 710 c 128,-1,4
 387 710 387 710 445 655.5 c 128,-1,5
 503 601 503 601 503 503.5 c 128,-1,6
 503 406 503 406 443.5 347.5 c 128,-1,7
 384 289 384 289 295 289 c 128,-1,0
 206 289 206 289 148 343 c 128,-1,1
167.5 641 m 128,-1,9
 115 585 115 585 115 496.5 c 128,-1,10
 115 408 115 408 166.5 355 c 128,-1,11
 218 302 218 302 295 302 c 128,-1,12
 372 302 372 302 425 357.5 c 128,-1,13
 478 413 478 413 478 501 c 128,-1,14
 478 589 478 589 426 643 c 128,-1,15
 374 697 374 697 297 697 c 128,-1,8
 220 697 220 697 167.5 641 c 128,-1,9
266 482 m 1,16,-1
 266 386 l 1,17,-1
 289 385 l 1,18,-1
 288 380 l 1,19,-1
 222 380 l 1,20,-1
 222 384 l 1,21,-1
 239 387 l 2,22,23
 242 387 242 387 243 390 c 1,24,-1
 243 603 l 1,25,26
 240 606 240 606 239 606 c 2,27,-1
 222 608 l 1,28,-1
 222 613 l 1,29,-1
 303 613 l 2,30,31
 374 613 374 613 374 553 c 0,32,33
 374 534 374 534 359.5 513 c 128,-1,34
 345 492 345 492 332 486 c 1,35,-1
 393 386 l 1,36,-1
 410 385 l 1,37,-1
 409 380 l 1,38,-1
 373 380 l 1,39,-1
 310 482 l 1,40,-1
 266 482 l 1,16,-1
301 608 m 2,41,-1
 266 608 l 1,42,-1
 266 487 l 1,43,-1
 322 487 l 1,44,45
 352 517 352 517 352 551 c 0,46,47
 352 608 352 608 301 608 c 2,41,-1
EndSplineSet
EndChar

StartChar: macron
Encoding: 175 175 111
Width: 500
GlyphClass: 2
Flags: W
LayerCount: 2
Fore
SplineSet
100 608 m 1,0,-1
 400 608 l 1,1,-1
 400 590 l 1,2,-1
 100 590 l 1,3,-1
 100 608 l 1,0,-1
EndSplineSet
EndChar

StartChar: degree
Encoding: 176 176 112
Width: 378
GlyphClass: 2
Flags: W
LayerCount: 2
Fore
SplineSet
117.5 538 m 128,-1,1
 90 563 90 563 90 608.5 c 128,-1,2
 90 654 90 654 118.5 682 c 128,-1,3
 147 710 147 710 189.5 710 c 128,-1,4
 232 710 232 710 259.5 685 c 128,-1,5
 287 660 287 660 287 614 c 128,-1,6
 287 568 287 568 258.5 540.5 c 128,-1,7
 230 513 230 513 187.5 513 c 128,-1,0
 145 513 145 513 117.5 538 c 128,-1,1
140 661 m 128,-1,9
 120 640 120 640 120 609 c 128,-1,10
 120 578 120 578 139 559.5 c 128,-1,11
 158 541 158 541 187.5 541 c 128,-1,12
 217 541 217 541 237 561.5 c 128,-1,13
 257 582 257 582 257 613 c 128,-1,14
 257 644 257 644 237.5 663 c 128,-1,15
 218 682 218 682 189 682 c 128,-1,8
 160 682 160 682 140 661 c 128,-1,9
EndSplineSet
EndChar

StartChar: plusminus
Encoding: 177 177 113
Width: 833
GlyphClass: 2
Flags: W
LayerCount: 2
Fore
SplineSet
146 470 m 1,0,-1
 366 470 l 1,1,-1
 366 700 l 1,2,-1
 426 700 l 1,3,-1
 426 470 l 1,4,-1
 646 470 l 1,5,-1
 646 452 l 1,6,-1
 426 452 l 1,7,-1
 426 200 l 1,8,-1
 366 200 l 1,9,-1
 366 452 l 1,10,-1
 146 452 l 1,11,-1
 146 470 l 1,0,-1
146 103 m 1,12,-1
 646 103 l 1,13,-1
 646 85 l 1,14,-1
 146 85 l 1,15,-1
 146 103 l 1,12,-1
EndSplineSet
EndChar

StartChar: twosuperior
Encoding: 178 178 114
Width: 236
GlyphClass: 2
Flags: W
LayerCount: 2
Fore
SplineSet
39 729 m 1,0,1
 75 748 75 748 107 748 c 128,-1,2
 139 748 139 748 160 732.5 c 128,-1,3
 181 717 181 717 181 685 c 128,-1,4
 181 653 181 653 161 618 c 128,-1,5
 141 583 141 583 120.5 560.5 c 128,-1,6
 100 538 100 538 65 504 c 1,7,-1
 180 504 l 1,8,-1
 188 566 l 1,9,-1
 195 564 l 1,10,-1
 189 498 l 1,11,-1
 36 498 l 1,12,-1
 32 504 l 1,13,14
 156 623 156 623 156 683 c 0,15,16
 156 704 156 704 145.5 723 c 128,-1,17
 135 742 135 742 107 742 c 0,18,19
 81 742 81 742 52 730 c 1,20,-1
 41 725 l 1,21,-1
 39 729 l 1,0,1
EndSplineSet
EndChar

StartChar: threesuperior
Encoding: 179 179 115
Width: 300
GlyphClass: 2
Flags: W
LayerCount: 2
Fore
SplineSet
167 738 m 0,0,1
 137 738 137 738 105 722 c 1,2,-1
 102 725 l 1,3,4
 133 744 133 744 165 744 c 128,-1,5
 197 744 197 744 215 730 c 128,-1,6
 233 716 233 716 233 691 c 0,7,8
 233 644 233 644 177 626 c 1,9,10
 235 620 235 620 235 574 c 0,11,12
 235 499 235 499 136 499 c 0,13,14
 111 499 111 499 91 505 c 1,15,-1
 93 509 l 1,16,17
 108 504 108 504 134 504 c 0,18,19
 210 504 210 504 210 572 c 0,20,21
 210 608 210 608 182 616 c 0,22,23
 160 622 160 622 128 622 c 1,24,-1
 128 628 l 1,25,26
 148 628 148 628 159 627 c 1,27,28
 208 639 208 639 208 688.5 c 128,-1,29
 208 738 208 738 167 738 c 0,0,1
EndSplineSet
EndChar

StartChar: acute
Encoding: 180 180 116
Width: 300
GlyphClass: 2
Flags: W
LayerCount: 2
Fore
SplineSet
210 750 m 1,0,-1
 240 743 l 1,1,-1
 121 595 l 1,2,-1
 106 603 l 1,3,-1
 210 750 l 1,0,-1
EndSplineSet
EndChar

StartChar: mu
Encoding: 181 181 117
Width: 649
GlyphClass: 2
Flags: W
LayerCount: 2
Fore
SplineSet
195 -250 m 1,0,-1
 130 -250 l 1,1,-1
 130 250 l 1,2,-1
 195 250 l 1,3,-1
 195 -250 l 1,0,-1
61 484 m 1,4,-1
 60 499 l 1,5,-1
 195 500 l 1,6,-1
 195 152 l 2,7,8
 195 113 195 113 206 84.5 c 128,-1,9
 217 56 217 56 230.5 43 c 128,-1,10
 244 30 244 30 262 23 c 0,11,12
 290 13 290 13 309 15 c 1,13,14
 370 16 370 16 448 78 c 1,15,-1
 448 465 l 1,16,17
 444 477 444 477 431 479 c 2,18,-1
 379 484 l 1,19,20
 378 490 378 490 378 499 c 1,21,-1
 513 500 l 1,22,-1
 513 46 l 1,23,24
 515 21 515 21 529 21 c 2,25,-1
 589 18 l 1,26,-1
 588 3 l 1,27,28
 540 -5 540 -5 488 -5 c 1,29,30
 476 -4 476 -4 462 8.5 c 128,-1,31
 448 21 448 21 448 40 c 2,32,-1
 448 58 l 1,33,34
 357 -3 357 -3 276 -3 c 0,35,36
 242 -3 242 -3 196 14 c 0,37,38
 166 25 166 25 148 55.5 c 128,-1,39
 130 86 130 86 130 132 c 2,40,-1
 130 464 l 2,41,42
 130 469 130 469 124.5 473.5 c 128,-1,43
 119 478 119 478 113 479 c 2,44,-1
 61 484 l 1,4,-1
EndSplineSet
EndChar

StartChar: paragraph
Encoding: 182 182 118
Width: 611
GlyphClass: 2
Flags: W
LayerCount: 2
Fore
SplineSet
162 403 m 128,-1,1
 115 447 115 447 115 524 c 128,-1,2
 115 601 115 601 163.5 650.5 c 128,-1,3
 212 700 212 700 281 700 c 2,4,-1
 301 700 l 1,5,-1
 301 0 l 1,6,-1
 281 0 l 1,7,-1
 281 359 l 1,8,0
 209 359 209 359 162 403 c 128,-1,1
498 700 m 1,9,-1
 498 0 l 1,10,-1
 448 0 l 1,11,-1
 448 700 l 1,12,-1
 498 700 l 1,9,-1
EndSplineSet
EndChar

StartChar: periodcentered
Encoding: 183 183 119
Width: 136
GlyphClass: 2
Flags: W
LayerCount: 2
Fore
SplineSet
34 382 m 0,0,1
 34 399 34 399 43 409.5 c 128,-1,2
 52 420 52 420 66 420 c 0,3,4
 99 420 99 420 99 382 c 0,5,6
 99 367 99 367 89.5 357.5 c 128,-1,7
 80 348 80 348 66 348 c 0,8,9
 34 348 34 348 34 382 c 0,0,1
EndSplineSet
EndChar

StartChar: cedilla
Encoding: 184 184 120
Width: 260
GlyphClass: 2
Flags: W
LayerCount: 2
Fore
SplineSet
58 -118 m 1,0,1
 133 -92 133 -92 133 -46 c 0,2,3
 133 -21 133 -21 126 0 c 1,4,-1
 161 6 l 1,5,6
 169 -15 169 -15 169 -32 c 0,7,8
 169 -70 169 -70 139.5 -99.5 c 128,-1,9
 110 -129 110 -129 68 -139 c 1,10,-1
 58 -118 l 1,0,1
EndSplineSet
EndChar

StartChar: onesuperior
Encoding: 185 185 121
Width: 275
GlyphClass: 2
Flags: W
LayerCount: 2
Fore
SplineSet
170 749 m 1,0,-1
 170 500 l 1,1,-1
 146 500 l 1,2,-1
 146 742 l 1,3,-1
 87 728 l 1,4,-1
 87 735 l 1,5,-1
 146 749 l 1,6,-1
 170 749 l 1,0,-1
EndSplineSet
EndChar

StartChar: ordmasculine
Encoding: 186 186 122
Width: 300
GlyphClass: 2
Flags: W
LayerCount: 2
Fore
SplineSet
83 524.5 m 128,-1,1
 58 548 58 548 58 596 c 128,-1,2
 58 644 58 644 84.5 671.5 c 128,-1,3
 111 699 111 699 151.5 699 c 128,-1,4
 192 699 192 699 217 676 c 128,-1,5
 242 653 242 653 242 605 c 128,-1,6
 242 557 242 557 215.5 529 c 128,-1,7
 189 501 189 501 148.5 501 c 128,-1,0
 108 501 108 501 83 524.5 c 128,-1,1
102.5 667 m 128,-1,9
 83 642 83 642 83 598.5 c 128,-1,10
 83 555 83 555 101.5 531.5 c 128,-1,11
 120 508 120 508 149 508 c 128,-1,12
 178 508 178 508 197.5 533.5 c 128,-1,13
 217 559 217 559 217 602.5 c 128,-1,14
 217 646 217 646 198.5 669 c 128,-1,15
 180 692 180 692 151 692 c 128,-1,8
 122 692 122 692 102.5 667 c 128,-1,9
EndSplineSet
EndChar

StartChar: guillemotright
Encoding: 187 187 123
Width: 694
GlyphClass: 2
Flags: W
LayerCount: 2
Fore
SplineSet
331 88 m 1,0,-1
 331 106 l 1,1,-1
 536 259 l 1,2,-1
 331 412 l 1,3,-1
 331 430 l 1,4,-1
 600 259 l 1,5,-1
 331 88 l 1,0,-1
75 88 m 1,6,-1
 75 106 l 1,7,-1
 280 259 l 1,8,-1
 75 412 l 1,9,-1
 75 430 l 1,10,-1
 344 259 l 1,11,-1
 75 88 l 1,6,-1
EndSplineSet
EndChar

StartChar: onequarter
Encoding: 188 188 124
Width: 840
GlyphClass: 2
Flags: W
LayerCount: 2
Fore
SplineSet
524 750 m 1,0,-1
 540 750 l 1,1,-1
 289 0 l 1,2,-1
 273 0 l 1,3,-1
 524 750 l 1,0,-1
675 98 m 1,4,-1
 465 98 l 1,5,-1
 453 108 l 1,6,-1
 675 463 l 1,7,-1
 723 463 l 1,8,-1
 723 108 l 1,9,-1
 755 108 l 1,10,-1
 756 98 l 1,11,-1
 723 98 l 1,12,-1
 723 13 l 1,13,-1
 770 10 l 1,14,15
 769 1 769 1 769 0 c 2,16,-1
 630 -1 l 1,17,-1
 630 9 l 1,18,-1
 667 14 l 2,19,20
 672 15 672 15 675 23 c 1,21,-1
 675 98 l 1,4,-1
675 108 m 1,22,-1
 675 442 l 1,23,-1
 465 108 l 1,24,-1
 675 108 l 1,22,-1
230 749 m 1,25,-1
 230 300 l 1,26,-1
 188 300 l 1,27,-1
 188 737 l 1,28,-1
 80 712 l 1,29,-1
 79 725 l 1,30,-1
 188 749 l 1,31,-1
 230 749 l 1,25,-1
EndSplineSet
EndChar

StartChar: onehalf
Encoding: 189 189 125
Width: 862
GlyphClass: 2
Flags: W
LayerCount: 2
Fore
SplineSet
233 749 m 1,0,-1
 233 300 l 1,1,-1
 190 300 l 1,2,-1
 190 736 l 1,3,-1
 82 712 l 1,4,-1
 81 725 l 1,5,-1
 190 749 l 1,6,-1
 233 749 l 1,0,-1
537 413 m 1,7,8
 600 448 600 448 657.5 448 c 128,-1,9
 715 448 715 448 752.5 420 c 128,-1,10
 790 392 790 392 790 331 c 0,11,12
 790 250 790 250 720 161 c 0,13,14
 666 91 666 91 582 11 c 1,15,-1
 789 11 l 1,16,-1
 802 122 l 1,17,-1
 815 119 l 1,18,-1
 805 1 l 1,19,-1
 531 1 l 1,20,-1
 523 11 l 1,21,22
 636 121 636 121 690.5 196 c 128,-1,23
 745 271 745 271 745 332 c 0,24,25
 745 354 745 354 739.5 375 c 128,-1,26
 734 396 734 396 713 417 c 128,-1,27
 692 438 692 438 664 438 c 0,28,29
 616 438 616 438 559 414 c 2,30,-1
 540 406 l 1,31,-1
 537 413 l 1,7,8
524 750 m 1,32,-1
 540 750 l 1,33,-1
 289 0 l 1,34,-1
 273 0 l 1,35,-1
 524 750 l 1,32,-1
EndSplineSet
EndChar

StartChar: threequarters
Encoding: 190 190 126
Width: 799
GlyphClass: 2
Flags: W
LayerCount: 2
Fore
SplineSet
768 11 m 1,0,-1
 767 0 l 1,1,-1
 626 -1 l 1,2,3
 626 6 626 6 627 9 c 1,4,-1
 664 14 l 2,5,6
 669 15 669 15 672 23 c 1,7,-1
 672 98 l 1,8,-1
 462 98 l 1,9,-1
 450 109 l 1,10,-1
 672 464 l 1,11,-1
 720 464 l 1,12,-1
 720 109 l 1,13,-1
 752 109 l 1,14,-1
 753 98 l 1,15,-1
 720 98 l 1,16,-1
 720 13 l 1,17,-1
 768 11 l 1,0,-1
672 109 m 1,18,-1
 672 444 l 1,19,-1
 462 109 l 1,20,-1
 672 109 l 1,18,-1
115 526 m 1,21,-1
 115 536 l 1,22,-1
 170 536 l 1,23,24
 193 541 193 541 216 555 c 1,25,26
 261 585 261 585 261 647 c 0,27,28
 261 684 261 684 243.5 711 c 128,-1,29
 226 738 226 738 192 738 c 0,30,31
 129 738 129 738 86 716 c 1,32,-1
 71 709 l 1,33,-1
 66 715 l 1,34,35
 123 749 123 749 182 749 c 128,-1,36
 241 749 241 749 274 724 c 128,-1,37
 307 699 307 699 307 652 c 0,38,39
 307 565 307 565 204 534 c 1,40,41
 310 521 310 521 310 437 c 0,42,43
 310 300 310 300 129 300 c 0,44,45
 85 300 85 300 45 311 c 1,46,-1
 50 319 l 1,47,48
 77 310 77 310 125 310 c 0,49,50
 264 310 264 310 264 435 c 0,51,52
 264 461 264 461 254 479.5 c 128,-1,53
 244 498 244 498 231 506.5 c 128,-1,54
 218 515 218 515 194 520 c 0,55,56
 165 526 165 526 115 526 c 1,21,-1
524 750 m 1,57,-1
 540 750 l 1,58,-1
 289 0 l 1,59,-1
 273 0 l 1,60,-1
 524 750 l 1,57,-1
EndSplineSet
EndChar

